<mxfile host="65bd71144e">
    <diagram id="AnBi1reNslluLW6D9rqd" name="Page-1">
        <mxGraphModel dx="706" dy="390" grid="1" gridSize="10" guides="1" tooltips="1" connect="1" arrows="1" fold="1" page="1" pageScale="1" pageWidth="850" pageHeight="1100" math="0" shadow="0">
            <root>
                <mxCell id="0"/>
                <mxCell id="1" parent="0"/>
                <mxCell id="2" value="&lt;font style=&quot;font-size: 24px;&quot;&gt;Welcome to Joyce&#39;s Cookie Shop!&lt;/font&gt;" style="text;html=1;align=center;verticalAlign=middle;resizable=0;points=[];autosize=1;strokeColor=none;fillColor=none;" vertex="1" parent="1">
                    <mxGeometry x="195" y="180" width="390" height="40" as="geometry"/>
                </mxCell>
                <mxCell id="3" value="&lt;font style=&quot;font-size: 18px;&quot;&gt;How many cookies in what flavour would you like to order?&lt;/font&gt;" style="text;html=1;align=center;verticalAlign=middle;resizable=0;points=[];autosize=1;strokeColor=none;fillColor=none;" vertex="1" parent="1">
                    <mxGeometry x="10" y="240" width="490" height="40" as="geometry"/>
                </mxCell>
                <mxCell id="5" value="Pick your desired number of cookies!" style="text;html=1;align=center;verticalAlign=middle;resizable=0;points=[];autosize=1;strokeColor=none;fillColor=none;" vertex="1" parent="1">
                    <mxGeometry x="10" y="298" width="220" height="30" as="geometry"/>
                </mxCell>
                <mxCell id="6" value="5 ($10)" style="text;html=1;align=center;verticalAlign=middle;resizable=0;points=[];autosize=1;strokeColor=none;fillColor=none;" vertex="1" parent="1">
                    <mxGeometry x="20" y="328" width="60" height="30" as="geometry"/>
                </mxCell>
                <mxCell id="7" value="10 ($20)" style="text;html=1;align=center;verticalAlign=middle;resizable=0;points=[];autosize=1;strokeColor=none;fillColor=none;" vertex="1" parent="1">
                    <mxGeometry x="15" y="358" width="70" height="30" as="geometry"/>
                </mxCell>
                <mxCell id="8" value="20 ($30)" style="text;html=1;align=center;verticalAlign=middle;resizable=0;points=[];autosize=1;strokeColor=none;fillColor=none;" vertex="1" parent="1">
                    <mxGeometry x="15" y="390" width="70" height="30" as="geometry"/>
                </mxCell>
                <mxCell id="9" value="" style="ellipse;whiteSpace=wrap;html=1;" vertex="1" parent="1">
                    <mxGeometry x="10" y="338" width="10" height="10" as="geometry"/>
                </mxCell>
                <mxCell id="11" value="" style="ellipse;whiteSpace=wrap;html=1;" vertex="1" parent="1">
                    <mxGeometry x="10" y="368" width="10" height="10" as="geometry"/>
                </mxCell>
                <mxCell id="12" value="" style="ellipse;whiteSpace=wrap;html=1;" vertex="1" parent="1">
                    <mxGeometry x="10" y="400" width="10" height="10" as="geometry"/>
                </mxCell>
                <mxCell id="14" value="Pick your desired flavour!" style="text;html=1;align=center;verticalAlign=middle;resizable=0;points=[];autosize=1;strokeColor=none;fillColor=none;" vertex="1" parent="1">
                    <mxGeometry x="20" y="450" width="160" height="30" as="geometry"/>
                </mxCell>
                <mxCell id="18" value="" style="ellipse;whiteSpace=wrap;html=1;" vertex="1" parent="1">
                    <mxGeometry x="20" y="490" width="10" height="10" as="geometry"/>
                </mxCell>
                <mxCell id="19" value="" style="ellipse;whiteSpace=wrap;html=1;" vertex="1" parent="1">
                    <mxGeometry x="20" y="550" width="10" height="10" as="geometry"/>
                </mxCell>
                <mxCell id="20" value="" style="ellipse;whiteSpace=wrap;html=1;" vertex="1" parent="1">
                    <mxGeometry x="20" y="520" width="10" height="10" as="geometry"/>
                </mxCell>
                <mxCell id="22" value="Chocolate chips + ($0.50)" style="text;html=1;align=center;verticalAlign=middle;resizable=0;points=[];autosize=1;strokeColor=none;fillColor=none;" vertex="1" parent="1">
                    <mxGeometry x="25" y="480" width="160" height="30" as="geometry"/>
                </mxCell>
                <mxCell id="23" value="Oatmeal raisin + ($0.95)" style="text;html=1;align=center;verticalAlign=middle;resizable=0;points=[];autosize=1;strokeColor=none;fillColor=none;" vertex="1" parent="1">
                    <mxGeometry x="30" y="510" width="150" height="30" as="geometry"/>
                </mxCell>
                <mxCell id="24" value="Sugar + ($0.50)" style="text;html=1;align=center;verticalAlign=middle;resizable=0;points=[];autosize=1;strokeColor=none;fillColor=none;" vertex="1" parent="1">
                    <mxGeometry x="30" y="540" width="110" height="30" as="geometry"/>
                </mxCell>
                <mxCell id="25" value="Show final Price" style="rounded=1;whiteSpace=wrap;html=1;" vertex="1" parent="1">
                    <mxGeometry x="10" y="570" width="120" height="60" as="geometry"/>
                </mxCell>
                <mxCell id="26" value="" style="shape=image;verticalLabelPosition=bottom;labelBackgroundColor=default;verticalAlign=top;aspect=fixed;imageAspect=0;image=data:image/png,iVBORw0KGgoAAAANSUhEUgAAAlgAAAJYCAIAAAAxBA+LAAAAGXRFWHRTb2Z0d2FyZQBBZG9iZSBJbWFnZVJlYWR5ccllPAAAAyNpVFh0WE1MOmNvbS5hZG9iZS54bXAAAAAAADw/eHBhY2tldCBiZWdpbj0i77u/IiBpZD0iVzVNME1wQ2VoaUh6cmVTek5UY3prYzlkIj8+IDx4OnhtcG1ldGEgeG1sbnM6eD0iYWRvYmU6bnM6bWV0YS8iIHg6eG1wdGs9IkFkb2JlIFhNUCBDb3JlIDYuMC1jMDAyIDc5LjE2NDQ2MCwgMjAyMC8wNS8xMi0xNjowNDoxNyAgICAgICAgIj4gPHJkZjpSREYgeG1sbnM6cmRmPSJodHRwOi8vd3d3LnczLm9yZy8xOTk5LzAyLzIyLXJkZi1zeW50YXgtbnMjIj4gPHJkZjpEZXNjcmlwdGlvbiByZGY6YWJvdXQ9IiIgeG1sbnM6eG1wPSJodHRwOi8vbnMuYWRvYmUuY29tL3hhcC8xLjAvIiB4bWxuczp4bXBNTT0iaHR0cDovL25zLmFkb2JlLmNvbS94YXAvMS4wL21tLyIgeG1sbnM6c3RSZWY9Imh0dHA6Ly9ucy5hZG9iZS5jb20veGFwLzEuMC9zVHlwZS9SZXNvdXJjZVJlZiMiIHhtcDpDcmVhdG9yVG9vbD0iQWRvYmUgUGhvdG9zaG9wIDIxLjIgKFdpbmRvd3MpIiB4bXBNTTpJbnN0YW5jZUlEPSJ4bXAuaWlkOjVFQUNCMzk0M0EyRDExRUI5QzE1RDU0MjlCQjM0RDU4IiB4bXBNTTpEb2N1bWVudElEPSJ4bXAuZGlkOjVFQUNCMzk1M0EyRDExRUI5QzE1RDU0MjlCQjM0RDU4Ij4gPHhtcE1NOkRlcml2ZWRGcm9tIHN0UmVmOmluc3RhbmNlSUQ9InhtcC5paWQ6NUVBQ0IzOTIzQTJEMTFFQjlDMTVENTQyOUJCMzRENTgiIHN0UmVmOmRvY3VtZW50SUQ9InhtcC5kaWQ6NUVBQ0IzOTMzQTJEMTFFQjlDMTVENTQyOUJCMzRENTgiLz4gPC9yZGY6RGVzY3JpcHRpb24+IDwvcmRmOlJERj4gPC94OnhtcG1ldGE+IDw/eHBhY2tldCBlbmQ9InIiPz4JZ7/DAAED8UlEQVR42uy92ZMkyXknFh7hceR91N3Vd/dcAAYnhyRIUFyRlK1I25VkJq2ZtE96kF70pj9HZrtmK+Ou1riiSCxBLAgCBIHBYIjB3GdP30d1V9d95BUZp+vziKrqOrKq8nCP8Mj0bwqF6qrICA8Pj+/nv+9Ea1tN5RxBSp+CmBzCVFDP66Y1iuTnAnG8ZtKzmNY1pYwkJPtXJcnfExFmJg9dlqQ0DsLyifc+DrPRPAJC4P4lRYTAJAaCuFwNKaJMoJSMCEpFoSOW10PHT4O43wrqcXqU5AQeuSw58hNKehCon6uhPofU+zhVvqhSpEiRImWSBY8hHUTn/ZgilZFEULJAyRHTYoeE+Wk4k6NTTo9SIIV7t36EHibIC1mTwuNDx6Pqogyg4CSYQzn4AlHa0yVlwkCRu15lhMAnEJGzzVIwM+mR4SQIh31daoDxHIFNPH5EEKU/hNRYIOJ4GxL8BLhbMkFTlRAojoyIJBmqJhA7POEoRNmlhnvHSR+hFClSpEiZaMGSDvLa9EsiOJYsEGXw6iTzM014X4aZpTQRM6mScAzrqVN25Kcs+wvxMC+ZkCiI0rx4wvfPFAJR4pMzbjgn1F2SgQdIMvZYCNcLZAgRUzaTngDBLPsLcYaJYNrRoYmzQHb4J8kfGp9bGXzApK9PENHvkPCePzLSOQgrypkFdohSCp9hRQ2lj1CKFClSpEy04KxaRFNNk0jWHJoNQ6ig1AlleOxpTArJEFMU3F6anKVUCDNpOmkVrEghZqhQULLLH6V58ayhIEp2NgRFPjT2k0B43c2ZAEnEeuyE09lHsJRyT7FIP9cwtbQKJv5CnDFdkB4KZpIFjj3/47wxmQAP4SgnJr3/SESZBCLMeRNihynnGqYZTTridaSPUIoUKVKkTLT0wQjRiH9nvOEQJUBU4W5pEy00VAh6xIECSg/hsFwOCU4QedlL0agBpXyp4Slm0lSyDJNMq0D9GEjJcEAoCAr2sIhKc+hk4B875JNFTYeeIjLkp8kZv07l1gjzmRLWcZhC76gel0ei+QtPGQYeWnOk5xdMNS5GZBaI+N9+alOf+UT3MQPIoaCRcGZqCeAXyzNOBjskwvkLe82J9BFKkSJFipSJFjzcXnrs/YJJVY1BohFBJZttqyT5ywJHROewQyVpRxZ7akhG/ygfMylhNdghry24vxCLi4Jp+AWzZA7NNP6NPNES+TIOjaJYTcXxHR4aCQczaQpthY9fR2R/IR5IwSRPx5L0C04mC0yb/8nSL5MCjX3jYkL9brkTRMkOT1z4eKYh/wv36S+UPkIpUqRIkTLRgvvfdSdMysbRIiqWOVRwd6tkgWNMEAdjhwnaS1kSFZHNpOlUn0E9okdR2qQwOgJLFERJ3OrI5tBs2UIl+ElhD4rRsUmBIkuD4bBYxtFMeorLMAV/YVJYePb0Y6FCY5KsIDppLDAl/odEGZiUzIOi0rvTH09EZHwFJDo7TNJzd+RaKKmrnvIn6SOUIkWKFCkTLTj93XoaDSUSoYOimEMFNC5LFihlBHaYghORGVUS1kyadPWZXskU6fkLsSALP2UURLyukGJlMNHwT4KfFJ6gSM5Q68xHRVI6EUczaQppFWm2bTom0jQqRYoUKVImWnDqlGK8LKLph8YkO4OSBUoRhB0ePYSzsZSxpXRwXsgl2DOdtIoTltE0OD1OEQJTRkFuAaJpmUNRcnN3ztUk/klJYDH2ay/lGQrJ5tyDq/4Td0j43c9Y+guPnR5LFJQskMnETTj4IQHun5AJm/N+aWIS6RYoZXbI12U4lv7Cw6eXPkIpUqRIkTLRglOhg4lxwcScguNmDh2EQY89F0RofMY5rqzxTEKUUGTpeJpJk+aF6fgLccIQmDIKckiTSMUcmgj+TVAgDJoYw+4ZdzoeGHmm5jwloIYkOQaOpzhqJs1oWkU6/kKcMAqmw2cYX20Ep6CwLLA/CBwPvEAymKfvackoOg4SZcoLEVOBQ8SD9iYdTZpChr/0EUqRIkWKlImWpCvLJNBod1zpoCSCkvyJMIGZ44jn8b0T1Voyzgt7RcoSHreRQFBnUk2DFZxYNdFkOivx9AumGReDOE7TWAXCSOST0DgUIvK1lLKBQzL0FREnG2ky/sIEAmdwMksvARTkHBozLAqKxgLHiwJK2BPwKYiPi/0F1BAeuXkjnWzw8Rxlu4TZPSiJZdyf6F/I52LSRyhFihQpUiZaeDJCdDot5E0HRUiTyKA5NBP8SrLADD0gkdlhH77DxLoeDX6KYUJJOaZVJOov5HAxzHWVpeMXzHhcTCrmUJHBRSLfeICisLh4OiKKbSYVLK0i0/5CzG9ZZdwvmH0WmGX8k+AnyWJaiEjO/gtrWjX8yQbE5l6VyNlHk2bUXyh9hFKkSJEiZaKFNSMcB79gCgGikgiOOwtkcm9jVSdUWHaYvKU0VTMpFxtp5vyFmPkKGg+/oERBCX7JPDHO180GdooJiijZOBoGZtJ00yqy7C/EbN9Q6ReU+Dcu+DcmdVUzB5MHa0MERMwYO0w3mjTL/kLpI5QiRYoUKRMtLBjhxPoFhTOHCs0FRWWBkxyfikRmikLZS/ulhqmbSQcPJZX+QiX5otvioeBQyYIiQOB55lCJfxL2GM0SEWcVCYKI5DQEYG0mTSCC5kRqyMijRwm38xWBESYSIMNHzQ+bL5+6U1B4j6Aw4IfG9mKJIhUShzUKQhNRP+yQEaYMfxo0WPgMSyKXnL+QTeCM9BFKkSJFipSJlhEYYVKRogJZRIe9+uSYQ1PlgiiTp05qeITvNUmKiy0taniOmZQpFUKjuAzJEJdAbOJIEyKFyogRpHjEt4B3gAw/FMxYmoTY5tD08A8JfbosgCVhf3qSyvITDA65mEl5p1WwL8OWnL9wpMAZPPSTz7RfULLAzOIfEugsEiBFIovpEsRk2OHwkJpiNGkW/IXSRyhFihQpUiZaBmSEY+EXTCBNIrFOUKkV+8paPGbKFDCDpUYRs+snbTVNkRr2ZSZNN7NiyLSKMfcXiphHKIpfMEUUFNUcmiD+odQ+LCyuDnpREcNjEgXFtHyHyeQajpR0P3BaRbb8hVwZIf8AGekXFJMFio9/SKCxCLujZIxBI+Mi6163ghHEZNhhstGkWfEXDhw4I32EUqRIkSJloqVvRsg/UpTP/js7fkEhzaGJcMG0WeAEhpByDhUliX1UeGqYgJk0e/5CVuPv46x9RpDi/lcpSlhzMDKK8raIJpMmmLCuRqI62WTyRNKPJWlPYBKgmLzv8HQzKRuj40hpFcn7C1FCUVPxOPsJnMEDTnRWEucT8gvyjmYdO/xTku15LDEvfWhkAYqE62pPDBF7AciJvPvkk+5T8RemlWh/ikgfoRQpUqRImWg5jxHy31Bz4EEJ+QV5N8BIksyIZguVLDAbHDEhdjhW1PAcMylKKa0ieX9hoh3tz7kGPnegiQbITI5fEHGeBiEgMCnwk8gnAigOCFUosQ8N8i4kaSYlpyFDWhE0AvgL0wqcwWevt0yhYEb8guPPAhPpcCzBb4z44ggfIpxeigQQ8RS8Y8m4pL/w2FlPC5yRPkIpUqRIkTLRgvvYsGSigkxG/IKIGx+eBCIoWeAksUPC4/ABX5PEvIZnmUlZuuEYc8ms+QtPjSDFyaubifcLpmkRRWnXIkMpzLuUTIKiCIiYGByic5Pupb+Q56Tjnssp6dz5RFRwaigoQLJ8iviHknqq2VyLbIRkd6YIp8OzB4fnR5MqI3UA4eovHPFSyS6+HoEz0kcoRYoUKVImWvDJfVfW8iUGOU3yfkE0CDfMBh3kNtliE0GU5bERwYfO3oPI3lKaHi886olTRqp7x4ngMaOBKUWQ4lOWzzgGyKRmER0bcygHW6h48DKWTkkORba5jW/gMI1EEVEUOEzYRjqYSTp7gTM4mbc//QAZYVAwGT3LFAXHGf8mPBYHCYiOgyDX4MdmDA55RJNy9RdmNHBG+gilSJEiRcpEC07ANZhyBZnU/IIpWERTMYdmiAvKXIwhZomkPg6W1DBjvJBTWkVS/kLBK868CB3FvFGQtSqSfsFkUJAd/knkk7jIcARsgC5LcMivSHcW/YWcZhdzVRqIw/ky5xecUPxLCYUk8iU/wySVy5OkjhIXDifGXzjigPs4q/QRSpEiRYqUiRbMbwfN1DWYVb/gJNLBxElZBlggk+dEBM0G5NsbaTReknQWXDq8cNz9hfwjSDEnZcIDEET0C6aXL88OAjOJf0KAH0LiXi4l1EwaFPuwbqZiJk02ggYxSbfn7y9kds/MXYc4pSb03D4/ASiYJAsUCgJTAD+UWZ/jGSNPCiMTBUWWiEgYTj+nyUYcqs/wr0cqbuCM9BFKkSJFipSJFiz8th0pPKkAi8Z4yfkFEzOHikMEE2VkaDJiTnveJiGJPcckrkRGOSQbZtJT/YUjsC9+pEvwCFLMb7mPrMb4BshMsEU0AyiYBCIhmWpx+mwQ/qlbosOhwtBMyjV8hi0WDvO57AfOYOZrT6KgqEpbdPzjjksS+UTCxSQ4ojDskGs0qRD+wiQT7TkEzkgfoRQpUqRImWjBvE48Mh3kV8EkQ35BUcyhGSWCwlBAJuNIM4vw5EwyZTeI6z32HVDK20zKjxcK4S9MsuIMa/M6Fuc9T+DC2bKICmEOzRwEJgh+SODFzj9dAfEAxXQRMetm0gz5C/nfe+JAmJprcHxRkJEyF5QFIlHnS7h9HocxE97rlRCG4+foOxSAHSaFhYqA/kLRAmekj1CKFClSpEy0sPYRJhkpmsC4MukXFNQcigSbprEhfyPeIOH3XAhhNVqOQavpmUn5kUIlC/mFPCJIUwNCxHRaeATIIA4KRGC/oHDmUCTS7EwU5o0yD4T58xpN5fNFxPTMpOn4C7lM1ZDIyTbRfuizYJbvD2L/QqapwBLsL8jbKZgKC0RZmR0p582VOP36uCAiG3YoHBwiDv0LeSDnqMM5Mf1DnFD6CKVIkSJFykQLIx8hSurDSUeKJuEX5J0mkbA5FAkzKZIF8nimhNVjJWxpAHcG0wcvFC6tgnn/Qs7ZFKk5C/HoL8a45UtkzCIqCgSiTMyIFAFBcQTdz95S2oeZNHMRNGf1LxQj0Z554MygZ8GpKhpenSVYpAyKj4ISAiX4jQUoCouIZOhroSxgoTKKv5CHnzHFwBnpI5QiRYoUKRMtI/sIk9mKo0RGlCW/4LABokJxQckCJTs8bT0My4mQQGZSseJIU/YXJhOqOuy94KHXupiuwQn3CyL2U8PhZAilc10pmQPFoaAgYTMp17SKsfIXplF6rc+z4OEWN5PXRJQ26JPgF+RRVkDinxTesDSa+zCZbuhco0kz4S9k+0jYBM4M+ACkj1CKFClSpEy0DOsjTKaITALnzIxfMP2qMQnTwTFkgaPcEhmruyfDrZ90eeGZJ+rjjyOxYpH9hTwjSBP6PE7gFR7yTCghDZOECuAWFDKW5tAsQSAS70IkS9NGhlhOWYXDkdQ7pwrd6eAWj6Klo50FD/MCsiVfaaFgUq7BdIhguig4fviXIXBOtBUhV1g5b3UNjgyJwWEmsHDMA2cGqUEqfYRSpEiRImWiZUAf4cj74kmLFE2BDiKm08P/hoXjWkjEExNOlydiTXky1JAlL0w2rYK5vzA7EaTsn9EAQIjE1i4iB8hk1y+IkrpbUSAQCbasR7sQGeW8RJRHkYDvkJn3KeP+QvEDZxie+LSz4ERe+r5rivJ2DY4rEcwUC0wf/1CCkyPMzZHhPkzSvItswOGZ6D2B/kLmgTOj1iDt4xLSRyhFihQpUiZacL+7wwQSB5PLl8geHRwDc2jKpAplZJzJTgAZ6GMktTGTQZelSGbS8xijIrq/kDehHyyCdFQLQ8+xYc66AImuCTINgUpS4Usj3CoS/olPcv22wVyE6YHiwIg4LBxyTVgbMrbmvBslCUS1EKHWLHtnIeapJ7gkDgobIJM5IsibBaK0XhMBdkQJ3jDhOm4iGCgOhoiDwyGbgt0oq1iYWuBMMjVIT/+c9BFKkSJFipSJFsx1Nzs5kaLZooPjZg5NmgUKZUxFXPliX8QvDXaIBDeTDpNWIYq/MAsRpIxvE3N75ZFgWgKJNzglFb8gGu4lE/CpowQGk3UHIsss+gFAkSR6b/zMpKwCNAYESiLCukkt0X70yR38oeKz3pvxqCnKWbcx77Inll9QNBbIHfwmIXSGQRb9OaCYLEfkxw65VjZhjoX8E+35nyfZGqQHP0ofoRQpUqRImWjBae6EU4oUnUA6mHlzKEciiCZeCYxaTuacLT+bQMx+74GHmXRUbpSgv5BzNoUoEaTM7wqzVg5ICO0idIBM0n5BTiiYui0UJTIZEhqHqM5G0kZE4eAwQX+hsIEzfJ4ym1QKzFw9iOQa5IWCkgiiZFY6m0tL8GP4MAYDRZLSln8wOEwsgiab/kJWFWdEjiCVPkIpUqRIkTLRgpluoNlvvVl195F0kNWN8aVXSAA7ghR27PAsasjfUoqyRgoVUf2FvUcwVFohhwfOIJUCI6avR/qqVAwfJQMITAwFBTGHIlYXlRCY/KoerXY3T0Ts99wD9vjNir+Q89MnfK3cCaRSnMoIUVLvDntC0/ujAgTICEwEU2eBbPBPLPBDCQ6HCJTdPBgokqT4Aj92KL6/UMzAGYEiSPfPL32EUqRIkSJlogWzOAl7c6SARWSS2+aLRAdRsveYFSKIxKnRh0Qji/3u4U81WnKzlA5mJu3bRsqDFDJfJNxIYfq3ziCV4ggQ8ta/SbgGeV0muQCZZJLjxINAReDWuSibbseew04KHQdzHyacd9iXvuwbPUYa5inbhuwk2idSg5R3KgViwAgFiBTl3GswocR5lMh0pegUHIkFJodFaKyjbY7dHX9cHKx9BUmKOfWLhYNMExolfIYMdMI0E+1Z9SwUKoJU+gilSJEiRcpECx59w82QYojZX2JM6GBaaRJIkEUxoRRQJIJ4vhExScchj+ozI3QUTIIUJk2pGZ6Hs3UUJ5E+j/i/WWK5BsXzC6blFBy+uAHnrEWZbXjetHCu3XwOXpyVYkGSHcqAWDj8GBPxF/J0FnKuQTrIzmXQQWAmY0ubxnFJHEwiZVAYv+AksEAJfoKB4rBwmBY7TCaalD81ZIWF6dQg5cPIpY9QihQpUqRMtAzNCAWwb/GsKcqQPQjuF0QCPRcOY5EsUHR22C8vVFjUumRATUT0Fw75QPlEkCqpp1IMMQg89O0jDm/D4B8QSs9xLwottEV0+OwI1nbZsQA/9OI20KkzRF5oIUKUZKIn+IBiX+ZOxN9MisT2F7K9CEekSjWV4pC7st+zYr4TwpcFiOMaVIYsq52MukoJBROGwLEhf4iKCv9FQu8LndJFnuxDURjCDyH8B99TWWWJIWIC7JC5vzAR+pxm4MypNUiFIHscGaEUKVL6UTSqqqlnv7gR6tEj1EPKrOt4dqPhdDuO3bFbjW6nHYbBYQiEI7FhWvkifMO6bhVKuULJsnJY1Q6OCWOApOhIQvhJrN4FUqQIJIMCoQAWSeFcg4JFiibJBcUwh6bOBVGEeBGH2yNw8R36oeK57tkfDALf99wwCDzXgR8Cz+u0G9vrK7sbq63GVnNna3t1ubGzCb+nu/foVgHY4INWoVipz+RLZSOXr9TnqjNz5XK9WK2buQLWDRVjrGHdzAFMqppmmBgdkEhKHyMGGSGkwNQwTTMpQxvpREaQ8qJug4+nr0FgjgNhqNx7fEAQQ5hEwdQgUARb6B70Ue4VkEDZs1ZSyoY0Vd3ZXNt4vgSAo54yVoDPTnN3Z2u1225uLC/Bwa3d7ebupmt3ACDpl09hEr5HJyWHSCMCrokxBTn4CX4AwIMfAPum5y9OX7hcKFVL1frsxeu16TmAzNrMgmHlSBBEo933P1L8VvfRizDxMjI1GaZsJmWLhcpkJNofv2NOHZpY12dDm7ttLnQwQSAUjQ6mljifKgomBoHi+AIBxigSKUrHdpYf3VlffrKzsbKzsdba3QR6ByN17Ha7uRsTuNNw1HO6tt3yXQcQsd3YdR0bfkNPDgi35yxUI7g6fgYSEboDYgdfQeQqzBVLhXLVMHOmlQPOaOWLQBDpL4sVq1ACdJyev1SqTRXKterMfLVaRZERNQgBy+lJCFO/F7uTkWH+TBK59iC3SlgPgjC6COEyV2SI4RCmh5L+DpU+QilSBhOgXRgjgCbb8ZYfPdpYfvLs0e0ndz8HPrezsbq7GQGh4xCFUA+hqp7LKVEcGBMdDMRON8yRNFEYtne3W2SLRNgY+Qepq9Cw8vlCuVitT81fjICwWp2aq0zNlqpT5fpsbWa+XJspFPNqhIt+QMIgIES6FaVMhHBghNx70AvCBZUB7KJpW0S5BogiJaGLp8gFI1qmaVEkiuv4drvR3N5Yfnzv7ifv3P7gn1ae3Ovanb0RHtoE951mhA5AkRURI4f3xOTYpQ459BACOLz00levvPy1hasvz128VqlPm/kiDcOxDDguYISIqVFDdlBOGN0kW1JI2F2HIynkxwtJn38/Lwq4byDs76Xmmkp3YgjpAaFI1UQTQ8GUzKFp4l/kAtxDN0IADl2nu/zwzq333rr1/i+fP77XaTecTjsyhCoAlftpD0IWbCJRiExsRyUvfohCavKGlTPMXLFcnb107fpXvvXS139n8drLuUJJOZSoKAwcCmwmJawU+ACfYYWFhNcUpWwgJX0cmg4QStcgs/k5c/TpxcVkG//2B6BqWMMRqO3s7Dy998XSvc9XnjxYXXq4unR/4/mS3W5SK6lh0pDRzKYxUgNqFJUD3wHL88VKbXZheuFSfWYBmOJr3/79C9dftSwjCJX9mB0moMwXlVJ2GfKjhoTFryeUFEoglEAogbBviRx1NPvPD5Tt9edry082ny+tPn0IQPjk3ucby0uO3abhmRT/xq5Ub+RR9H0v8D1A9/nL11/51u9dfuX1i9dfuXTjK7WZWXgmnhceTmqUQCiBcEKAsO9g0QS9g6y0fIZRMD2LKG8UTA0CgQBqKAyI2+00d7fXnj66//n7tz98+8mdz1q7W6D+kYr2UxjQoBSQHFEIp7rw+p8W9MKzyBwNSTys+D/Dyl155fVv/cE/f/Xb35u7eK1QrsAGwPcpkRSAGpLB/jYGWKhkIIK090j4WUfPO/pcLEwBCDNOB8UIkEksUwINek6U7ONgtQxQnFQX+P7myrNHX3506/237nz8zu7mmtu1nW4HtH4UAqohVe0TAsnJ9w6xfDTk5E+I8dsBUBcEPuhF3crli+X5yzd+50/+B0DEqflL1L+oEGEch0nDIauECjEDZ8YvlWJ0IGQcKTrwW3rK9Ud/1VlFirKtMSoQCg4WGpNVFqhEtlBd1+DlX1l69Mk//ezOR79eWbq/ufJ0e/05qHvdtDSM+4x/IYeS0w8KgZIood7U1ai6i4I1+EHVtbhGjAI/WIaKVXT25Pih0nYCPyDxgX5Iul7oBxSO4Ac3CGnuMoq5alSblH5n5LgkhKb1OzY2zMXrr1y6+ZXXvv29r//en8wuXoQ/eq44jsNB4JDFkFOGwwGwMB0bKTntF4TpDPd99BmXl0AogXBygZBWZNGQHyjrzx49vvPplx+8/cmv//H547uB5+mmqWH9fM60T4riRHSsIUNTo+/IiNAOq6qBkaYiAD8jgjv4K4Ai1uISLBEQ6pRsngXVFAgJBcKQxBMVBBQIPZrXQLo+/ACgSDyfwHgcP3T9EI4EhIKfASpVFe1BI41qHYEghqHvuSQIFm+8+u3/6k9f/fbvX3vtm7WZGQqHMBQA49EeogRCCYSTAoSC5A7KAJmBRsMvUzAtIqjRrHg18ElzZ3P50Z2Pf/XTD3/145XH90HX0xCYA251CufbswgiBaANQA7T8i8IIC1nqHlDA5wrGFrB1PK6aula3gScQ2doFjTaaw7DBKTz/LDtBoCFTScAyOx6QdsN2136QwA4HQJOET/6Hl8RxZxxYP1Ibz4IfN0wL934yht//N+9/rt/NL1wMV+qUNpKkXnU4qX84DAdLJzswJms5BSeD4Sp5Q5m1DWoZD9AZgAUzJhHcC/MhfoDkaapT+/ffucf/vMn//QPq08edFoNGiqJMUDkqW/RfrFPFHFBQL6ypVXyeiWPKzkMPwMdVCJY0mg+oaJG37XYWHkoVoAcVw99lldEx2YPHfotnDOIDLIR2in7tdcUAMJdO2g5QdP2d2y/2Q38IFQOuzAHh8MgCpXRdaNYqV9+5Wvf+cM/+/Yf/lltegZ4IROv4chaeJBo0gT8hckGzmTAUzjgWFjnFPY4CCegV0c7l7hdy1kFyIiCgklFhyaMf8euput0zW+sLH/x3puf/Oof7n3+3vry49APsGnppnWaRohwhZ4qp6vlPK7mccnSCyYQPtXCQAGBC2omptgU7jkJ97mjQnkYI4Vy5Dy0/KiKgO61KAUEaKJjg4HBkOI2FbS1k4r8EFfy1FjqeMTxg45Hmra3a/sNio5+16WD09TBomCBTWsKBjjcWFlq7Gxsrz1/dv/2N773Jze+9kaxXAoCQEqPyUtK2HZt6FmreeTyzeefgGth7l7NAJnQXT4tF4fqm8i4jnivVXAmIxQhdzBTKRMSCEUFQtDzNPldVZqt9sPPP/zsNz//8K2/f/bgS2A2tHJ2LxcdQFrEnSjzyxtawdKKhlYCCpgDaMHlnA6QE+WjR83/SHKFOSPGqdhuuN3xttseQFrb9T1fsQx1rmxcrFtFUwsOoa+K9nAO7pIQBKhJgbAbtLqUILaBLHb9TuSApKVx1MH8iHEyfr5YvvG173z99/7klW9+98orr1u65oWK740Kh4R5jeq0eGHiFWcmNJVi2JzCc4AwtUYTYttFUyilxtsvmFQF0SRREL1gMLqmKY7tbm8+v/Xer9756ffvfPxOt9PCWI+LXh978wOAiwj/dKyamgrgN1XUZytGPa8bB/Gd6ExTC08UhO+2Gzzd7j7csNdbnu+TPcqBlKKlfeVC4cZ0XsfHvZLo0O6a7LMUxw+32t7KrrPR9IBZujTuhlJYFF2oz4e15zj0vVJ9+qu//c+++8//xysvf71Yrpj5HG1O5fsCwiGPjHsmNlLRnIWCpFIw3EeQQYBQhNxBESJFBXANikUEMxAXg45clMaFaLrW7XQefPb+Wz/6i1vvvdXY2XQ6bRR1kTh8+MGbEYbExOps2QCCNV00AF0AV4A2Ym2v7mjsCEulNYOmIuBzt5bbS9tdO6JxB3MLPwKfmyvpr10oXq5bcGTQyyp7kFkR3wtFvoAaTrdtb6Ppruy6AI3hfuuofgN5AAg9F86WL5Tq8xdvfu233vijf/Hab/2BYZrAVdPONSQj/zaTWCiUs5AkRgqVYXIKzwLCtOlgpiJFUwqQER8FU8G/AxSkfdpV5eGdW+/+7Ae3P/qnB1982NzZ1A0z4oLqkax0IIJRpkGtgOdKBlDASh4XTZw3AP9UEplJSap9ieLUi+22/8Xz1qONbtsJaCTOUTtm5MgkL88XfutqGbD8XPdkHD4a+wgdL+y4/m4n2Op4my1vveW27ECJgn36NA2RMKBthIOgVK1feeXrX//uH3/7D/90/vINJbIgpx1E0zfwcTWTChE4k8kIUg59Cl8cJ/sRShlPMUzqwdvZ3r7/+Qfv/PT7H7/1k+2N5yrGcUeFg3chNoTCd4CNWkGvF/XZkj5fMas5GvoSg5/rh6nfToxEjh8+23Eebti2G+JeJW7gN65Hmt2g4wYH/PVsdUC7UNBaabAJUCo5Hb7mKiaQwrUmtZcCKDZtmsgPYKmeg4e0O4duWrqi2O3m5+++ufrkwebqsz/4F//Ltde+ATPPsGa3FClsBSfA8ng3Zk+QY7DzU47Mp5L1CwrtETx2EU3DKkau460tP7n1/i9//v0/f/TlRyqtkp07DB1xLCiKar7kdG2qoF+smxeqJg2BiVMRQkUctR279HY6ARA11yfolLmNI0U9P9y1/byp6araP/bAgX7kHMWaMlPS4avZ9Ze2HIDenY5Hk/QDeipVPf+pAuFWNW17Y+WXf/sfPbf73/yr/+3iza/Ac/FZRJOyDSXt8VsWcaRktBtgFvnZ+zxISX9poyFiR/udEzTwcYIxwoEDF/lpZL44LxCMZBYFe+1TUFxExXP8T3/981/84N8/+vLjrbVlmiav0YDII4aRKOGvYGoAfhfrVi2PLVoLhp4gVASkLvSldbzA9cKz51YFUuiHrW4QBMTUlHBwTwwie4Gm5Rx+aU5brFmrDefhur3RdONURXJu6mGUqAlHOnb7Nz/5fuj7/+2//j8Wb7wG6Dh6qe4Rwvr7xkLemxqFfV7CgHcyGNQyGbIYs98vI0w1ZUIgOtjfmMYlQCZDfsEzhmoYGN7V5Uf33//5D9/7+Q+f3P3Mbjexbhhm/vDbFkTuqiJAYA0ooFUr0HR4Q0NxBZZQUOvdXlAM6kN1hJG/k4xwpaj/BA1GjWvl5A21bOGNlrve9Fd2Hdv1sEr7EJ99HoA92Hy0Gtvv/vxvgZH/y//1/7x45arNomfFCNSwNwD0zi/kRAr7vgHEIq1QGKxhw3sRI1K4//e9MUgfoZRxEA3rWFParfa9zz748Jc/+s1Pv7/27LGZL1r54uGXjebFh4qB0VTRuFAxLk9Z9aIR+QKJG2TAfQWYlDO1GK1VrfcxQVSP1NDUuGfUSNhLlMgcSiwdXayZsyVjsxLMVHLPd7trO4CGgRpVmDtT2yN4BK3drff+8QezF6/l/vt/XZ2e9VwGldikSOHKCMXiXIKkTCTqGkyWDmadC9I28lgNArK6/Pzz3/zi1z/5qzsfv+N0WrlC6YgtNPIIgtYuWOpcxbw5m58p6boWFYLZ9wWiAwfYfrIdIaIQxJg8lHK4VqC5jDZNcDg+23EFcLiDIi38hrGGWJnfonraBLYaCxVjcbq41vQ+X9pd2e60Hc8PyblhpYaZ63bab//oPwEK/v6f/k+qZoQBgwjcg4sSJrzp5G9R+hVnWJG5U84z2OlHcNCex8fTfsvwMPqPo11URKOoOINlHiDDEAVTMYdGPQRV3wuWH9/5x7/+8w/f+nFjc83pdmjjpKPFYgAjAAVnSsbVaWuxahUsDdNC2Ee0MYno1LHrCmJWisegq2i6oC9UzWc7FIJehK3sD5Gmf+T0y1O5qaIOnDBkB+NxqVW6MfCc2aJeennmyUb7y6c7a7s2OW+5aBoOfO/5k/sfvvX3s4tXbr7+2xjrowfOjKag+8ZChbONlNPbkpn4XMTROnrmPBw+DxYFhAaubJIqHUyjgozIfkF+KHjGiVVV03W12WgBEXznp3/12Tu/2N1aw8CXdAMdyhGE//MDkjPUSzXrynRurmzkdPUk5gFMdpxgaau71aFt/kysVnJ4qmiULY0SRz7BDYMK0MBqHt+YzcEQAQvdfSyE3wPu1fIYkP5C1ZwpG/BP5qownjSfhLqilE31lYVSvWh98XTn7vKOF4T4TCOpqmmB79/+4FfT8xcXrr5cnZ5BAWIYkjQsFiop+wv7iELhXIM0aVKo8InUHXFE0kcoJXtCM+V1DC/P6rOnn/z6Z2//3V9++cGvQt/f9wgqBzmCcYJEraBfrlnXZqx6ETgVOplmDq9316XQ8uVKe71JmwlZe0DoLtashYpp6TRMJV0sjJPf8waC8cBIyjnc7AZBVCAUa9R9WC/oAIQwbPWUmjKsJt/z4bp23rKuTeeKlp4zNMDCpu2eEUEDWxNNN3bWV25/+E9f+c73vvo7/7VpGp7ny8UsRQTBPHiYkjETJ/dRs2q3y2oEmfALotOuBkxQUz3Xf/7k7js/+f67P/ublaUHqqZiPX+EvlA7Hm0HD8Bwcy5/fcoyDaqkg14oCFiy2XYfrHV2Oz7806Tpd8pOx99ue/AdgPNy3bJ0NUgVCQOiOFFID1bRpbq1WDU7XtD1qIuuYNKuvweTFnB2bAIWwkx07C4g4lypUH1t3jLwrSebTdsLQ4JOSTSEXwIWrj979O4//mD+8o3L11/yGI/qXHI1AGFj6y8cnWfxvH7GbKkKhzxLPJgGRFwVngg11fq4XZTagxcNBZOFwFgD0+YIXdu+++lvfvmD/+fW+7/a3Vyj/j8NHwvYAC4I2DBfMW7O5heqJu0UqByPfEH7HQYBIVuOv9n2vEOhH2EUL7PacDUVVfPYxAZKiRTGFWJcP3i02XV9cqlGqa2pAxFERZMeoEVVZmIGnNgI4Vqu67bbSqFQ+N1X5sqW/uGD9a2WQ/brlPbYd+vG7vYmPLXXf/ePZhYuqxgTwnjEYvoL04EaPqkUHHIKD+UykCQm4XxGKLmgaHQQMb224CiIzlQjKu0rjzqt9kdv/f2bf/Pv7332XqfZoIkTWD/CBSNKpKvUhPjqQgGwEAAjOMHmopZDewlz8E+gfY5/JFddjWyRrkv79qVbZY2QvfJmwFDbbjhbMoKoQQSJBkn4U8DTeSHpOLSlYbVSev0qkG7944frTzebfuQy7Enn4VM7G6sfvPl3s4vXX/76t3yPNqhInF/1C1Vs/YUjVpzhHHeDskUK2Y5Y+gilZEOwriNV2Vpd/fjtn/zib/7DvU9/QxSkm9ZJIgh6uWThCxXj6nRuoQpUEPlHcwRjyme7QdsNQDFX8pqJ1NMQCD6e0zWTVvZM00dIaFsoda5sAloXTG2/CUbKqivGQsd1t3Ya9WrlK5dqhq6hu8rSOsVCrUc1NqKbZhgGt95768bXvnP1la9omhGfRK5wKWmqlwEYQXbsokzIChO7aPreQQ5ckMeQzzSHItoASVXWnz1992c/+Nlf/7tnD28bhnWylWCUSEdLxtyYzd2cyZdyNOfcP5EpHxche7rdfbxpV/L61y4W8wYCpAO063rh0bORcg4Ds6TYA0CYHi0kURLktZncC5oiBnbEj8Dz/a3d3Vql/PKFagzPT9dbsClRleNWUhWpPgka2+sPPnt/6ZvfvfLy61oUUKow5SN8/YXcpvLcQQ9sYu31AcSofz3TnML9f6VhHaXOkf1cqUkWjhn03OCB94fPegHYoiA6tZTC3l9QVP9z5cmjt/7LX/z0L//t8sPbqkprd510RAUhAcR6aS4PKFjJ4zim4wQKIj8MN1ruw3X7yZbTsP0Y3gA+6wU97uFH4n5GSLEM7cp0Dk5oYTUQILUe0Lpn0wkRxHW9RrNFAu+VxeobL81fmi7CZPYs9KaqFB/vf/b+p+/83HO6WEOcFiyviUKivZQMX7oJFVWAFcIYiTmufsT68DNRRcAAmaSIIIq/UXugQSuk3P3kvR//xf/1y7/9jytP7iNVM0zrBGGiTj5gbzdn8zcABXPU1NEznTzOF7yz0nm24+QNba4ceRBDUivoizVLU2mrI4fWbSGAi68tFF6eo2dDSAgGBuMMQnHtiLbj7uw2VMV/9WLtOzfn5mt5mM+TGwiVxv3qa8uPb3/09vOl+57nw7+FwcL+LEFopErKaLQR8+sgkLamTe3OpI9QirhimRjU/r3PP/75X//f7/3ih63dHWwYqoaPQUFcCE3X0KWaeXM2B7hFTkFBCoRI6UQpgwEhV6dzV6ZyQAPjjPuLddP2ClttL7avzldoVyagmEEoPVj9qEXK/+yuvb2Dpuu1Vy/VXT/49e3ltR1bRcdoLP1XGARLdz9//80f1Wcu1KenukEg51BKaraWfnGVr4MwRWaOhtoQ8t1QiRkpyp8OHvqFijRNC33/wZ3Pfvqf/s2Hb/24vbujGyY6Qc1I9GVo6nyVFtEuxyh4OmkKo+TC6SIlglfqVtGihrkw8msBgn7rSrlpA7ckAIR6VCollCjYv30pjiO1u9u7zala5auXpxq26/hrzbaraseXj25aW2vPP/jFf/nqd/6gWvvtg5AZ5pkGg/sLMxBByuR6p/xOSTJ8NKEqM+edE/PUaymQdkHcJ0iMC4sJgejcXyNqPVNV5d5nH//DX/27D9/6+8b2JsZ6T+cYABVwwYWK8eqFInxXzkRBEC8MS5b2O9fLoLVpD95Dx8PZjShlMNbp8Z9kPOPAvDAMW+2OjrVKufzbr8wDL3z/3qoXHA+cgQfsBf76syefvPOPtZm52YvXCXwyDDgpw8HBRYBE++FwNNHHPegmg/2dMVkq6vm2bh7BNEgEOog40cGUa4pmDwXRgVMw/n9M60Wjpfu33/7x//fBmz9qbq/TBhNaj00bifLhK3n95lx+vmJE0RnnDAAOMDTahqlW0OE6h9/hMHI0xj8L7o0bdd2juPUuLywMAr/Z7nRsu5o333hpDqghKCrPD45dEOumY7ff//kP733+oaYpx+qkM9c9vPyFPLbLfcSkDTw5A2hdAVqCo8SuFAGh3MNKEUrUKCxy8/mzt//uL9/7+Q9bu9uabmgUBclJFASsqub0GzO5haqJEfL76CkYGUJp+gR89eSOcW22MZxYhIA60z6FNDJWAYqmRHsCE6vwe411MKrrurvNVtvuLtRL374xe2WmSAvjBUcSUDRaWSZcfnTni3fffPboQfQbTb4CUpKX8QmWQWjiB4qYHcRjsOfsPff/H1ja1ubmb372N+/85D+vLz82zFxPDR3DlWWoV6et67M5XUMypOWMhxiXGu+6oesR2wttQKSQAATmqSsUxRiJIziMS56NXIWLGkgdxwFSaBj6Qr342y/Ndb1weat9/EhggSG59cFb85eu/cm/+t8LpUJAi/jwsj6y8hcOesjww83Cpiwjw+QPhGjkz4nQ2m/0dEKU1kxysDMn5xdEL7QnQmrXcb784Ff/+P0/B6JAq8mcMo6AEF1Vr0zRsE/q6iOKhMHTJ5/C21bLfbLV3Wz5HYf2rFAi25uGkKmr1bw+VzLqRb1gqpjRg99zFrbauo6rpdK1hdrqbtd2/WbHPVwIQVU1gsjKo3ufvfvm69/9oysvva5qWkgjSNm2BWSsuFkFzox+X6N382PSnomJfiAjzMqIw8XDKbBUYHO86aBQrkHORBD1/JFml2nKZ+++/dP/998sP/wSlKWuGz3ddCEhWEXTJf3qVK6Wx+NqzGSz1VWR64dL291HG/Zaw7PdwIvqlNIEhmjSgAXudPyNplugJQXwfMWaLgJ4UW/rKBGzNApUUTzP63S6lmkWc8bXr01vNu1PHm3go8UQ4ryLZ/e/fP8XP6rNXJianu4GvZUbSg0L+VacSTqCNCukMMEqMzKPUIoY+pr2lFce3f3yrb/9i1vv/4o23TX004JVglAp5bXrM7mZEs1x8PvT11F4yJ7+jbBz/NGTomBAHm91bz1rrjYc2oAUa+aJloFdLwCaCLO4aqlbbX++YgIWwg5Dx2qco9mnhjno2nHk5N1us4XrNX2uXnjtUn2z0V3Z6cDFDvfxNXP55vbGh7/88c3X3yiXv4dUrBAZsCslOUkrWCbdum79lYlI3C7Kk2EjYYZ2KED0kFFUVZXdrc1f/uA/fPrOz2i/Qe3UoAnQsyZW58rGYs20dDVGQRQxG9D72ok6z9QAGP0eDvQCWjUmDpOBi2o003ts3+1o70tWdp1by62tdoB1wzB01HuLQKdC15Djk8cb9gePG58+bS5tddtuEDW+6Gv1xHXpwqhMOdZQXA0OuB+QQrtjd7sUaV9arH3rxkzOwEF4JGpGVVU/8FeXHnz45t89fXQfRw+y56uJFIFfMySwAhjASiOolua7ZUx6vMJ7s/iaD5g/874SB9MJkDn1UaOTdFBrNXY/eftnn//mzd2NVcPKn+YajJncbNm4MZPPG9phz+BeCOhRZyFS9prVeyHZtYNW1++6AWjqcg6XctjQ9kqejB/1oLntCllveg/W2rtdUpmaqVSqnXZzc301CAL1ZKLCfhQJTIXjh8s7btMJL9vB9WmrnMdnG6niP8IOo+NRm2bZohMbHsBjZCBttduwuSnlrUsz5Qv17cdrgX+UFGKsO53Wez//4cLVly9ce0WNNin7bPTI5Zk1ZWUROMOqZ+E51lFFEd9AOvowR0yuH+VFxkJynER3GcnlDnKeZnG2FGftOFFPra2sPn3867//q+eP7qonWuweRkGQnEGLn82UDZWGY5D4405AljbtjZZXyeGLNVovhtBqavRE2x0PWNFWx+90Q8cPaGY3Uixdswy1msMXquZ0iXbc7Sf1IlsL3Q+Vp1tdmJby1MJv/f4fVuv1259+tLWxFoY9gPAFe459e0G41fYcL7Bd/8ZsfqZEGxsDiyO9P0Wf1/KO83CjA/+CB6RFXAIQcbFmlSwN+F+nY1umZRnGTDX3jeszW83u6q4N1PDFGtC0gIRbq8t3Pnnn1W999+LN1zQN6H6wr96Oa0Rm/jkegTOJn4dnV4qx2yj2unfpI5SS6ppUVaypayvLH73143ufved0O2Yuf9rBYdSKaKFiwpeuojjKHn4DDOb5jvPl8/bTbQf+VC/qAIRwAGDeasN9stl9tt3dtX3Q40jdewtC4sEPcFjD9i974VzJgDOOTQKGGpW63my5z7ftULOuXL/56le/YeXzz5ceR/uJ8xvAxlyt1Q0erAMUEn+OxNXJe0bnxpy60fVh/v1gj5bD72oFHf50dTpnYgQ01O52dUMv5K0bC7V7yzsN24vrIaAXw9Z0Q733ybsfvPmjmcXLpVLJH0+6LkW8VyYNFpJi1kR6VgMelToRm4M408HjhWOO4qBKSPjFe7/89U/+2m43sGGcdtpIZyoFE1+u07DGcD+YAhhMuxvcXekAHYzy4VSsqnEz3mc73Y+WmrdX2s0ubcAb58mp0VfsTey44f11+8PHTTgScJJTiHTsgYu/kumhBHNCGy5udTeb3amZmWsvvaobht3pxG3/BjiPRgORHm92v3jeXm14IVHUU3I6FfpoNKDjeuQdNKKevLYXbra8thNEnyK2bTuOE4ahZeCvXJ66OFWMfLXkyGrQtJXHdz/79c+WH9wBVqpp6AyFgdi9nYx1XrKlicfXZIe4KEUeQJjEGHniCxp5nKPcFmKUODh6d7Hk/YIRA1BJGK4/f3r/0/eeP7oXBoGmnWqiAJ1p6epizZgq0cZM5IX2VEBDb3c8xydTRf1S3SyZGkDO8o77+bP2esP1g4h4REvlIEbn4J+gbeGzoOs3mp6Ceiv6kW0wJCR7X8mkO6pRkZ2Nptu0vXK5snDximFajd3tZnMXhgBwPMj6pLkNQLgfrHeAPYdA9U4pb1A0tbJFQ39JdEzM5faLtdLGkJ7nARA6rgeP79p8dXG6CJB5cj4AC1efPnz/zR9trT7HmnpiiSMeSmVATdKHhwWx00j8PovYK2mUkYy7/oCQY7jQpIQhJbaVE7jVJzp7LVHC4Xt3P3nv0e1Pw9BH6lkKGuCM0sGpXNHCh22YoGp1rM5XzEt16+W5/HUak4i2297SdncNUDAktLk9OvXJ4Kjc6LNt5/muSwjLZwW0DG7QDQkMAwjrreX2/bXO6q7rBUeCRHgsN7hEyw2A7/pBaJhmqVo1rdz682fLTx4BHJ89zyfPdkCv7652Ok5wcvBxHme9YMyUDBQ9qQMST47mSHuu53Qd+EPe0i/PlBanisAcj2UrGlZ+d2v941/9ZHXpwSlrXZxQ0mTfxNRIIRJLr3C4J+kjlJKaaEjxPQDCd549+BLrxhlR+qApTUw7yNPktsj59wIgAyWvqy/P50FZV3K4ktfdyGUIXDAMz2d48Z9tN9zt+LYbANYiBpXsKfR23GCr7W+0va2WCyeHMcO5AcWBti5UjHrRUPmkSqMoL3C74/thGMFM2Gk1d7Y2Hz+4s7G+CtccCAj3nhQ1IwePNu1KHl/FKg0KJUeeDkjeVC9UzY2W+2zHgfmEX+cMaiwFHr8X+omQ67rdrpvL5WCOLk6Xbl6orOx0gLMbqnbYTuDYzvry46V7n1999eu5QokC6tF0CylS2Aoe5X1Ld5shgs0cjTBKxHfiEnUNDmQR3ftLRAV2NlefPbgD34vl2qkoGFnYZsr6Ys3UteP9JSgj1NBsyTj4J3y1HOBDAep7NxnFWJKuH+YMMiI+xUY22wufbFEKtdn2SBiFJioAjQpA45NNuzmX/7aFASd45IwD3jh+2OgAG6RlClqN3S8+fn9rc23p0X2AE+ogHeqmVAUBvD1Yt2GvcLFmohMxN0DTawX9a4tFXVNXG66mKrNl41LU8fHgUD8IXNfxPA+GUS1Zi9Olcn7To87HIw8K63oYBHc/eff6V7/zyjffCALSK1oUMQ8iHSSClGMN0lFSKUQILhoxEDeFsnPJMcL0QSu9Brw8p1EE1+AQKEhJhqY1d3fufvybnY0VTT2r5wCJONZ0yViomFhVe9b9ipkf2dPOyIhKSCvefoxNH/eAo84MUWGwkYocwjkAMO6vde6tdbbblLvSeJloEGGE0/CrdjfsOIFFS40pzCNV4ZyuT9oOMELFMPT11eXGm1tAxTzXUdXhg3XgkwB16013o+nOlWk2xbEbp6n3qjJVNL55WQNSDtcBRMwbx9knza+3uxrGpo6nSrmXFipdJ2h13RfuQLo2dN9373/+/vKD269+8w2aJ9NbU7LPLxyx9Brb5r0JqRQhG/YmjPBqgmCAxixKFJ37SvGsLCqCW3sIv+CLLRhSGjtbX77/1u7Wum5apx0WlYChgfgAhBa1JvZ+HfZCUSJnFRxftDBNtyfn1+KOw1dyulqmFE0ddDNLC7JEbYwOJjOMIncebtCkRgC5vWI3aK8FoIaiwNG9HrWI05oEBkVrwhASmRntrY31TqsZAh0c7ZHDTQCKrzXd9aZDq3ajHs5CgLNqHs9XzbmyCT9E7SwOqRtVDcLQtu0gCAFWK3njpQvVgoU9/1ihGQ1Gu722vHTv843V5ZDaeNVTXiH2/kIuIXhs3+4zx4fGMBqfu5tQ9iOUkpo0tjce3/ms3dg+I1g0COlypdUvC7T0aHgusEVrmnoTCzooz7NRjUSdeEF3X6ybi1UDH9Xa56pLgN6djvdgvfN02wESFqffNZ3g+Y6z2/EjVEDHxqZQZycqmlqeZhhw2+PuVyGnLE3TDNM8o4/HQAgBQL7Z8lZ2XSXif712JDRUx/FCxw/hh5N8Fx4ikELf9/wgAFI4Uy3USpax70d8AbmUgAbPlx48vX878H1Vk5pKSsKMkDlApxyki8bVLiroPaDzHx6I7bhrTx/tbKz4nntG+AY8aBOrUwW9bGn9dJkgEYMs5/FCxawWAF+pQY/0gsC4AT2wQOAuN2fzM2WDEKV/px1AAij6x5v2r+/vfrzUBESMCWKrG9BoVZr7fwIkKIyTmZJxoWIaGCk8y2ZxCcOJqFLHCRq2H0QtLIYdG3Ecx/d9GKNl4qtz5ely7mhKYVx+VttZX1l9+pDWhEPCvrAoEy/lUIad4e8k9cS2QS8u91kcDBfKOTEy3OKMklumo2xvorRpbeXJg/ufv+85Xe2M+tpR89jZkl7Nw1GoT91OWQhR5sr6jZl8wdyjGuTEFwy2YGk3Z3PfuFScLRuD+iAoZQmAEfptJ2jawWbbA3IJ+hq+e/6eq/IkT9M19VLdvECDTUZqcsR0pziYBIR0vbAdNTUc7iphBIQeDZKBCdGuzZXmqnlytN0EiiofbK8/X1t6EAa+OshiRElPIGKXRtj3SfoLh5bSp+Ck5g+J84ajLK4ahg0C0wuQ2QNChLCqPH989+7Hv/Y8F+vG6TpXKWAEFCpvagNRnCDKvr82bWEVPdnqrjdd2w0PmKGhoWoeV/P6fNlcqBqVHI4McYPCEnBPGgUD2OYGNPvCDyhJwlEbB7gY9aJpUVo5iV2YNMHg+nT+Ut0ydZVTadM4dQ9usGBq221EA2ZYQyJsogDsO25Qzmmaqg4cW4Rol2AavANACFsHFc1U8vVSTj1qyI4Nububq5urz8i5C1GIwJk+XphMRc0wiN5kmSDEJ1pm/yZlHqGUZF836ocjzWbz6b1bQAqDwMfaWYswp6tTRQN44aDAAcBTMPFLc1rJws93ux0nPAjCNzW1VsBw2moBG5pKUWpwckaiQJhyDoMCBzIYl5mG05Qs7dKUFYAS73jAnAKa0a/mDK1oaQsV4+ZsHj7CtagpnFrHKgAh5dA+hycYsV7bCwBk8bAWJUDoyEsY6CrWMZ4qW1Mlc6vlxNB4cCXPdZrbm83tjWKhECOofIOkJMII2ZKTEaP7hWJSLM7IzWCCUp1Q1P8QsKZ5NIn+vXufve+6XaScaqWlCl2jSANwBazLCwZOqQ4j2918xZgrG0Q5GY0RBbyEQypXwDIY3nTJmCnqAe0MBWBNqVLRwjdm8/B9ZddZb3qOH+QNWgpggXbM0OEghX+ZNawhGozDITdjDwgDQhl2bBolw57E94EWUrhGaKGevzpbanRcJwjVQytJ03DXbq89fVifXdBN69RaqZw7VAxHWdiw0hHOwI1DkXQmdMDrDzT/khEqXFSFqFDO2oONBh2kRqMtnC8/ePvxnU9oIsEpdS/jzAcgc7WCoQ+b4h41IozqvKhHYv3JQYf6ETAppEU7AQj1N65VlKg5FCBPQN2ECNBuoWpMFbAbUK4Z97w1dVXXoobvnFcfXDFHoZfWvyaEcNokjVZzAEWk0IctkWmZMGNTpdyFevGzx1sRgT5iQAh8r9Nq+H5gWH1qTZaJ9oxbAbIFkYz0KRxbRpiiLueS34MSupPUY2R4Pdb+Q7loI/Jgc+Xp49ufbK89N63cGXQQ2AzQQeBbCABmhLc99s9xEuBd+RLV3KDBY4NnzDB1VbVy6n6aPwVdILTJtHmiTFqNekFY+q4dMEfCOC3EMmh2/ihK2ANG6Hnxz3lTLxdMHaDb8Q8XQYBruE53d3PNdexCqdA3BUgrib13Z1nC4jVLok9hv8n1g2lspm5ChdOTlYxQSoLbLk1tNRoPvvhwY2UpDIIXW1rUA07hjxEj1GlLWFF3vQB7rk96o2+gpBUdEYaKgdW5irHd8XY6PtZYQmHsHM1TBjzS7QVBAIyQpkZEhL1gGXPVXNcB7hceZNMAd/Q91243gRfKMEgp/EQ9Arf811rWHYTn73+42UVR2kMb/cZAITc212598NbO5tpB60EaJ3/UQBozgpyuFi3NooZRJJuzDgrPgFXzFSNujcvaeEaLu+Z1FQ9eju4EYIeeS52NwJXLef3GXPlYa5EId0PAwlEsyqnXYOLbKSOFmsvJ1a5J6EpowDxCNHKkjHCCsv44UTJv8tCl1A6NgR4KXPD2R79ubG9g3YiS3xH8oGH9iO6joYNKNU+T6COzooTBQYGQWi8reX2ubJRyOP4NGwyMInEKpgZfqoZG9BQCHXRpEgWNWMoZeKFWsEwAwheYp2qaY3c2V57Cd3WwF4Jx6bW+3yBe7/p4IU9yc9HnsVlKqE83xXWUJHo+dDCtNYsGChM90HoqUhs7288e3mlsbZIgOGCBFAhpBgU5MCRG9UJRvaCDEg+JjAYYCrEIreZ6uW7Bl4IIm+T96BEVDFzOYcyi5hnwPM/zIxxUDF2rFC1T1w4PFKmq07W311e8rj3UiyNKAz90bFBsx8U5uV6E8h28RVaWkZLIOqMFs9Da8tLSvS9i8IsLYoZB4PvACYJjhAakksMlS/qwhyaFNEQI5vDqVI527dDQ6KE6YVSXrprH0yUjyjwZeZAhAKFLIicxbH1ME5fzpmVoh3QtCnwAwRYsE/lMpfAHQv4dJ9CkVv1J/a5TD7XdZ4TK2tNHT+5+FviuGiXRq8AEDcP3aIegowuEYFUpmtRBSIj0Dw7P3wJCpoq0R+BMUVf2I1pHOCGJUyeni7HrkYy2LGn9HZ/2Dw5RNDZNVeer+VrBCvfN4fQY33ftDg2tGtmAk7qXPeuaRIwb5zINKq/HkAlDMxL1btCR3IQUM+hHVyYobhaIFM8Plh/fXbp/CyigpmnAAs1cYXrhkpnLH97v09ZFWK1YuoFVaRQdncPpUY2667N5SuMUNPSMRhl+6ELVXKjQQj8Ko4hYWv0csDAANFQACOequVrRjGylURqEqsLa6HZawAuHXfRo2JeePWyh9HSK1N7MgDBdToMQuyUoIO0SYt76m9jBl6BKu+kG68+erD596HTaVIVSNhDqplWtz5pW/jC3iEtlVvIUCMNQGXsBohyXJ42+aGtDTUUqu6cGcwjnvFS3Xl8sLtYoxnjBMPXk4CtvaNdncgCrhJHjNq6aRpsy0Sb0tPLAVClXyunkUJo4rBPa1N51h9yFsYY/Qd1dnOkqEqMHOD+RPhgp/HW9hjzbe3zn043lJ7phxuGjoR+QMNAwRkf78oXU/qZV8ljH6hibRePefqBJHI90XM/x98yWwJ4tXQXIiZP/wnBUxKGdjRXAMPXylAV7CzjrSsO1PbrFoMXN+lBPcdHwkoWvTefmq6ahq8f66I4otORoEOgY9gNKMW9YOo6r9hxMFWBhp70bRImnst6olMwBYfrBWyIweA6fQamNfKjAZRXUcRAs3fscGCGK7aSKYpimqmntZsNznCP1z2hrHlTNaSYeW6UXE76uFwIgbbW9tQZt5BvxNIJVtV7Qp2nnKb1gUIIYjlxFKy41B3N8oWYWTfX2887TnW7bCQF8o3qhdPZ7IiKFQAVwFBUs7cZM7rWFAiC07zPm6bA2SIT3sDQMrBk67AFeWKpoU3vfW3v6cHtzo1KfocsqyilMsVrKgG8AGWhso51xnBUp4fkAsYxgGfVYzhaJVGw4rOMMFN/3lu7dWlt+nMsXCU0cC+cuXitUqmtPH3Wau+qhloSg5QxNreRoX4ghCm1nZfW1nODxZvfpdrfRpT4yLzwID1EAGh9uoFoBA/Ys1nKwIfBH3hDsl11VgGp/dbEwVzWWtuDqju2Gcf2Ck5XYyF5lA5Q3tZdmc6/MF/Kmyjqpk+51gBGG+2V44HKlvF4pmC0YWcQLNYx9z33w+Uc3v/ZGbXqO+hSHXBXMapCOUqOALwafObLRy61JRpihPHokyHBQoh9L5FaG8k7T+qJ+sLn6bGdzzXcdBYCQol1Ym1ko1aee3rvlOV3dtA60L9ZUC5gQfmEbQ2ivWUSY9dz6KFgF7mC16T5ct5d33J0OYD31jb3gxIS0qaWQtLq+6xMnIJfrVsHQgpDBrcetdEs5bBlaydJmS2Zcg23X9jtu4AZhRBxRzMvhh6KpzZSNxap5EaikFY2BLQxGoaee5/n70VIAcdWCOVO2Og78Moz682ph4K89e7SzsQpE8aDCDBpIpyvp1iBlTPEEKqWaLkdl14lC+gil8BVNUzut5vKD247d1vd68NIkt3ypVJ2a0w2zc5SFAAoWTC3WxdF32vTHD0NgM7qmalFHhYzCoRrdIBC+OyudR5s24JxGGc+x/QWKw2cAdVZ2XcBJQ0NXpnKsNkgwdV7UQHiqYMAXEFMYD3y1ncD2As8nEfoomkqrlVZzeL5izpYNrCFOnYSVKBxmL98/euCVvDFVMpc2mrQ+TrSRgj83dzY7rYZ8m6SkzAjT3DNNqoNxlDAtpnbRkSzJoNYpED66a7cacfpgvDEDCDStHK0vsw9rsS3OjOpYxjae+C6cIFxtuI4Xgl6OmvRmd0Ggrhc82ugubTt+oKhnxqpoUXdDoGvL2241p1fzmGHV0DjFUIkKul6omoB28DsA3Y5LYJ7hQhZWc6aqR/0z4It33wwSt8WKBpYzcSlnqAgdpBICQW7ubNmdFt1JoGGJEdMO7IN0QOLSpzCTqx+JWyWKHxAKHCnDMAFl/FEajf55u91YfnQHdvSahmObm2FYoN3sdguo4SGrIP2fjlXToF3KyX6jA11DG9SW2K3mtZuz+Ut1yzK0MMyYJoFbAiq23nJXG47tBvDPc1OXAAzgLjfbHnxV8sDKRmpHdZIaxusXroIjvDE01dIJTVmhEa1K/AxCooT8tVcYhL7vY50OxNQ16hfdT9hH0U+uY/tul916Hl8YOg9thjIpC6SJCJ/BjXmJtSw5CBkl0Y+SUIRY08FYHLuz+uyR3W4iTVMA+VStVJvSdbPbadE86iM4qFi6WqR6cK+zQdSnXp0u6lMFHV7wZjeILXuZE5WWFAhXd124hT5fvKjvhrLdoUBI+Gy6aFxoSPwoudCP9haaSlGQKLFFmoSJ7OFptMw+67QMPW/ph5VcvCybO5vbm+shLciunrNiedhYRtoGs0+uz1jog/AifYRS+AqoM7vVaG5v+J5jYh0UnmGYs4tXc4Xi5uozIAKHezBRyximPsKDyiVBlAZ3qZ6r5vSmEwBB1EbrB5vingxApeuFcRf7/j/o+qEbZSwkoIPSKmgXuQn34ld1rBqw9zlcU4DakNXG1sbm6vN8qaZhrExCqQUpQgFhurV50Li1fRpbOo16PDv6O9fzd7fWXceOe0qAvtM0PHf5um7ldjZWgsBHLzb4JO7yExHCfQNP7FDUUL2o1wp6vCTCbEbLAP7lotRAGp/Zx/TGPrOShcsW9YuOZVJlnCJPaEbjfiJH1EPKpHHD3l5SRxQ3bLeazd0tOA71Su7JSNzlGOuK/vylA/hW2T/JM45VJ+55iekgZJREzzhGRhnVcgQg19rZ3lpbDvb7LoVhAEBYn72Qyxftdgv+eSRihFBDKO2VgI5UxYwLluKo/FhG9zth5O+s5nVTV0nY18tLs90VZa5sLFQMpGQV/vtZJmHcnDc2hhOiY62UM2ix2ZDsE0K0u72+8fxpGAQj1Z9jXYybWZ9CxHJCzx7WuNUdZbJJ5Yo26XacyKgZXYyFx+JloQoMNbY2AAhB0cVZ8zRYRtNKlTqwAGCK4T5AxoERABLwpao9uBHAQBC5rAj/O6egq6LYDMsKeGHkBkazZQOwUO1Dl/vRrVbz+HLdqhcNhV1zXSF3CWFAAmU/1MPAWjkPaKgexMuAbK09W3lyPwg8xOatQRl7x0ba1afFJnhPGrOBSB+hFL5Ltt3cASyMAC/K1AZEVNXq9JzdabYb2whp+n5ZGfgzoKBOK6ulYwaMq10D3nS9wKFmOWqSpUOKmvmNiEOxxa9saZdq5m7H22jSdgqahnrUc6GQTy89UzKuTlsLVZMWWgvH2ZRHDiWHhgp1E5bzBny3XUXb21IpnWajubMRSu+gFA4yNkAoHYQM7aKDNaBHp/6e6q9up9Xe3T5IkwB9p6pasTqV21pHe5r/xfgx/UohFiYuXgMkzPXDdpRj3ujQWic5Q6sX9XpBNw67LYeVIIpFuVA1aRkXn8D3uH1u5AY7ks9gGmiuYt6YzS2UTUDiIJwgh1ZUbFYtWrquHe7DhQLf92kX33PW4SCpfUdKzihJ5BSO9743w1OAGU+FGGqd+62wHRw6+7oou68GBcJ2q93Yob5AlVq6NKxh3XS6Hcfu0CIq+zNJouLOJqb0awSlNPwTABRc3XUebNjbbc+lBVboAOJeEAs186W5XMXCymhYGH8WTnh9Ng8Qu7TZfU5zCve2CPE+wdDUWkG/VDcXqhbQxwlpygg8z/eDiBSieNphGagvauzRn7p2u9PaJdlmhGcm17Nd+AzrjnLYdzKOlxn5ZvAE8Sw0BldIhAv2fSf9HOV5juN0YhUHWszMFapTs06n3drZjH0/ByCBVMXUNZ02fU1O+cdeQKCAT7e68LXWpB2RVGUvpwPGsWsrbTfwg/C1hQJQQ3/knHb4fMHQrkxZJQvPV41WlBlJoorYsA/Im1rR0uBCcExIGLRhygoQHpTShi0R1mAeaArF4WyOwPd8z+vhQB6OmKDD+ENGJzVplU1JgoiNUYztabcifYRS+IrdbrYa27FrENSdYRQKlSr803XsHrAUxYUmNrb4WutN9/az3SdbbjfQQJ/F7dcP4xaQtgfrdsxWiyYORit2SqLi13DpubIxWzIcP3B8ekJgwlYUK0SUvST3CVsp5GDCsYYACLF2xEhOq2+Hgd1ulKoV2ZdQClthHjUqBIdE48NlM3wfcePBdmu3sbVOXkSHkjBqR94zHJNzn+0eM7vVcm8tt5fbqlGaqtSqB5GKx4bk+gSw8OFG1wtCJhkccbdbYDwGVksm7QVRMDUtisoJwslW8tRpitS4EusRIFRdu7O5tuz7IVJV+UbL22A4EHUsZirZh8I2fRClCd6j5A72OVoSmb1OTCE6SQdovjlWTdqYPolnCKp2u+PdWWmtd9DNr73xnd/9Xn1qhua0nRitGj2bhu0/2ew+23E8n6gqGywkB03/0J7VJiSplXcRhxhG7S/QiVgqGi/j2G1ahIFJnhzi0Hhz9NcQCampRCIgPK6hijkD7J8g4n4rWXQQ8r0DtKe/DvbvgImmlZ9euJQvlo8r++ifgIJYO6YAeQnwrpUd++luUJ658OrXvlGtTXVajcDvrWTV6G7Wmy7wwo4XMNw/kn1EnHD8O/zQYZ9BswhVdGxG6CSFkUMVpaQdhMKdkUc/WNmucdHwPUX6CKUkqOjC0MjlqzPzQBK7drvn65GAMokv0XHDzZZnB2jGMFafPVlbeba5vgpQfZrZDfSy44frTW+j5eZ1Ctih9FIxXBvUZB5oWhSohBAtN3qsupCmOXZn4/lTp9u2LCtUVQ2rgI0BLT0gkwuliMAIpWTGBnDm2RFju2hPqAt8b3tjpbmzhZJ0CR4ZA43CaDuBGygkCNefL//mrZ99+elHAM+qelYtmbhH4GbT67gBQjJ1lS0QkiDwY+8oPAMtehCHgVDTcLu5u3T/FnyndQ+CwOl0PdeNDMvq8AQG8SY//OmVlJEFp6aGM4oefAaKxmza0Bl/oYUlu502jRpFyTDAHlo30rYU2AD8Ws2d0Pdp1D7W+/lwGMqIxfRo415FUqWxs/no1ke5QnHx2iul2rQSqqPxwpSb7x0J689IukJGsyp6PmnM4RIZBtG+GI1I6MuSlnDmggdsLLY99gQTksirFfXBoMl8eV2jsTwEILCvFwGOhKHnLaxj2b4gBcqIDbNUreuGCf9ce/bwp3/5b51u5w/+7H9+44//Zb5Qgb3NMSwcPKeQzfuYQmmk02B8TMveMG/SK32EUhKVIAg8xwkLYc8O7RpCGv89RVy/JG9o1TwuWFqrG8TQeC4KwiFFU5sq6pauSQdh8kiIoiQK2EnZnfaDLz669cHbW6vLGBv1+cWvfPt7umH4vnQWShlGsu4jZGxtR2N6X2eeHXG1ix6upwxc0HOdxta659jHYlLIftFtQ6MRECSROZ4uGZdqloHPKeYJw4/rydQL+uUpq57Hx3K9pSTxuOjisaO628HSg9u33v0l8L98ofT49qefvv0z17E1leXaHd86VLwHkUlroIhAyDgKQUzPNMrkwkGjfUSNgLC1veE6znEgpCn2NH1CTySPMM5nrxX0qzM54IUwljOALa6DCij4ykLx5lwe6GAg+WDyqkpVYdk0d7cD31t+dPfeZ++GQWDk8ltry88e3fE9L+taGR3DYTQW7/+Zel6cgDMs2uxM4m4k2e0CXycnOgI2ACC5YqlUrdutVuy/iaLk/XA/PvC4skvw3Yirm86UjFcXCvDzWtNViHK48W9MBMOQFExtsWZdqpvzFRN+pq3Uydguqih8iRBB/UrIc7obK0+fP77X2N4EaFSxZuYKhWJFHbHWTC83ExqhH8WEGAxSDjE6OZphhyJ9hFL4Sr5YLlWmup1O3Fsg6jPgabqOdb0X90pU/IBgFV2dskLaFR3tdPy2E8RsD0Vd8UomBuSbLRnXpq16UQecho+MIdmi6Qo0jgnuzgtoNwz4Z9wGJAgVcep+w5oJfP/hFx8CEKr7IVe1mfm5S9c0LFWZlHQZ4WRTsIxzUO7D142clSvQ0mVRrrrbtZs72/CbYqmmsEtDQHvPB+3vCvvlNHH966tTubKFlza7y7tO16NICChQtPT5qjFfNqs5bNAwUWX8msLG+StAfF2PAAo2u4HtBSjqFZUzNFroR0WR0zZZioN6281UDfuee++z91cACDUtrt5XnZ6bvXRNxTphtpRIdl9mMuEUlS0Qosw890xhQuYGMtCwTvyZRH6/QqUKqmr5yb2AEkHsdO1WY9u08vlSOfYLMh7c4O87qAgDqzMlA8jf1ZncHiNEClZVwAP4AqQkhIyfWzD2Q3kB2Wp7z3ectabbccM4gBb2AUCI67QzogUzA+wwSFKT7tecOzZeTdU8t7txZ2l7Y0VVNT+kSLh449WXv/G7um6eRtbFMt+JB7oc5icDm4ljQ8Ss9ZBgWnxMw2RYOgj5TVGEhOXadH1uUdOwG+75CH3PCTyvJxscwn+Oo/rXHTfY3jdswi8A0mp5HThNPx2T4r5I8KlyDtfy6KDYM4naAQIyjGVoTIzuW23/2XZ3Zdfdsb2GHcT8mERhuzARWy34pX95ygI4LJqaz6KSQLTDoEXUDhQwnBaWRmSP1c7qr4TgcQSO3Wk3d1zHxroBB+cKxQtXbs5fukrtun7AXIEPDRJDczDRM+tFGtLRsYw0MmkalcJzZ09IoVQFLESqFruaaCFJBXXaDVprFB2PjQN20r8TjnaQQKjrBZstbx2+ml6r6/sRpJUsPFc25itmvQC8rq9UB9oFF64+GWnyiIIK2bH9u2udh+t22/E1lXZb1PeyOPceiuOHT7e7sL2Aybk2nTMwGtHGBs8LaNxOx4eNS7y9AFCs5HQTR0CI8RlACCsnCLxuB5YN0bAe1cPDc5euTy9c3nvE0vonZTyAUJZvFJMvo6GOiJoEkFyhVK7PqKpKwkDZq/MZdpq7oNH2QhT3Hj2KWuAGjhfGJI+ct1TgC1Dw8Ub3zmp7J2IzaD8fsdkNVhvuru1/52q5iFUvkCryOCBRFFzpPNywAZOiwp69DgOACRXArburHSBr12dyeDQbqRp1s/piuf1sx3Gj5Hfg7q/OFy/XDepGVs9iUnEbJrvTijuEBH5gGNalG6/NLl6JelcRdkxGYGPqOO7JRNjASEYoIZofHQwVgkrl8tziVU3T4j5/tE99EOxsrLYa20hFx/QU0EGgdLQT03nvBuhoOPj+mn1npbPT9YOARKkXKD4PsE/bDQEIQ0oQZTm042oe5mej6T3aBC4IKKic1l2REnaVcuX1hgske75qlqn1chjNFUcydf1wveE93Xaatk9ZKaEGgGfb3bKFZmrnFJ6NgTAMWnFXZ8oIMZ6/fKM+u0jt15IOZgJwxpYRTnaESebrMvC/GkBgoVLLFUuahiMVpoZh2NjZsNutw4xwUGLh+2St4T7e7G60PWCQWDuyVdGigqayQURPOIFtAdCytaZDe2hE7PDc2fYI2e342y0vp8NUq0OjjheEcFHggnBRHe+ZrJtdv+P05d6jIUthGD/WwPfgh7nL1yu1Oo1kYhh/TJJ/A4mS0eGnd1G20ynbMEnhLqqmlapTumnGYaKgzNrUNNoaHlxVBPr08aa90/FUFKXhHz0gIMTS1XKOOghl9cmTiqLV9duOryKkon4nHKYU6KMf2Z+HFgOrOYPaYUOFRuFGX8QLaakFtb9dy34sExB9LZcvVqfmDMOIgFnSHSkpMsIx0g4JXynhkFE07B2jkY/QDatcm9HNnNu1qbOQhK3dLd/zhzY4g9KMe+R2vVA7cZIw0oq1PF6ogOJFoSyH1msC1UEmH5AKINM0kDbsI4tyOxULa7WiXitg0qaRokrUCatgaJaOaYJ83+cGXmjmCzMXLpu5fP9sYEDi8uJwNGzgqKIMaUZOPnB0wv0H2QVCafUS/wntPSPTyk3NLZpWHlighjFosfbuTuzpGfrUQUg6XhTuj4+cJNY7eUO7WDPhC2uqBMKjgERnwwLsMTSlf90Xda2qF3R9tPmk9V3z+tcWi0+2utstj9BgGXWxak2XDYXukOKSsygIQ8+jyRqnLZAw8EuV6QtXX8oVyvKZCqyfM/Pq4XFGGImVYsyPblrl+oxhWmS/NIvvu6qqaaoWhnsBnZHrigDPAwVo6erZG1TQmED1igbtoOQFNPVtj7eESqRbteszuWszuZyuBUSazJSTG4WyhacK+hOsdtxznHOw1QhCZbasw5SWTC2KcBmGG6H9fE1DQ4s1C54RPDu6ScKonKd17A6vSjis6/pRGHDvNRoEAUDgwpWX8sUy4fReyHUz7vNzWMdI06gU3hREAQisTFEgDPeBECFVN3MAhN1uG7RabEWCI7secf3z3zBQkXlTuzmb1zSa9B0H9KtI1XRUNLWFqnFjJl/NY19ywVPExOoszbM0nmx2PZ/Q/L0TT41EVUZVVZku6a8uFC5PWdThOrilj+Y2hJTnxa5c+KeGlOmiMVN6QRNpHbdD/SlJlGV/RkiO73m5fPHCtVfyxVIggyGl8GCEozCL8eRgCQUfIgFPjUY+Lyg+08pPzV00c/k4lTDO+cK07rbhOJ1w30Yapz2EfbgrAAgtXbs+mwM4XN5xWl1foeGpgIJ4tmLMlXQTa6HUj6eLH4aVHH5pNt/1grWGF/fZQIc3+1GxAh2rU0X91fnCYtXUNTTcvgIgrWn7thcYWK1YOKerJLbQkgPEJZquYUDjAdYpKZSrc5ev5yzLPVZQBp3jJhyOzHB2oSXioRvHbvWsissIxAgzF+uOsjpFiP/MvLgEqDnd1KNgmX1GGKU0hUEQoqjQ2qG7GmQVE1CswGkOmF9cu8uKWvuGRCZNnbM7Aao3VzFUtfxgvfN0y7HdIK5FED8QmEOY2IWqeaFqAhbqqhoOrmJiZIVHvN5076524Hl9dbEY9/oID5msT5QUpVVvXL+3j5AuGKLkS5WpucVCqbK/rRIXn5LP38uc5VKEFMcxMY2irI1yctyXoKcwUku1uqbhwPcPbp82Dghe7E/jyjKdqLLMnsdQOb9rvK7Roth7hDLSiAC10iLa33NRYPbmK6apq1MFvdkNAAqjYkC0AVPB0iqWVi3oJQvHFHzoC8FV8gZQPpWGwNAKB3slDuJTxjBGOwtqe1Gj8DQ9P2jZNFzmZDhVRCVJfebC7MWrGOvj+nSOgFkWkC3rQafSRyiFOxDC91y+WKpOUevo/jYfYPDwXj5+2bsAhP4AiX+UWwSKDGwYDghj7xqgYD2PHZ9GKoVRmgQAIc32izJPRoHAOGUCzga0EvYrthcAs9xq+zna44n29Aj37ddwrYPOuiiyph4UI+3xyBXag3D24jVV02SSqBQJhJPEJgW850FOAhv+mcUr1Zn5dmNHiQsoe3sBi4d3/USaNBOXMPIOGhgZmkb27Zl7LJDFsyBR02Mgl1pH2Wh5Kw0HgHCmZNQKOt7P56ehNAdAiGCTRFx3r3jsybOFoV+fW7xw5aam4d4wzYSeTF5i3SSnEuKRpk2KxMoeH+zV60lVgREWSpX27jY5wL5DDsI4Lt/2Qod2SD8gFFKSoIYH+IdeoCPLldTo+I82uqsNp9WNatMgJbfZvTmTvzZt0X4XSNFwFCwTtZ4Acuj4wWbLcb3gZNY/xcEgnL1w5dL1l7GOI/O61PhSRn3AOJt3KXFn6FOnMHskAsJybTpPoxsO8YwTQfuuT/wgVJEi3XzJPyPm4BDzvY2md2+t82Sz2+zSrE5aX42QXduP+iGjK3ULazSnFL3YEiHfD1u2BysBqcdRkO6oalP1uQumlQv5Rsocfl/+f/be8zmS7MoXS59Z3qDgvW90o733M9PjOJwhhxxyuct9u098eiHFC0mhL/ob9FGhCH15Cr3d2H1vtdogh54cjvc97b1Bw3tXAMrbdFfnZhbQ1WiYQlUWUIXOM9WYQiEr8+bNzPO7v2MRUXRX3a5E57I5KbPWqClFF1Urve2tqnW6K7TAUfQMH3mWnUgyhkNkWhzKXQVqoYDhhDw0nxz2JxMi7q7F0RT8ZGkKXoG4NLKYDCRkWCUxFJWtO2VVTaSl5+uaAv+jabahbY+nqlbPdDTFFBMIN1yIkLtQs5Qr21Cxj9BbVe9wVyD12Tbnz6z5MSsAjRlN4eBCs3VEWQtNkZKCJoKp6VAKF0kgn97AZCZsWG8FlRJVkmXo7O+mJSWWFCVlddSoqsgMyzR17qtuaC2jDBnStGGZQFj24LPWXUyafGUr549URFGUt7rO4fEhlKkYgsNHKYrhOJLKtPXRdwnqLympWR+YUq43iEqgRFpNS+qanQYB5JKivBgFlASOSK88cJKsiNgsugbKKbJCM2xTZ28VAOHGPQhf+EeUfLFg2QTCcmOoO/+EkkXd9xp7x64dkrBarQ6nhxWETNq2lj3G4FxtOvv7soq03O4X1ElIal2lVl5kmd/1uFUktV5SqJ4cTzA0Q9P0MqrhJMK0qJDPpRDqiTeC1e6rbbJaBM20oJIEWcRJIokSelJN/DKB0JTdoeKd3kpvZS2Fa22rGSBkOOpZ/1Baxr1bVYKgXownn9SsiAxNcjSJQygJUsE1AfBLwSZl7FeDz2mqzNoMwxVmKJwmYRdo5bl6d/ABfGjn6QavxWnlyax7ICnJibQEELnqfHHrJYutsq7Z4faaT5MpxgpT8BpotxcaNe0qRggoQli9uytrqhtaQ0t+KZ3Cip2kWZ6X0slMSyb4D5GJtBJNyqBGyd2e45o5YwLJCsLFBYAKqygpqrAU0MNAAB1sHMWzNI2LUmO8hElD2xApaYTAGcGAa13cUpwPJuS0jDJtmbXBw58sAt3k5TurrE4bp2p/yDQNTkrBeBr43qrcCVUWXVV17fuO2F1eQ+5wMzB5NykrtOZvOX+XKR2lYErp41khQAi3mxMHvtfrjJCiMfjRFP00lVD7l5JVUIPL3Qp3ubIC1puQcIfhQEwKJ6S4pCoaKOrnTWp9azmGAuZU6WBrXLh7UTlNCkIcQ7ZXWmRZHfAnUxKitcQYOCmfnWuuEBo8vMvGa7ZxfFr6jRCOi4FI8nkglCXJ5a3qPnTa6a1U0E4+UyaCFkn/7+AKbzesuskd+q4Ji1tRidjW5aqorqxtomgaqcABKFkW49EwKLhsqx8gQUrChdasWuAoBkuNOanLfia9ZHN522HglBARTsmLUWkxKgYSUjSlxHG1T5V8Vi8grZu8wFJaTRbJZ2dqnLgmi2ZBLfVZwEVjYfVjYTtrbMBrIylZL/Zt4+gKOwtY6BAYEEIrM7tyj4YT4mI0rTzXtxluIeCCje09Fgsvy+q2PzvoxdERaNu/u/OPpLkYMWWboFBFTndFdWMrw7CqiqMhFFlOSBGSXB0YIcpqJKnYeBxmkRSVFA4ixfW1KVyWmeRZnItWpl2WtFgYEmAeKOB0KD0ZSIXist6CA/4EZ7zmt2QFN3CA16xAh7xCS4Xgc3AMTSFU6mZSpAGYy8rs5W1wHUUFc0QLS8NSQKslSrIsk039caBpSoomJUKzDGeBILK5PJW1jTaXmyTKxDpsigmEprxoxHLj4D1dc/E869W654QW53XjJ6kVXEZZji/ACUnBlUd8DpajqYWIOLKQBCphF2iOoUBreoFMOFggSWWnDPXwyYSkAP4N+xOAhRJmdWTGP7ohfNKaNzEuqoPzyWBc2lNrq/cIACrlMgmAfDaKtq50q9cEljYsDhumVkiwKClprUUFlRUrpWoBoo0dezv2H1+z44Tuan2BiZwpJhDuYmx5VhXuDgEUrG1qD/hnJTFFg1Ijn0FBnQdIihpOSqLMAxACbMxH0ykRCSyJIZMghCWyp87eXWNDWuO6MuKCIIBkA/NxQMFYWgFKpHcfyvHrWN0jQlJVfxTwAkddtlRYaC3HotR5oV7OlMRB6mi5kCm2+tIUx+GwYQ0UMcuPJMREWlr1SGAgVJXmrv09R88yLFeObbZy84GZNXZ3bpFqToGJudspVrurqXu/w+Vd6U24yswF9EhUUCghg67nWVyLS1Zwh6CkpAJ4RFPKfET0R8SEiJ2GZbM+0Cyi8bQyMBd/Mh1ZiqV53lJZVW2z2bbk8NSbD6sqbuPQNxOfCKR0Dl0Wc4Ajh7PKwdA0xTDMSpVRbCpX0VI4FUlIqxMotdoLFdX11Q3NNENt6+rHrJ1hAqEpphgroMHsTnfb3iM2t0eWpPU0DyAfYEZKUlmatPO0Dbd1xeoel6nUKlWKeANZRahcdBSMPJZSBucT/fNxieTa2zv3Hz7e2NImCBYVbbl/gpZNQQIvHF5IBhPYvFqOOZeAgkAHV1ZCwIwBCGcCsaVoispCQiCDQBkdrgq720tTOx1caIoJhKaYpLFAURTVarM2dux1ZKpvryuAhZGUnBAVAMI6D2/haNw1Fukho0jPKyib+SThdNTJQPLxdASIbGNTy7lLb544/4rFZhfFdH6aHftWCTIQkwALk6JClxUS6g5ClmE5lnvadEKrKTMXjIdiqez4KVVZLqtW16IaWmjbJHummEBoys5oQPhpd3kqquttThdaJ+oRtLqC0GJMCsQlG083V1hcFkb3M+ldKYAjOgRG8yqV/ANG4UyJ2ZA4GUjFUzKo94aW9paOHoKk/HOz8WiEIqn8LLw0TQItngmmoyncraPsdDrLsjzH6T0I4aeqoGRKSqRlSXkG6xRJZHlh77Hzzd37sa/QbNBlSjHsEyXHGkzZ3VgIGpxhGtt7qupb5idHCPL5opLYCgqaHehOKC5XOfhKB9dZbbXydFLEFUhwXS4Pz9LlETAJK00Rodlwej4i0hQFqp+iqfHh/v5H92enxhVFYVg2750DKABpXopJLgsOoy2TrAI8Rpw/yLAwFWiZNKcleSmSTEtKdsk9nRECdWzs3OutrAZibdpFTckVobZyp5hRo6Zsq4DuBg3YefDkwL3r0yN9FMOuUnz6TQzqLpaSo2lFVlWGJlsqLRV2LpKUaYoEdmjTyleWy/mmRDWclJOSysKZkNTU2DAA4fT4KO6uxxT0ANIaJ16MipVOzsJx5QGDWs6kwMOSgEXLRgJg98FUaswfSaQl5tnECU6w+moaXN4qijS9g6aUGiPcSaDfLra6jsHKJMMFAYOi0izT3NVb19pF0cyaqk3r4EOICgIsjKUUu0AD/3NbGYBAQs/GI8tDJQK1lVWcE5mSkFZblZQlcXJ0GCHgOQq5Fhve4h2KIy2jKUVvdVQWaXNw4Wia4nmeZZkVBguIHk2Ko/4oXPFsf6ci47JqHb3HHC6z0LZxpIg06PnJ6X4rj1xO00e4rdhN7sxhS0oP4qdC4Lm6ls7a5g6aYVVFXnPwuNpWUl6ISqDrKYIE9QiEiqHJckFBHbMVVQWggnPQAyGRqkqSKMsyRZFGtZNAqMyYEk3THMfRWT0IZUWNJcRIQpSfbcYry5LN6YFlE/Yol9NivDjHMtfgJhCaUhIPb15lZVYrbq25QmPH3j2HT4M2BGBYc80KUAFA6I+KCBeoxDZAQERFLafqWnrZGDo7GgZ+1cSgK6L1L6ZKKJ+S3GwZxNC0wPN6iVGd1IIEosm5YFx5riU9/OKtrGntOWS12hRF3fC4ZJFRy0QhEwhNMcVQUqgqqKahpfvwGbvLQ6zThRcUT1JUQ3EJtydUjdRDOspqLQApjtFeNFWMDASkdVpwWhgep4EbbyHS/G04hhYXKd3p9QGD+ylqnaLIDYGQYaxWy0onXkprrTuzFB+ZC8MqBzP+5S3hNgE6WNvcUVXfwrCMGS9qShHvXnMKTNl+IIQfFqu1uWt/W8/hWDgkppMMy625cUxU5sIiz9AWjio8QCZT6FLrcQFMU10u3a1XbKFxtz9jGSGCfVp5msPhkchwVgHzAShe5cTNb9UdNZDCkVOSmpZUWUVWjl6vCCqAJMNguyiJC8wuF9pWVH8oMRdMZJcYxRdHVRva21t6DlEMaz41pphAaMrulMq6xiMX35oeG5gYeLgmEAKKACmcCqZXGp0XCoQaeMA+g3HJr7UABN1NaG0fWistzRUC8BkDmYfGCAmBpS0stcJ1DERBliY9VrbayQH27FQYrd5FUpRxNfARf0LgqH21tloPT5HPYCHSpgMgUBAE6ql3ENcXDUTTgVhKlBU6K35YBXhUcH3RPUfPAomUTTpoigmEpuw+wdTBaus5eubxza+X5qZw6dHnoij1AtxLMSmSkr12tpAAND1QLpSQ/RFxMYb7/4WTchynb2OqRtO45x8gioU1uPMtzpskiQoH646ycHQ4mCGlQREuvqNW2Nm2SovLwm5pl7guj97xYmW+M1VAUX69HincM5KEVcXoQsLGM1UOzmsHbCaJ7JnU249wnMViWbnKsDhIi+rwbGg2EKOop0ZVGAVJUHans6Gtu6a+CQa6sYPQFFNMIDSlLAWpKihCb1XdkQtv+qfH+u9cA9JE06tvSBJhtjEfTnusjMvK5teAj9T6VAAOjS4mx5ZSkYSs9wXUi3bCHmUFhRMyIG6Ni2IpwsAG6LrxtdbNw9EjSdxQtnBfpA5XToFp9VkaPDzu7ZcbfFGacxRONibi1sfwRtaCj4C2sngpQAs4xx2ztNxnWffwsjRV4+L3NdgFhnZZGR3UVu0EiB3/bPogbJVMS6PzYX84qXkXM1vCqohm2Mb2nprmjkz9IDOD0BQTCE3ZlYKDI1hm77Hz4/0PJwf7UskYpgIk9SwpxHp5NpT22liN+pB5QCHwlbSqAhecwI1wJXqZe+h70tpY4PZGegdgHIWJjLSOwrFcFgZwYi6cDsRlWABQVEE7BLFydFeNFV48Q6HcKsroAIzNwgkJpiIQl+JpJZ7GflKBwRE9FXauysl5bQxHU1uixboxudEr1Li4TI9JnDeS6b+owx4QPqvVygs8elplm0yJ8nwwHoimgZcLWX5ARZEFm6Pz0Mm65k4cZGSioCkmEJqyi0khImmn29N78uL08JN71z4XU0mW41eTOaQlFMakWo9i46g8soFB1zMU6RBolqJwaZssC6yejsExJMCAz87qfMjg09RIU5WDa6+0pqRYNKVQ+UbNIA22gQt2VFvbKy02nlZzLjqGsxRi0pA/4Y+KgH+SssIIEdCxWFpZjMuTwVSjh4dx2gR6q4VcLCwFID8dTMEJ2niq2sl7bOxKN3kg+xaLhcPlbzI7ZWhqKZJ6MhWMJMTskF299Ki7onLPkTNVdQ1aV14TCE0xgdCUXY2FKkW1du8/duntscEH/qmxDIfK1uBaYAiQmJlgGrQ/gJa0RdslfB1Ioc/B7a2zeWwMwGoshetW4rbpPOOy0JixuXlcuaY42fqANwJLtVQIMPKB+XgU10+htmQjxTmUiOBpssrJt/qEpgoBoyDKibfhuBUCTYdSA3OJ2WA6ISkwqTi7kSA1lyiOlZVVQkzJ0SRKigqMtqva5rDQOUMs/gn4OrKQnAqmUqJq4enFqNzg4WvdHEeTcK42oIP8CqHHX5AVxR+Kj8zjNHomiyNLouhwVQAKNrTtYVlWlBTzMTHFBEJTdjUQgiiKzeHsOniy58jZaCiQjEU4wbJKz4LSDidkULI1Lo6lmTxIIWzOM1RbpaXKyYHKDsUlUPccQ7ksrM/OOCyMbs0rXjYeQBHQrK5qK5zx0EICOBkQMpxFt37wjNZwA/tSATg4mnILtM/GNlcI9Rm/YK4oBTsJJeT+2TgAFQAw0N7V2+iTrFVpiySVIX/SKbD4P3rz/h56SExcVEYWEvDFtIybRKbjMlyvcEIkCHudm3faBbvdlp07CKsAfzA+PBsCGEQqIpmssmqSWNXQcvzlt51ur2pyQVNMIDTlRYFDgvBW1Z56/UfTo4MD966sqc2BSwXi0nQwDQzDytHy1lUk0lSwnactnNDoFfS8Pi3iEXOjYutcnehaOQo79lgKMAmIKWChjnbrYAxGScB9gSUr7XyTj6928BYOU8ncYztpikyklYml5GJMIsnNSwDB3yUZLUTTFXbsNSQ389DBaERZnQ2l58JiWla1WFStu7KKggl5OpiqcFjsNiuLm2xk/Lta7JI6MhcemA4puKg69XRVhJDF7mjq2tex76jFYjXpoCkmEJryooiiqDzHge7bd+JCwD8VDS5hEHg2aobWmrwDfnisrI2n8zuQqqERi4MaM7kYaLnZ7zacpn50GHxHtdVrZwE8ZsKYm4oyWmUP1jCb5FncasNr56ocnNvK2AWcmE9oZtLcD6oblmHqRAln929qjtX6J6KEqAK3y2X/MJcwnvmICBSQXA7J0S4fDqIB1soLgtVq0VMGV7afC8TH56NAGbUsjuX5waK07T22/8RLFofTfC5MMYHQlBeJEWrx+jaX+8iFN6ZHHl//7I8MxzEMn22pBA0LJEMjhSmHQGm1VPKJIIVvKDtncNOPbGGpOjcP3BRALpqUk6KSkjAzXEEpmiZ5hrJxFKCmw8I4BUa3UuaRNa/zYCtPswwpplV6s7qwihbUCtsLLJXLwfSYGlGLu8nGWRiqhacbfM5qr4Oi6ZWBA/9LSNKTycDEQlRjh09rqsE/q9257/iFvUfP6o07zEfDFBMITXmRSKGqkjSOmuncf6Lv5uVUMo6QspoUaiRjMpACFOyosuAUwHJEfYLQg30A5Ow8fgBFWU1KODpyBaJYmhJYXLoTp7prplMp39xGVcU5gtVOzh8RgRcq2jSuR1i1ImeE18bWe3iHwKAcEgqB58EwK+0sUNtwUpZU/aCIY8imSntnfYXbYVWW98PQpCQp0wvRoblQKC5y7Mr1JSUxRTNMW8+hnqNnPb4qFWcTmnZRU7ZJzKLbppQKKQR1z/N818GTvSdfYnleFld3pdDZQyghTQVTCzFQudjWV+7nTWjJG04B56G7LJmXjacYLdNfdx8WgvcaUJEVNq7GzeOYIApzNb0w6cpLNw4DcYSR1Lr47lpbjZMH+MyFOWuVsqlGr9Dis7itLPBIgcEo3uyzHW2vrPTYiKxaazRJLYQSt4bnl8JJ6pmUCRiT6nB5Dp17vaVrP4Zks5SMKSYjNOVFxEKcSkG29Rw4+tJbQw9vJaJR5rky1Xq86Gw4bWFxzoOdp5WypQ0oEySD9HKd1LPwqBaKgM8cCBCuvcrCkOTAfAJWEjrsZbFGnPDutjINXqHezQOe8Uyu0UP6Vk4L011jrXRyuIyciqw801jlbq7x8Cyjm3P1RUw0nh6dC4/OR5KSwmQFr8qyZHd59h2/sO/4eafHiwvwEKZd1BQTCE15IUmhoiDBYm3tOdTaczAeCYnpFMOu7jwATCIloelQ2mNjOqqsQEEkpbyVpg55qKj7J3BJtrZKC89Qi3ExklREDDZ4nQHzaWEph8B4bQwgGbzRoXFL4wGYAyy0C4zPjhcmXpfD63GxLKcuW1e1GtxodD78YHwpnpJXNWuSJbG6ofX0G+/VNbdnwasppphAaMouxjxde67DMDy+qmMvvTU7PqR1pVijBQ9LkQlRHpxPCAzdVMHTGSuiKRuJrCALR3VUW+tFPpiQEmIGCGlaM8xaGKBogFv5dbFAuhcTIWDqgiA4HHaGYVdQEPYMb2aWog/GF6eWYss5i/j4qiLLsuirbTx0/o3uQ6d4XpBNo6gpJhCaUjToIYu3Gy3i0Rh3naKqDqd777Hzt7/5eGZsEKkq+VxpTr3uWighD8zHGRpXuQTFqpgsIrerJ3BUNcNnrRxInOFuREkdoHm8ILhcDvi5UgEVPoSdL0ZSNwbmhmbDWorF0y4TiiKzLH/s4vcufP9nNqdbRXlWFl13IYQMnDxTdq2YwTLbRX+2/WEq0wdX14NuX83B06+0dO/Xc8vW1LmqSsxHxPGlVDAuoSz1asoGvE1dLnjN0tTyi9Qz9FVUYFFPUrBYXE4HsDoiy7jJ0VQwmr49ND80E0qKSnaMjCyJLMfvP/XyiVfeqWlsgQtYFu2WduwpNrHYBEJTXhzRu1IcOv3KniNnCQx4awGhxgtlFU0F0/3zCcBCXb+bs5cjHOLipcuvAhP2dPy0WASn0yEIAkGuVJDBcBtNiI8mlh6OL0VTcnZ3YuCC8LO6sfXs937ase8IIvRIUVPZm2ICoSGrMWScwjBNJDshwAFBh/pqG/YcOd3Q1k2SlCJJa5FCgqHIeFoZXUgO+jEWwhUzoXCb6TvC6RmUReOC8PNpr0Gt12M8JT2aWLw/thCKp4lnjaKyKFbUNJx45Qd7j5612h2KXm7OlG3QlUbNMzJso7IFQvOONaWoWKh5/Nr3HTlx6QdWu1OWxfW2ZHAQqTrsT2SwkDCxcFuFoWmr1eJ2OTEXfLpGIRmt6W7fxOLtYf9sIK61/11GQWztVl0VlUcuvHnhnb/xVlYrZhEZU7adMZU1IzTlhbhHMWNQ1IrKmt7jF+paulheUNW1vUd6scqkiLEQJ8nFZdNfuG10kGEYu93ucrl4gSeyeiYzuNK3NDAVABScWcIouOIahG3gUnKC5eSr777xs/+hur4JaTYAc7VtShkyQlNMKb6ipSiqoX3P6dd/7KmsTcYi697EJLbCJUR1ZCE5MB8HLNStpuYUFouva7hlEQSX02F32DmeX+ksAYDHMXQ0KT0aX7o5OD+9FAe2l+27FVNJ4IsHTl8CLtjQgrMGZbOUmik7btgwp8CU5xfiJYIhsoLsDufRl94auHdtaW5KVXH10TU7KOCeEjRgoTK6mASK2KIKPjsHWKgg0/FkMAsk9HbzAg9cULAIJEWv8DkAPADCcDz9eHzpzoh/Noi5IMs87bIkppOcIOw9duHSe/9dS/cBWS/1VrqGCVNMIDTFRLmdHgvCbXxod0XVsZe/H/DPDNy/TpKIpte9aQH5kpI65E/ERKWzCtV5MBaqZp0S4y4Wdv4xtNVqtdvsLMuQKwGi2p9gORKKpe6PLt4bXVwMJRDxrEVUUViW23fswtv//n/tOniCYZk1y2qjUjttU0wgNKVE0GlVv7oXR2RF1VIpXl6YnpgdH4pFgmum2K/wQgoRaVmdCaZTohIXre16DTbZLFZiABekKEoQBLvNygsCwOGKOZRYjuCdDcZuDs4PTIdCsTTKymbRUZBmuUNnX33tJ7/oPniS45gXqoIM2kUBliYQmmLKDuhf0A82h+vQ2demRvqufvzbdCop2OzrqRZS6zgvKep8BDdMBwTsrnO6bbwoyem0qGra3JzVLc2/BoHYFirgF/yfw/0F1UzOn2YOpURRGp0N3RldHJwJxVMSrXlt9T3AllI6aXd5T7z67svv/E1b71GaoWXTZm2KCYSmlDd9JdZgsHqNK7IIhldVyyusb+s69dq74/0PxgcfKpJEMxvdunr10VBCfjwTIyimo8bh4BmbhRJlWVrOVyPLh2JnRrq99VSXg18A9Wie56wWq8UiwC962Kc+gQxNqioKRJOT/sjtYf/IHA5oYrPaSuBKorLk8lYevfjW9//2PzW2dckqMrzRYPHrq5liAmE5aGZyJ767SxCs5Mei9y5nGbqt59DpN36UTiXmJ0dBI2+MZNhMSpCJtHJ3LOAPJ/c2ulsq7RaWodKAhriaiqqWNBySWcsKtHynktvi74QJ1xx+mOrxPG+zWoAJAhxqSSn6pGXGIsloIRR/OLb4eDK4FE0Rz6TMY3Mo7MFbWXvi0ttv/s1/qmtqXUm3z/UOKa1n50XRES/gHJUKEL6wPrAXBvoKFUVV3RVVZ974acA/dzX2W5xNQW2OhTAFKVGZWkrE0/JsMNlT767z2gkVxZPJZCqtl7ApVRqI/9NOAaUkVVSQwFIstusWV+HA+gAOCqgn8AJQQJbjWIaBZcfyioTQ0Q5e0aTYNxF4PLHkDyXCCYkgV3FBCUZf19p19ns/PfXqD6rrm9GuyJQwSWaR9L8JhKaYkpOCBjpX09B07vs/i0dCt77+iyymKZrZFAs5hoLvzoeS4bgYS8nNUWe9x1LttrkctnginUylJFnWOVApEERyOcYkKanhhBhNK0BqE6IqKaqVoxu9QoWDNZwXouV+STQOhwHo4zge/sOi20JXjMl6te5oIj3uj8Crfzo0H0wQWqOl7JlLxqIWu2Pf8QvHX3n76IU33V6fgpvOm/mCppQJI9y6qfDpN14kM+Pup5Jk6R1IVnC8aOf+Y7FQILQ033/niphKcoJlU/TCWd4ULavE4Gx4YiHWWmXf3+Kr9dotFivPs6IopSVAQwVEs5dmDIM7gIIahY2llUhSXopLi1ExEJejaVkPLdH5ll2ggRqSBVMTHdv0FYDuCAQUZFkWWCDP83obyBV3IK0VDoXJiSXFSFycWAg/Gg9MLcXgiqykCa4QQVmWHJ6Kg2deffndf9d95AwAq5QzEUTbeIebsmuUVd4XFpmMcAeuFbnq7S5EOQMbE66tu1UVFHbPkbPRUCASXJweGdAdUWQOsaBacgUpyerQXHQmkGyusvc0uBsqnQ6X1SoDvUynRTGVFpVl4rL9MTXAqhKiMryQGF1IAhZiXNH68+kjUFQUTsrwOc9wVFY9s7wgkFwBe90RaLVYeC0cNHsRsPJWRUgSlUg8PTQTejQRmAslAAJhPNk9lTBWa1Pn9FSeefPHL7/77+tbOlmOLWod0eLGD6GSUBsmdO8AIzRllc5YXqivh2smZ9zWnWjKVrXabYfPvw505es//n/Dj28rkkjlwOFIrQUt0phlMJ4WZ5T5UKLSHe6sdTb67G6b1e6wSaIMWIhFwv+y8uSKfrUBU4D5LcalsYWUPyLBueLMBM0bR2j9AmEUoqyKklrA7YxWKDLLsIB8HM8xdOY/Cps3SbQsxHKlGEVW/aF4/1RwzB8JRtPhRBqGwdDUqqZXKubTSl1L56Uf/+L4y9+rqG2CvwMKIlXd8l1hMr7iTYCZtWICoSm7YnECqhW5PN4Tl35od3luffnB45vfzE6MAF7wFisAx6ZwCEqcoXHe/XQg4Q+lliLxcb+t0m2v9lhr3VaP064iNS1JqTSAoaQosvYfVvPEsxzRWHTUaBo+QlojWwyNMVvR4lP0vu1WjnIItIWjc8c8tKz4sHtPE4ZhWCaDfEDXsgNhMimDWu0YhgLqrASjydlgYiGcnA/FJxdiixFcJpRlKJ59ZgyKLInplMPl7Tp06uSrPzx56R2b3QFc1iwiakq5CBmIJJ7XFLl9dcN3eQxl6wfe5LhkvrvLbWRbPllyg++Shk7RBrsmczwame8WWzONknlOJmZKwDgQMTXSd+PzP9777vOZscFELKy1RGDJrWTNKxqy8gxd57W0V7uqvTa33eK0cgLHABOTARGBHgIoyjLuHoRlBTUyLrRVkJg3QAL9iiblQX8CV8aRVHUZzACcLCxVYWMbvEKVk2NpMmtxj54hAcuZD6RelRW7//APGrBfExwIg0NgKOKp7VcLT6VImtQzItSEKMcSYiiWnF6KDc+GZ0NJGVPANTg3sEBJEmHCfbWNe4+dO/Pme70nLsCul0v55OWwQVv6Sp4ZhFus9IIKoZo5czC00e9bPHB+jBAVcIBCcjkLoalr+wi3mKRTjkC4xqHKHwgLGcjWsbD8gVCbDRqTGUTEo+HxwUdXP/n9/aufB+anceA+aPqcsVBdLnICNAjIIsdQQA07apy1XpvHYeGBAWkRkfAPcFCUJBxYA6Jk/j311T3ntXvuAzKHa4qT8wIJKRCX06KCNF0PLNBn45wWBlf3XAtrs3/NRL7QFAuMDyggkD6W1WdjBSPJrBWRlqWJ9J71wAJD0eTEYmRwOrIQSQKeSRo9JTQwzj4mXg7g5BOCZvmGtu6L7/z80LnXK6prGZpWVPirkr9GKy0gLAgCt6Ll0SYflSUQIkOnqDSB8OnWJhDuQiDcfEzkBn/ZMhbmyXVJLXBfCypZnB7vu3v1+md/6Lv1bTIeZVh+S8xM64qHwQBEYGmXlQUMtHBMlcfSUumsdFtdVp5ladhG1mjhCjdUMFPEbwEfCQwnQJO0OBeAEEVZx8u80SWGE5IVlJZVbTAaQtOkoLnwdLjC9klWzxshMeBTwPb0/1OAezSdwTxqRfSejc8CM8wapcW6pEUpkkj5Q8nJxdhiJJVISbGUGE4AB8ZJlozmJnxObSFZEuHEa5raDp97/ciFN9v3HXY43YTWMEQ7CspToxmCgpvtB+U1IBMIywYI0Za/a/oITSlnwY4oVU8Ar25odlfWVFTX17V03Prqw9nxIR0ZcoRDcjlJgNCMpQuRtKKmQNVOLbGzS3GPnbcJrE3g3HbebeOdVs6G8+0YEkALexAxMOr5iIB/sgaEGmXKFORUtZiRNeM8kYadevUcnczpcOhaVVoGg5nOcQEIKa3mtYZ2Gt7h1AcN+mjmaUeIbHCltEAh2Ap2JUpyMi1FU1Iwlg5EU/GklEiL8H5ey4sH+gfgR9PkKkdgZqiylErGed5a19rZtudg56GTe4+ea2zrIvQA14w11xRTykxMRpjDhruPEeZ8AmRef94262jm/lv+Jq3hWCiw8O0H71/+8FfTowNiOkXTTCGFtnXLIdIsqMAUq1xCtdvic1qAIFoBCzkGAAM+14IvtYQ8DZqIZYur7rfDXBMH3KjP8Q096SBDLnEEyzo1VGkN7p7G6Wj/lusxrdhLVwqzYf+p7sqUMUJjC2caR5wqaVEB2Ism0oFYamYpPhNIwOd0xva79poBE1scLyTDAOwuj8PlrWnq2H/qpcNnX6tpbiMJLZZnOTQUbZXWrVrUl5yD8AVihKiwA5Q1I9wlQEhsIYRm54CQKDRexgTC9b6szwy53PQgHove/ubjL37/L8MPb6aTCZph88ZCDcx0wob0/WuECQ5DAiuzC6zPCdBo9Tp4G88BKFpwTgKjjUIPV8nUSSNW2YCz5igLPDagr0//lEFQ3cO3DNXLqJoZrYqtl4qkKImUGIqlw0kxEE37w8lQTJQ10FJUjbxqHE6HQDL7EMuxQPCWwisJGlDQVVHZuf/4obOvte877K6o5i1WDLca3yWeaSZhAmGhQFh4BuE2A2GBVc9NIMxb0e88EBI7ETiaHxyufayiAWF+cEgWcuNkfRkHyhBEMhHvu331k/f/4dGNr1OJOC9YCrefYNRRcVyJqiEN/MbSFNBBK495oZZah18sQ9l4xmXl7BYW/mSDLSiSY2k7nwlnpbBrk2ZZTCEJ9Ew2ZS5+LyBoaQk7JoF8wv8SKVnEbFNNinIkIaUlJZqUArG0nu8h4QAfBTZISXgDeE9o4al6WClNkWtpJQ0DgUpKaYZh61q6Gjt6WnsOtu097K2s8VY3WK1WfTjZHBehfNTpOqBTAAoSRYmUyRsI8wsZLQoXLFUgLNCcbvoITTFlTVMeJjIWq+3A6ZcBlzyVNfe/+2xhdgK71liukOQ/PSWfysYtRADAJMT0Sq6DiokjYQHYAxTkGIEDjggEEZfohDfLAZs4PJXRMhLyqI2Cg1dlBWlRMwpCqbRWHg4hgMC4BorwM5KUYM+UxvQoSjOWar8IHLMm8qlaqqQiS6qiwCy5fdW+2kZ4VdW31Ld21TS2Ahy6PN4MEqtmN0FTdpUYwgiJnbCObiMjJLbNTUgUz0CaXzYhsb15FIWYfp+fFj1+cnp06Oonv7351Z9nx4aT8SgAgpZOQBf1uULo6Up3TcgoEEjWhPOs8JpN4D7D+BQ9xFWmacZis1vsTqvdZXM4HZ6Kmqb2xva9LXsO1DV38TyuO4pJsLpuOGi52EW3GBW5Yw7C7Y8XLVNGWEjuBLGxaXRr+qiUgZAouwyK7QVCopQy6wkjraMrH2kpB0Q4sNB36/LlD38z/PBGLBLSLX96unmRaqehjKpG2c85MsoYtHIfLDfNWA2Ea53VSg0APcZGC1DVy8ogm8Nd19zZ0NnT0nWgsb3HXVnNcjwN6wWOZ/TU+2cjYtYD/kLmauvfKhoQGpRHv2uBcAtRMeWRTV/WQEjsxlTCXQWExM5FzazihfBZMpmcHR8e67/36Ma3T25fXpybxP0cOL7Y1LB0RKOAuBQMUhHwv5qmtsaOvbWN7VWNrR5flcXmwhGh7gqb3Z6tKdQcrKAl5B00gbBUgBAZPUUmEJpAaAJhAUCof6rHcYqSND7wcPjR7emR/qmRJ1PDT4ILs7gqG8ttg710+5FPwUmOkp754Kqoqq5vrqhp8FTWuiuqfLWN1Y2tlTWN3qqa7G8pGzI/EwhNIDSBcNcC4ebbblMGBVHUoqNEviVmttM6ShTmKdx4ckhSr7JJhIPBwfvXH934emL4cWhhLhoKxCJBMZXUqpPp2QJU2fUX0QyfWldFRdb4rmCxO20O7Pazu721TR2t3fubuvbVNnVal2lfJvEhX8MmKhgp8jhycbMmCMMSJ1C+ZVoKjFXd/poyJhCubF0SqYRErp5Dw4CwvEghUeIFuAslhctzsxEQknrhUHgGRFFUxFQkHBx5fLf/zpX+e9f8U2PAn7A9UMH1zTL7yirPWaLgh5bRDFdNw0AOn3M8D+SvsXNfx97DzZ29lfXNgtVKazW39eI1K0Coal8vjO6gglRYSQGhcXSwtPLoiRItrmYwEKI8v2sCYc7blr91dPuBkMgvAqawqJlc5gfHiixvk0wmQovzwYX5+emxqeG+uYnh6dF+/9S4JIl6/U698W8JYmGm/4VW+hTeCDZbdX1rY3tPbWtndV1zRU2jq8LndPscbu+z9bIL4IDG0cH8MHRb0gd3IxAaGDJqAqEJhCYQ7g4gzOaIK0nlCkH4J8cWZycXZsf90xOhhbng4nx4CTByLrQ0L6XTel1PPeASv9EI5vYgnprBPBzuouc+yLLECxZPVa3XV+PyVXuran11jb7q+qr6lqqGFk9FdXYlGlVRC9JVJhCaQGgC4bYB4Ra1vAmEBQIhYVgnCsI46yhRoKeQyMVZuA4mrhQbwzbDwPzM7MTw/OQI/JydHI4sLaQSca0zYTqdjKdTSVkS4UVonY/0Dol6W+CVhoBbpndIzSqWpmrV0rRuR5TWRZfjBKsN/rH4nYVheSB8tc0ddU0dNU3ttS0dXl/1yhOOVITW1zGFZ28UYhQlStYuSqzttDSBsHhAaHBZmZ0GwvXf7SwQEiVZcZTYsSa9xLbXHc0TDskCV1T5YOGKN1D/kopbW0iyJCFFFtOp4MKsf3o8BBwxsDA/ObowOxkNB+LhIGyTxdr02p/Eer0mNj267uLUQXWlDDbAnsPldVb4ahrafDWNDg8AYIOvttHh8lA0y7AsjnplmOzipQitnfZgHAQWtDODcweJMq0vShgbL0qUUBJhqVcZzQkIt6bid7JDr5H1ZYhtCxwlyrITBVFOUTNkgbOk87xVlThTyWQ6mRDhXzSSjEdlWRRTydCSPx4Jw4exSDAWDiqSKEliaNGfiEUQUnI5cdDvsJlgtTs8PsFihcPa3RV2l0eL+nTbnR7BZgeo4+Fvdhf8YwX8blWfClxoe8O0B6NKohkTKUqUWBL9zgChwXSQ2ImmE0RJhYyiPM/DrDVqiilri5oFLFqVUUqwWOCFf6/N3gwBLkpSGpAP3igKJpHR8FIqEccJeWRuDyVJ8ICETg/AHRzI5nBZHS6W5y02B9C9dYaXiRQ1EuVMMeWFFJMRGkPEyrY3IbE9dUeJHUqlKJAUbsCkcYGzLOJJGjRmtOp99r9V6+d8rUA7SAeNdw0azwiRIfO2O7vSm4xw0/VsiQgquyzowp60PLT82lNk1MSV1gXAo8l7otZ7ckh9+pefOx0SkYbzBkSKrX5Kn3X1GduRJ0/lXkr0ExVxP8V3EJa/FtotoylF0+hy321DZ4csvTuILD/wRgVxHbQ1Xrh84Qqbn8y3Dbyp0CrQ0oJjiK22UyKL+2AXBwKJQgNkikEHy0hT5z5UVPpDNPCm2nmhCFNMMcUUU0x5gaXcg2UMpnslQ86KS2Of3bvRxzJ2ElGGFBYwxMy3NyaFK9XXdFE3C8IsdOJQEa+swfs0kA6iEj9bVOTrU3KkD+3S89pZIHyqAnetr24dbbpT52ukGTm3cygQNpe9aTvyyK/tL8QISOE/azVbFK2xO5V7yZhVltLdos5WoSDaofNC2zEtyPDpKpkbYJe6K5HR148pB3pUpqxuCwMtgTEjg0nh+siwZSxcHlrBQ1zTX0jq/SgkSZodH/JPj4upJO5Y1Njm9lbSDK21Zd/yw0luty4oUSJI7FCkaNnxmDJwEO4O6rfOsM08QlNeRAEtT1GZKqOL/tnx/gcTg49nJ4YC8zOymGYFS8+RM5fe+4XL7VHNHD1TTNntYgLhi0tu19h7znbP7aawxkSQPt0RbjhIEqlkfHp06N6Vz25++QFgIfyqqgpJkrFQMuifOfPmTwAIDVx1kgWPezsXCjtLB7ePrKDtn2pzabVbgdDweAtjMyi2ornzPpXydxMafQZoI+sokUeKvQGBM8suQYIIh0N3v/342z//cqz/XjQcgP1abA6aYeANw0Rc3kq9b18mV36zJkyZUtmEcbWsduheMnC8hbgXCykrulPIVHIOwmIuF0purgrbIVPUy0Nu351Abqu2MDYljSzGWqKAiUMlSQoNEq2RErG04P/y9//y3Ue/npsYSsQinGBp6zl86MyrTV29soTrhlbWtdicHnyOmvk0l8gZlcygNCrPCAVUjn6qQlSioUn0hg0YFeuKljAi7/xhTNOoKS+K4NaDNCUr6vjQo6sf/+7bD3453v/Q4nB09B7rOXq259CpPUfPeSp82V+RZAXbS2U5Hg2lUymE1DWxX1VVluOBRNqcbgbH3pCKihAyLWCmmFIeYjgQlgRPKM1iMuU7n0Uafj6pFPlGkJI4NIZSFGXk8Z0vfvPPlz/6TSISrm1ub+89cvqN9069+q4g8KIkh0NBMZUESqjxwqR/eiwWDspSOuifi8fCiiKv3FuZTkkaxQQg5C3WmoZWV0WVr7axtrnDanfAX8sICo1NkyjENbi9waKly1fN09jOgTC7Wg1v98nsFAAXUk5z7eR6A3MKjU2lIPIJnNHa0FOyrIz03f3s/X+6/tnvxWTCU1V74uW3z7/z1/Wt3SxDLy34JwYeTo30LUxPLPmnl+ano8GAJKb0PQAEaq0kSC3nnkTLPeMJIrt3LqOqqK3n0Cs//vtDZ1+zWm2yopYJ/u0eFEQFjBIZNpO7C5B2kWkDbQcjRAbHyxCE0SEzRp2KsYPbJKFwF/Fbo69QjlPDYIuoMtp379P3//H6Z39IJ+JA2vaduAigNT8x8vjmt/OTI6GlBSB/0dBiPBJOxiOJWFhMyVa71emtFCw2luMZlnV4Kp1uL1x3oIvRIGwZAoAM+GfhDUXTKvwiqYosN3f37j16DoDwhWKBz+zLtArnpoeL6JY1sONEcZdfJYHTpo/QlF0rulNQh8nxgcef/eafbn7+51goYHfhpIhIcOH+1c+nhvrmJkeCi36Gob1VtZ6quqbOvVa7y+pw2t1e3BfQ7uJ5C4AtTTM2l8fudMN+ZUkE1EzGIoqihIML0cBCOplMxqPxaMjlrWzu2g/A+aK5CGEpQD+7JAE+DPNj3oemlIGu2KAfIZEHEyEJo7oSLuuyrR17k5GXZm9CYtP2hLnulSywd9/zvxnVp3CzjfKsu/bcMHHJUPppebS0KKaT8bnJ0Ssf/earP/y/4aUFlueBtSGEON5isdl5iw1+Wh0ul7eqsq6ptqndV9fkcFfAr56qWoZ6rkFgFm0nlw8tSXIkuBgNLYWW/A6Xp651D8fzRKmGjxpuDsWBuBQpqQgWGbFIMBWPwYnbHG5XRRXHC/imzLU7X0EpEzvSiX6L/MZ4Rvii9SAknq+vZkRjzmIA4frvthcIc8NG44GQKKxPL5Fvq15DgZDYUsNeIp82zgZhof5N3XunJTCoqoKddiQRi4bH+h9MjzwZuHut/+7V8JIfQBKAENQ0w7CAeU2d++pau+pbu6ub2mx2J4X9fBzNskD+nuc3qx4k8rnPFQWOrJB4LzQqvajRImVH6CsPWZInR548vvE1TPXUSL8spfaffOXSe/+hsaNHNxrnD4GGoyBhZAPeQoAQFXQOm21eNCBEha9DdqgZL7FNPsLSl6242zb3eBqbUEgWukWBIypuw97cCEG+WKglyWtfTiQT06P9cxPDs2NDM+ODS3PT0XAgtDgfCweAAtY0tzd17Ktr6axuaPHVNrm8PqvDbXd5OJbJPmP8UpGkoOfvmLWnV4NhmqYYmkI4m6K0ULB4CYKAgnDK0Vj08ge/vPP1R/NTo8GFuVgkkEoknG4fzLmqqrAsKAgFi6EBCgKg/HQ6KvDvBo6pcDq4+8T0EZpSloL9f8xTE2gwEFicm1yYHp8dHwIKOD81Mj81Hgn4dR+VYLV17D++7/j5htau6sb26sY2b2XVCqIB3sla3l8hqkd9IbMGAQUjocB3H//u01/943j/fS10lrPanLIkwXwC+cbFC8zAGVN2ARBuLWbR8CpdW6A4ZnTlztHn3LfeLLOQyMFGyrDYbJlKphOxcDoZCy74x57cG+2/N/LozsxovySm7W4vAyqZtygqzvxr2XPg1ff++zNv/IjneQVX0UaKltiAcl3SPz257M3JEr7XUIF2t1wWIjQVi0Wuf/HBJ7/8f6ZHB1lOoFkW8E+RZU6weKsbPL4almEUBeVPB9EW7j2T5uy0rjCQQBflSqIXlhHuWP3PPI67ebm1XK2jhDE5hfmcDCoYC3MRVVGiodBI391ReD2+MzM2EA0HxXRKkSWSopzeysb2HjGdHB94CBNR3dh67s2fnn79XV4LYCGBRaqEms9Dudo/uLMZPjuCfysCKKggdPvrjz/79T/OT47SIAyD1IyXtH3fkYOnL7kqqgli8/7Ghei4IgR9FDLbWzhwgebqnULy3bqCYIo5Y6XapNfAAtzGVwc31xIbOQspzRc4+PDW5b+8P/rkbnBhPrw0Hw0uyopitdmbOnsPnH21ubN3fnL41pcfADvx+Kov/uDnp15/VxAEIIGgp43WBmuUjyG3t/DtNisrpOdlygqsM25/8+Ho47sMx9c2tqXTyYWZcZKi65o7L7z9N8deepODOV+/pAAqgbqeu/F5Nc5BiEpOExVvcKaP0JRyEhyjSBFzk6M3v/zTeP8jRSE8lRUdB07Ut3ZV1TU3dfS0HzghienB+9enRp7YnZ4L7/z83Js/8VRUSbKZ0GbYNaBIMhqP3fjiT09ufwe/8oIVUC2dTIASrmvuOP3mT4+//LbHVyUp2HdqTpgpLzIjNHKJQ76Qjr9CqswYHD5qbLRtDjtcjxTismaIrKiu7zlyVrDYYbP61u7eEy/tPXaupqmdY2n/7PTHv/wvVz/+jaqqhy+8cem9X1TW1BWz1NkafemLxBFLoVQI0oyiKVEcvH/t/pXPAnPTVocLPp6dGFZlubF979m3/ur0a+9WVNdJ8kbxR8iIKMoC7aIlkTv4Qim0Ej5zJveLWSYxK6tHumP1P/M7bilWd91yoeviBc6oODWBbO7a/9a/+58WZ6ftbo+vpsHqcFusdoYmksnUg6tfXvvkd4uzU+e+/1dv/PX/6K2pAwzE39l+403WyFGpttDb8iFJkiaI0aEnX/3+X2bHBikcCyNLUhr+Ut+25/z3//rCD37u9nqBqeePgoYHyKCdnLRiXMZSchCispi9TTdkXtBYSwMDQIoZMlEILBpKCot2l2x2hs9TQ9CwVrsDsLCupZsXeL2Emqrt6f7VLz78t/+8NDe158iZM2/+tKXrAEUQ8kqA6Hbf5utWsSgHpbfGCEgcaEREQ6HB+9f7715LxqOcYJHSKZKmuw6cABQ8fP51j9eronV9sWg70+k23PVO1dcusv+2uNVkdrGYPkJTyk8ULTSR43ngh7KqsgwNkD8+2Hfl41+PPLpdWd988Qd/u+/oGdDbOHYfFLOZU2MEjMA0AxI+7n9w55sP49EwkMNkPCZYbPuOXzgHKHjuVbvDKeOqPqo5XaaYQLjGah+9qPl9qCjW0e2Yzm1KpSDy9BeiZdKhNwUMLS5e/uBX96985q6sOf7S2wdOveLy+kRZzayR0cZ5KTtFscrjBtaF1iY6Fos+vP5l/92rCk6ZV21Od++Jly79+Bc9R88KFl6UlI3JvSETs7MpE0ZeaDP/Mc8TN34ayoMRbtH6iApT4PkOsfRCeoy22m6l9dFWpz3fRHuWoSKRyO1vPrrz7UeR4NKxl95+6d2/r2tuxQbRbEvR5mmapqyjaVCmlFoymbpz+dO+m98m41GKwr04Tr7yg5d+9PfNnb2cwG1D4ny+KIgMf6ZKVEVuN6Sjsp+3PIBwa1hS+hywSArd6LEVklxfBEa75eNuYZq36i8kM6g8Nzn63Ufvj/bda+89cv6tnzV29IDiVtbMlzDhcOsoSOAWS9g7uDA7dfOLP48+uUdSVFV984lXf3jmjfeaunrhjzLOlFCLSgQJIyJLdraq6U4Nhdh9DkJk8Lamj9CUchUKaApD+udmb3z+h+FHt53eylOvvrv/5EWapmXFmEeZwtVMSb0bfZHOAidGan0utEb3peRdy0AgzVBEWpSH+h9c+/R3/Xe+U2Spfd/Rk6/+8MQr71Q1tMBmsqwiZOYLmlLGwhSZYGQVaXxRF+A7zo0LtNpua1eKnP2FWmY9KaZTD65+fuXD91VFOffWe4fPv25zubVOTGoGZEhqFYdcmQqE9DYR6poH1Nsw6bhEE5RiKEppg6eo5aOKogTnzXIsS9FaO6fMqHaWCGJzKKOFiYYjA/evX/7Lr25/82EiGurcf+LSe784fukdu8Mhy7hBBz6X5WmGcStZuLhjYaJFcA3uONabDsLiTUM5McICC3AXqLp3oNxa1ogLSa4vFlgVI3Amh6113cowtCwp/fdu3vzyz0vz001dvSdffbelq1fVusBSWjNBvZvSsgIjtd/QSoIbleldQWarOHIZqOCzlCgF5iZlWXZVVFtsNiBuK/qdzPQ+zKfdkv5dgFUZIysKLfn9k6MA715frbuyhuN44mlTjXwgdnndiXJuh/v8tcWLDGxeVlBgYfbO1x9d+eg3I323k/Go1e48cuHNk6/90Gqz4asEYI5IBc4FV5FBWmNIKjP5+Hdj/IJE/pa9Usm4K65R1Ni+S7l+fecKbe84EO5sJ4ry5WvFhKyi9ylcZ/z5BM4YdfPokaLRSPDmV3+5e/lTp8d35o33OnqPwse4990yjgAILi7MSGIaGx817IkEF2ORoCzBJ4y3qq66ocVid2LLp14JLAPuWJkvTI/f/OqD/jtXYuFg+76jL//o72qb23HlTIT0VrSUxpq2zN60pg2SJM+ODw3cuz7ef39xbioRiwCiWG3Opo69PcfPt/YcsjtcaOsoqxNN/UIDyKpb0o9Zv8BOsDk0LT25892VT37bf+eqf3pMQ0EH0MHOgydsNpt+zrCZJKPJwUejfXeDi3Nau+OO3lMv2e32tCTvKAoaXM/FsL6DJU4Hy4J1FuHmMX2EppSfcAydTKcf3/jm0Y2vVUXqOnCyo/cYgNzU6JNkLCqmU9HQkiSmpHQqMD8rYdijAR8A7qKhQDwalmUR0A7g88CpVw6efc3h9gIOadwx010ouLRw+9tPvvjtfx0feBgLxxZmJroOnaxqaGHpTI/Z4NIiHI4XLA6Pj+MtOT5uNOyaBIBJP7713dVPftt389vxwYcUSTm8vnQiLksi4O789DjL8h37jwKo5NIlCoMy/XSREwmHwkt+mmHdFVUsL8Dp5ISmy0SQZbC9VpSUgcf3B+5eu/31X/puX6ZwRytOTDN2l/fIxTfbeg7oi43ZqYm5yaHZsWFAwbH++9HgIhy3prEtEl46dPoVT3U9Qsj0HZpSFsJss6Vte1nitnNSw6vMbGId3dahGTKbedfq00xuWuyK9uvk0OMrH77vnxrx+GoYlu2/ezURC0+PDkSDS8Bd5qdGY6EAhXujP3M0chk9YDokSUxEww1te+wuD0CUouIkfa3RITE90n/jiz/5p8cBARxuB0AmEEeSoNKpZCwSXpidHHpwc2ZsoKqu+dild0D1E4jYWOOTmGPhPQcDi09uXwGIfXTzG6enovvQKTgEIPfS7GQ6mVhamH1y+/Lh86+37j3IstyGKIgBW/cyJpOpWDiQiIZCgcW5iaGZsSFA6J4jZzoPnAAOp7cm3pgIUlQGTdOiFFyYG350+8pH7/fdugzHr2nqUFUlsuS32p1AB/eduMjzwuzkOHBEOIWH176EC5GKRwF0AQVlMQ0wnEolXN4qX10j7nasKIWs6JFBz1CRTY9bGcC220XLmjZuGw9mtut0SKMuutEmPqKIvi6jZ2FnUynWPaEtHj8PfyEu7oUIRVYkVQHY8E+O3vj8j4MPbwD/g00e3vi6784VVZGBVOFipFoMjNXh1GJlyOyjkZpomygCQWB40xxycFMBFsCGkqymErGRx3cm+u+LqaTWcF3w1TW5KqoDCzND968PPrgJVGlxbiocXGjrOdx95Gxdc7uqrquPdG+bzo2AaH71h3+9+vFvxwYeON0Vxy6+1br38ORw362vPpDENIApEC+npxJQhOMF3Z25FgUkdUcg7DAtycB9x57ce3D1i+FHd8IBP4w5lUxYrLZ4JFTX2mV3OJQNDIWk1khCe6LwicejI313YHj3vvssHg44K6r2Hj3vqaq9+cWfYM/tvcf2n3qZpphb33z63Yfvw5ZwCJhwWRRtTo+3ph7mbXF2klSpjRZcqJhKsPRcg8bA8LZ9t9QjjIp4WU3TaHF4obGk0DimbnQEaT6BM1s9J9DWLEOFgoGJ/geTI08mBx75Z8aW5qZj4SDuAyvLADa8xer2VftqGhzuCsFig/d2l5eimecfHoqmErFocH4GULC5ez+AHKmhJbDHaCz26PrXD658BlwnHg2RemQqRU0N9/36P//voPQXZ6eCC7PhwIIiS8l4DDicYLPpgSHrjJzUiWA4HBx+eOvRzW9vffUXoJt2p7umqR32c/+7T/0zEwAzkpSGg+05fOaVd/8eRgUUbb1Ofnq4qYpp6yAQsoH7N+YnR4CkRgILGE0BHVOpmoYmm8MFIE5s6CujsFkVX4VgINB3+/LjG1+P9t0bH3gAaHr43BsX3vk5TTNXP/0tdv5xAnA+ONDgvWvjg4+mh5/AOsDlrWztOQi8s7alC/Z747M/zk0Mw+TXt3ZXVNWh56dlJ1CwtCJFkdF6xhQTCE15EQRwS1GU8cH+e1c/f3Tty+nRwcWZCTGdZFjW5nQfPPVK8579dleF1eFyenzuimoAAF6w2t1enmM2UEehpSXearNaBP2TpQU/MDPAqruXP310/QuSYhraukGPL85NAgwszU09vHaN5QlXRZXV7rDanWIqAYjbeeC4y1NJPqeSKM0nqR9oZmJ0fPDh6OO7w49uwSGiwSWaYQBUAAWnRp6EFmZlWXF6K+BwTd0HgCMePH3J6nCo6mo6uGJcFUUJgHms/wHMCBDB6ZEBAGPB6mAFAc7IW1nb1L1/37FzPUfPAaVT11LEemog3pWkzowNzYwNjj65C5jaf+cKzXDtvUd6T758/KXvubzVlz96/9GNr2FNADMaXpy/8fkfAMWBdze09xy+8HpTZ29jR0/7viN2tw9nVsQiMGZgtHuPnatuaFKXA4toJuNZRRrvRGYlUlN2BxAW2JKp3N2EO2sdJXY6lcKQCNLcZwPHWIri2JP71z/5/eTgQ06wWuwOoHCAJk2d+976+/9l//FzSiZvbSVPAg9GktEGhwWkJHV7YCI+MzH0+PpXNz7/I5AhimGB37TuOdS29xCQzdG+u4CCutXUYnNWN7YgFT289lU8HOw+fObEKz+w2OzZORVaNAyma7FoJBpampscvXfls9tf/mUR7wTbaWmWBeaHWxelk7xgqWnqsLm89a2dXQdPHDj1Sm1TB2yjx6au4B+txYEirc5naGF+rP/+7a8/vH/ls1g07HB7e09erGvpjIaDQw9vxSMBwWbfd+x874mLAIpA7OAQAHuqVmQHD4/FhmA462AwEMYOxWHAv3tXPl+cGQNsrm/b07n/xKnX391/+hVCkT//7X/7+k//moxFADclMbU0P8VyQk1zR21T+97jFw6eebWhbQ/PswpCw4/vXfnw1yOPb1dU1x++8Maew6cdTrekIlqrR5OMJ6KhRSmVhgtnc7hhBozvrFicSNEC6d6OOzjRtpzm9k3oFo+/pYEyxQcOg/dblKCP0s/2R6ViHV3fRloUfyHwB4AQX21jS/d+YGN2p3e0/954/7yvtfvoS9/H1dQwAyM1HCSXswR1VNzoQdDT2WVJfHL78p/+2/81MfgonYwDlQQideK1d7v2H7c7PVrX9bgsSXoGP03TFosw8OD245vfAj619x7rOXYOaBhu84T3hjeC9yDBhZkHV74AZAUKmEzEZFGsbmgFGAgtzmnmXBWgCw6B/Y9OV1Pn/sb2PfBXODogB4B6pl7AcqqiouF8cGHu4fWvrn7yWwDCVDyGaVnbnuOv/ODoxTeBBT6+9Q2w5KH7N+bGhz/7zT/d++6zqvrmzv3Hug6f9lbWLGdM4kufTKVnxgZuf/XBg2tfLsxOphIxWApY7M59xy+c+d5PO3qPeSt8CkHeuvzJtc9+Nzcxovln8cLC6vS07jkInHXPkbMVNfXAEfV0+/nJsW//9G8D967BIPedevm1v/qPVfVNOumTNRfm4P0bt7/6S2hx/siF7x176fvuymqkrptzUiIWUeNNj2VYtAyV1AQWGdZN06hRrChXtDEEc9fBj5z7PRgR3GpUz8KNv6YqCmjihva9b/61N7AwP9J3b3zoEVKVqoaWg6dfdQLzAKBQ131IyLV3rBXGpCgAwvmpscF711VVOXrxrd6TLwES1Ld3Wy2WzIZud/bXJFmJhgLwLaBugMEWgdemkdItjYl0GqCo/84VwL+pwUeTQ32RYNRXV3X80g9Ov/bjVDJ2+YNf9d+9koqGnR7fsZffxvkYHGuxuVgc3UoouFaZsqroTDQa1Wy2N0ce353A+3wUj0YaO/eeeePHvSdfburY56uqhs0Onn6FF2wPWvcAdZ6bHJka7mNZ7vGtb8/7Z0+++sPK2nrYXzKRGu2/+/jGN4MPbo73PwA6KMtiQ1vPwTOXeo6c7dh/DCaZ5xiYmL7rX33+m38efHBLCzsiSEQBBB596a29x87Xt3Q63G6d9cICAKje3e8+vf75HxdnJ49e/N7L7/5dY2sn/FXB/UD8Qw9vPLr+1fCDW2P9D+C8YCkDTLg4qm5nURAVSW2jAsZn+g+Lbho1xZTtW3NoD7zN6XJ73HZ35ZWPfhOYn65qaO06eLKyrgmXFd04cXvDPVMU3dTV+9bf/c+CxQpavmXPQavVAsd72r9pBVC1emPTo0NAfcRUqq65s6KqTv9TPBKGIS3MjE2NDvTdugzkLBpc8tU0AF+srG2sa+3ad/Klrv1H47EYsLqxJ/eAG81PjT66+Q1BUi17enUUxEZgkqC19zgXMLAQWppfmpsBuJoYfAgH9U+PA3y29hyqb+vuPHDyyPnXq+saCW2oNEM5nG5YFtQ0ts2MDcNIFucmR/vuDj28+ckv/wsQTSCO/pmR/jvX+m5923f7u9CS31NZc+j86w1t3QB+AIXwE04csC2VSvXfu/HZr/9p4O7VZCzC8oK7oqr78OljF7/fe/Ki11epHREXEcC96SXp8a3vvvvLr8JL8y17Dlz6yX84eOJCPB4HHjk5/HjsyYOhB9cH7l8D7lfT1AYjh0sGDHiFsptiStkDYYEVswpnRUUpt4Z2gXUUlUS7PdLgL2mFPklQrwAzAf/subf+6tDZ1xmWlTdfF6M1qaFW/wsxHN9z5Mzeo+dWPpPWqR+tJxlEgguAYZKUSiYiM+ODdpcXPpkZHRx5fBuoHgAAJ1jd3qo2rPRP7Tl8prXnAEAOHBkoq81uh0/ufvMxAOFY372F2cn+u9eOXHizpecAz1uW7cBqPBqeGx+aHu0f778/MdiXiIUByawOF+B0295D3YdOde4/Xt3QCqMJBgLTI/2JaLipa19FTQPF0LXNHXWtnQCoyWQKVgxB/+xI350rH/8mlYw/vvntoxtfKbLsqapt33cUDrr/5EudvccFmw3PhIr0BsZTIwOX//LLG1/8KZWIWezO6vrmw+feOPf9v2rs2AcTIOLJwSZNiqbgK8HF2YfXvui/e9XmcAOhtNjsI/0PRx7f6bt5+eH1L5fmpm0ud21TZ3P3/r3HznX0HofVA2exwBgMoy+oRB7LMreLbiFrYvvKqhXIsrd6fGYbdeluK7uNNrWOrm9/LFpOYZEWE7mPIc/AmQ3mRLMVUv6ZqSe3r0SCSyzHN3buBVRgGEZS5Jx3jtY0k2oRnoRmmSSRskEXBS3ZLp1KJ+PAhGbHhz/91T98/cd/jQQXU7GoKKbFVBKQo/fExWMvv93SfdBVUQksk+V5gCXAGNgzxVA1ja2Hz7+OK+AMP05GI09uXwa2BzhHrhQXxR5BWRbTsiSJ6RS89/hqgEsBG2vvPQb80mJzcLwFBgz7vPbp7z76t/+bIqnTb7537q2f1dQ3rlzPZDwKCC3LEszV8KNbAKuwN5phtK4R7/aeuOD2+VjOxgs4v0LVJwdnOxJzkyPTI32qovAWa0v3gfNv/ezkqz+EjeHPqqKuOPZg0uCM5ydHF6bHFa3w9uLs1Ce/+gdYowD6phOxRDzq9tUcOP3ysVfewRXjnG5YIsC31LVyQgpDQeNDVIqixI3dg+HRRmWga4u7V2b7ToTc8akkNweS0ieFzw66wAjSkgqcWW/oWuQkkJUnD65+obm1umsb2zmWwa2W1Gyc2hwLn2eHiqIoSk4TBV92eCoq65qAqwUX5+LRkKThH4BNfXvPiUs/6Dp4smXPwdqmdqvVop+LrAACZoYoKyowp5Ovvetweb/94JdA0QARw4EFpCorag3ewuWwOd21ze379x4GCKlpavdW11VU17u8FVRmP5ktZ0b7hx/eAlKrdQdsrapvpHBkaXy078697z67f+WzaGiRZflYJAjXeP/Jlw+cudTa1VvV2O72eHT8y26fpBUhIKrrW4DLspwFThO4YM+xcx6vV9XCXp7n6KlkLJ1KwtEVWZwaeiymk6ElP8xUU2fv6Td/AvS3saOnpqnDInBIcyjiiUZG4FYJBcjkcDq7hA7u8tYbpo/QlBIXjNTARuYmh8b674P+bdlzoLKuRcOD7Xw4gcyQVQ0tp177ETCbicFHwNkEi93tq66qb2nq2gdkq7F9L8uQ6jr2VUAaiqZr6hrtl37o8PoaO/Ytzo7HIiHAElXjtfBXi9WBywLUNQN3bGzvqW/bY7NZiUxvIyQvEzKkJeZ5q+sBZpbmp6eGn1z+yy8jgQVOsISW5kce3+m//d3i/JTbWwVQWtvc0dS9f8+hU8ApeY7JJPM9PzzAYALBEc+99deAhb7aBhgAL/C6R/C5c1GBX9Y0tnceOOafHluam0ol4nanp6P3WGPH3j2HT+89cbG+pQPYsKziXobmTWxKqWuZQDixjh0ot+9v4VBrfIMsXEcSWx7B1j8qbAbWH2X+p0/mshOyaDOZ48HIvE+SzKKD8D4UWPzTP/+ff/in/8Pm8P7oP/5vF9/5uauiOuM6zP/CbXlkNEOLqfTs+NDok7vA51zeyrrmTgxXToeioOWsDbTxRMNxaYZMp9LzEyOAItFwAGdowJqUZQEFa5s6K2rqGZbJhMKu5Edm7ZZiaKSi4Ue3Pv/tf7315Z9joYAKMA18C0f0sLzFarE5XRWVgGR7jpztOXq2prGNwumJK8Ve0IaTgjMm0Er51HVOh6Zx68SxJ/evffr74Qc3Yf8VuPHE0T1Hz1bXtdAsq1lBN5qNgv2CJRcpatSYtjVYtAiM0MjSrKutOYayx81No0V05+2g8XGHDm14n8KSmdDNbpmC/IWZGxQn1EvTI33+qTHQ/oAW9a3d3soqSVkd2EmgrSHienE0G7FCFXE839C+p6q+WVFkXCOGEzithI1WUDSHRu1a0z7YXBD4+rbuqoZWoIP6t7QiLCx2K2b6JJLqOvl2mJwSRFNn75nXfwxjGn58e2l2KpmIUhTtdPsAmPedvLj36DlfTYPV7gRcpGkS5QLSKysPCpYYQG2VDVQaLEFgy8a2noqf16eTcQ3Ied5qFax2GofSbNQQERWqI3c2cX6nrHc7WFMN7cJJfXbHzM5qSkNujJ1Nri/ktPL/LlrtKSQKK8ZtFFgb6C9coapIURZnJoKLcxRNAw4JFhvOEN/As7flpP5cERHX6tYy6+0Ou/6JlvynbqnZEGwsSwpGHJqyWIXsQ6oY5AhJUjbfBUHwgtDRe8zprQwtzqfiUQBmkqQ4weJweX11TRXVNRmfoprDDlcmAcG8ykROTlM4DQUWAl6fjyB8KxMvK2iDhBZkgNoqSi8HVHB1aqPAeVtLyZR6Ev32AbHpIzSl1EVFaiS0FAsHON6Cmy5x3M6u+3OMr9l0P6qiqAXsR5EVi83e1r2PgNdzegMDUvGregJqGjEVppiyw1IoEBaYM4Z2UzpFUalrnnRy842o5WZ0+ssQIbPOe/mF9O5Iebhg4WvJeDSViAP/sLm8vMW6+SIxy0yqVSujcDKf5rXKhRquxw7J5b59uZwEzsxTVMM605KZBoQrh4azwfXcVOK5S6wdU0vPp3fo6cJE+TleiHtd0JqP1LgnILtXFVIz/225+1DhzYq2gcG8GL0mUGHzmPccMYajXDnMs/HJ9TteiTvv/Si4ArSkYwBJLne7M2I05HLRTO1/VAaQlmFxq3iIq1FLYiy8lEokMtcQ5XrBVaRuvTXbGqAIHE6RMnCuFwNdp4KbfiWMmkpCb0AI7EvOVFPFE6jXYltXAyBCEkVRVZcdkJS2E1SQoskZAnCROJJa9SVVkWQJLc8eldPcoJX5RGvgwrOTnLl5tTlZ8VBueqeVQtZg4fspWowMsQvzElERGCFRZlVmdpoXGp5fjzZNK1z3Y6wyEOGfHpkYeBhe8idjEdzrB7dHMGA2cYQ9zbgqKm12F24PVF3nrayzWAWs0LWUshyxEGnjtLu8dqcnvDAf8M+O9t2pb2m3eyq15rTqZnwSialUcHFOVWRfXSMnWNSt2/K0fHMgg6R/cnzw/nXYG2AMbmbEMGtOLByLopnWPQdb9hyw2By5qOONhWUoSVJHHt2ZGHwYi4ZUVYGDt+872rb3EC9Yn98/w1DJRGLw/o2hh7f802O4gwTDwmsblJpWTZQ88+ZPjl14Q0GEbkQGJiiJ6ZnxoenhJ8GF2XQqwTAczRSkfJCqkjRltbscbi/LCzhQyFvpq2mwu9y0FqGlM2a0/uVGRqDHdrgGy4QLll01GYOB0JSyFli8c7zAsFwk4B9+dDu4MEOzHG48tJqU4JhJMZ2UcfdXdeOCaFrDApLheHdltcPltdic8MZdUe3yVnmrG2qa2qobm+AAkqKFZmysWFUEGrN1z+G+hm9GHt2OBBYf3/i6sWNf78lqGNJ63Wt1wc0cFHVmfPDJ7csASJ6qWoYicVZbfuFJGhrCSRG4kMrExOCj0OIczvWnGa1LxNNNQemzPP/SO39b09SOgRBHYebpSYNFyf/P3pt2x3Gc6YKRVVk79n3fCQIE91XcKUqUKKktybbk9tbuvt0+9/acOfece+bLnDnzE+ZLzz3zobvv9PX05qVt2bIlS9ZGkZK47wRBgARAYiGx70ABtWRVTEQWCRaAWjKrIiIjq+I1bJNEVWRkZOT7xPOuGAUDga5r589//Ou+u9e8S4sFxaXte4+iZVllXTFVEpqYw+VCHxt/MoBA0b+y4nA6JWkDlZYQ1Vb8viCGDJjsXJFMAn6A5lRW3bD/xGlspAxFn7usdqcTgSJavd4715YX5zCKPz11wehbDiloPishlT/GO5YhIEQ36MnLzysosbtcCFnzS8qLy6sLSsoKSioLSso9eYXoHJafl4dnFcJsPtmxSUj2ilFAaGy5NSpVZgwzJKdagzTSIrWksq68pkkJBob7uiyyfP3cRzMTI5FTfLRaDEPM8HILi/MKSyI5ZLGVphShBUrQ7wv4fZNPBocedIUUxJ9khBiu3Pyaprb2PUe3HjhRVd/k9OTbHDjhLBw/rCMcgui6je07Wncc6Ll5EQ3rW1n2+bxa1tpqlQL+QPf1ry98/F795m3bXjiZi9RiBLX0pnPg4meh4orq4sqaFe/iYE+n0/1x56Uvxh8/Qhr2KbmBq2DgQ9RzeWlBXWFJSvWsin1qFrDiXeq6fuGL937WdeXc0sJcaVV9y7a9R15/t37TNoQtG/vcIsRWQiEE2Jt3vdC+97B/ebnn9sWzv/2Xrqvn0FAqfErrnqwTHVUKS9CcI7brdDZjMOiXgKW8thFGpX6gpUP3UtWwqaa5LehfQTwVPcbOS2cWZ6cssebjcLgQvXO43Gg+scm0uqaIeaMzx9z0ONpuavW75YB/2e50V9Q21zS3o4WqrG9paNuBAFItTYdOMFYcoJRiDBG/NUV5yB3k4bZoAiEN7U5hzMywjgJCbXtBXANpjN+oeWOS3emo3bT15bwCT37Rmff+5/zUWHitFyfg8yEUPHT63T0nXvfkFMTz80W8WUvzM5Ojg5NPhnAZsK4bE08ehZUQUluhuen+rusjA723z3+yZd/xvSfeqGvdZnfaIYzrNcTaFFpcHs/2gy8hOjj8sKdt90GEpknVGa5sCcHMxOj9W5fu3bgYhqHBB515hcVI3eO6zzqTDldvD0GTJzd/0/Z95dUNlXVNH//i78cG+/AaRi0WfFqRLV2mbrGApYWFy5+/f+6DXwz23PH7lovKq/a//OYr7/60or4JEaxI6c5411IPH8CT49l+4HhFdcMffvZ3Fz75TSSQRnrW5wn9NejzN2ze/ur3/0vjlp2yzY7L3KTTD0n1AebkF+IK3THuSHK43Zu278/JK0Loe+GTX4eDQWixRu80hGeV9Zte/fP/vGnbPpvDGW0zgFHbDJ0A0Ilkeuzx7OTYwuzk5MjAk/77iPv6l72jg33T449lmwOBX1F59Za9R9v3HqtuaEUbGNN3SyR0C6avlFl4B7PGLsoICiFNRpiqEjcwfBRqYoAMcwrTWgdNNUhBPBOTEg7jNkM2e21Dk//YaxPDD2+f/3Rpcc5mc6zZK7KtuKIGHbFddlsSeyYAtZu2rKhd2idHh/vvXuu6cna4rzsY8KGz+9zU6PzM+NT4k9HB3n0vfmv38dN5eXm++IW4sNYKhSsbNr30zl/jei4l5UWlleuAc+PNIhBYXFi4d/0bhLswrMyMP7lz8Yvqxs01DU1hnPwOU3hmq2uFzg3l1TU7j7w6MtSPFPf89LhFfu5bxfZS3NReWkVEvcn7aoAlmJ4Yv/jJe+f/9Jv+u9fRGAio0EFk/4nXK+ubcYJEMJQYbhGk4bRHNFvZVtPQgo4dEyODaCjEo1R/4bOPhUMIk3AltsZNpN4utAECAWXdraoxrnj1nE5HY1vHgZffnpkceYBYfiCA29ZHidON59O4eUviq6BTwMqmDt+yFx0RlpfmF+dmRgce9N65iu5xdKgvqNYZnx5/Mjsxeu/a+eqGTdsPv4xAMb+wMKjAUFghrE6hMaqeWu4gZKyO07x0mtO1/u//x/+Z7KXUfFzWcbJO+KeURD8j1FxejWzRtWQTJVJ3Lf44UgItj704Lk84FBp4cGd2cjQaCJH2dLg8LVv3VtQ1W20uJRQKKojihWP+hMMQfdeTl1dUWl7TuKmycTNiAErAj3ARqSeb3YEU8dLC7Phw//zMhMudi4iOK9IPKC4vhAiGC4qLyytrPPkFCGtAEiDE7QNH1B4RQ71duGFTMIC4Qm1Le3ltY4x4Tp2LHsZrhbPXHU73cH83uhF0jFgdUy06Y2vu2NPcsduVkydF4W5iIIz4Ia02hKPg8cPec3/4968//MXD7pt2u7N9z5Hjb/34yGvvlFZUB3E9tZAeHYEroObk5S/Nz/XeuaYihC36yZZU1iKOm19SIVnkIHquoXAKP2s2gFr7Jv7q4SeA5rOytKg6L71yFBCiJ1VUVoXmU1BaJVltQTyhcDDONkM3glATDYV2WlVNQ2Vje1l1fbFaUiewsuxbXkJbGhHH0aFeBI1zUxPoIIWWw51b4HS7JaAalrMif0tImqZR8wiNVD2TTTTthoWKEnK7PdXNbUh9h9PIlFY9apg7RZR/UVnFodPvFJdXy3bHnYufIQhVaYFbUYKPem5/8dufSRYL4iuqjyqujRSpPZzl8Wz8RHelJhasrPgG7t8Z6LntXZx35+QGfL6p0eH7Ny/VtnSU1zUCHE4Yin2e1PZkEFw47La61o6C4rLQ0zgTLasPk5hDrZagPzA62IdQEP0szEy6PLnte46e/PZPth96yePxxKyCnQS2IXoSUmFJWWl1nWSRwhQS7fXZGXGFHphfWFRW04CobzhZWQGYwAyr+vxW1122OZq37qlv27F55wuXa35//dwfJx4/UoJBhIvo6Ty4ffnhvRt9t68ceeP7HftP5BeXSJKsKEq6dwYp64rstIsyBsLkliEacS1xC1Oyp+MG5RTSSKXQOk7c3yCd4rRbcwuKEZ+DaavLZ/oahhXJ7rC17T604l1YXpzt67yG6BmiUFZZDgWCD+/dvPCn3yBV1bH/uMPpCAaUuPPW1obNig2L0sP+7s5LX6IrqmxDQtdCuNt943xD+w7c2NYixS0kpg0UI5Nxujx4/IgFNL3HJqkOSL/Ph9bn3Ac/v/XNp4uzU4hx7jj08snv/FX7nsNut1ut5gZTUVQqXXXgowZJzQ3T2BvqfNzRdDnFS0R9PxIIZbPJVU1tr/24Gh1TPv3lPz7qvhUOKWpgUSjgW+m6em5xbnpxbmbfS28Wl1dIoQQT4No1mDG5g5DZFCATRkihM3lqrzwHRyQ+Ikj1Bs484yVWsouICBNS4Da7vHX/sdmJsSePHvgmRlVbosVqswUDgZ6b5xFfbNqyy+UqTXf51AI5ihJ+2HUDqTycyYBLskErYh4w/PhRT/f18y3b9pZW1WEukpT1JgdFSKR2jJomYfX5/V1Xvjrzu3++e/ncwuxkUXn1gZfeOvTaOy1b9zidTkQFwynXZFvNTIe0VQqZUWBKk8UUUS3kapHlwoLC3cdOWyT5s//4x97OK+h3OJkSAL9veaDnthIMLC3OHnzl29WNrWi3xNoJ2vSzWSJFTcMFoSFLIfIIhWzYWOEw8Q2Oxgz4w7m5eQiEqhtalxfmEDpGKm7ZHbh57KOem8O9Xe7cA7LsSJwdmGRDWy1o7g/v3bp37au5qXG1JJrlKdQAKej33b99qe5Cx4m3fuJ2Ofyh9BUBgYWSEQYCMD093nnx7MVPfnvn4hfLS/PVjZv3nvzW8Td/VN+6FU09qN8iSmm2RNUorfmEFWVFwXXJdx59JeBfCQR86GBkgVa0HxCJR2ev4f57K8teq1U+9q0fFZRW4H4bIZFlmL1i0Wx/YHGqgQacdKCmObAtHgjTrNOvNQaL9WIjTZOTX9TQtiOnoCgcCq7+O9JH89OTPTcvzk9PWWVL6lOTJKtFWl5auHb2w/s3L9lsdjTyGtZld4wN9XVePDM7MRKJYNS9sDBVthJHcGIfRsGpS5+8/8d/+39ufvMpOjQ0tu089q0fnnr3p7UtOHJSCSq6MYPCVAH58ehKMBiSZfuuo6f3HH8jt6hErXeLjcuyzSbLtpmx4atfYD/iMq68Y40ukRtPBxCkg6xTJnTkDhptF6UxhWRjWjgg7ITvm9YpE+qu96PFvQGIdy6N9WUCWCg9W9s0phWGwOH2lFbVO9250cYoBFdIGaFD+tL8nCUNpYsopt8fHOrt6uu8hssCrK8jjitR4lpfjx50XT03PzermsoMNFGpddsAGBseOPPez8789p+H7t+1WKTqps2nf/i/vPr9v62oa8LZkFrst5AW8hHGv/UzpKtzI3Xe3bm57XuOdOw7bnM6Iz2QgVqsAP0M9Ny+/Nn7j/vuBYMK+muCKUFySgvy4R3kUtMadmcWU53wmB5KOJ2Z4bs/rRAJgDhZfnGZ3emKDsaxyraVpYXH/T3ehdkY+lLz9WwWsDg/23npzPjww8jxHyPN2jpkss0xOzV+49zH02NPLE8rAFB+hDHxCU1Lttqs0uP+7j/94u+/+uDnAw/uoGXZcejlN/7iv75w6u3CoiJc/Cyk4NRvCBL90J8+6d3MSOeg/Ya9f6Fww6b2PcfeyC8sBc+bJ0sWq4x+i1DwxrmPZidG7DaJwZvFj2KB/M7OABE+QiEMXz+ISZvaM90K1zKjQMA3Pz0e8K2kwa8QbITGh/u7rn41Nz2O4LakvAYR0MmRwYWZqdUSz7JsC/i8ambFnar6JtnuShq4SFwJ4XR5q+T3Bx4+6Pz6w19e+OS9mYknnrxChIIn3v6Ljr1HnC5XIBhKoWuVkA1bDqdYuN3uhrbtLVv3opPWsndRfpZG6XTlrHgX0clp886DpeWVaq03KUsaHglZxwg1H9LougkhwesktDimd3Yj37iGURoOTBQqrfuuUp6ymg4YWJ/KBsNIN7ly8qw2e+wlTMZ+cGUc2TozNXn/5sXRwd7lxbmK2uYjb3z/0Ol3i8oqgwHf6pfVoBnL8tJC55WzA73dMq6BamX3wj1DweUlb/fVbz785/9+7g//vjg3XVJRu+fY6y9++yfbX3jJvoqCBp3RCbPN9bZQRlxwTRn0MMgpKNp++FRhaWUw6rCFTmCKEpgaHe7rvDYx+sSytlQea6KkQW3p77VIpQ09INRrAm78mxGl2iBxHyEwq6WV4qzTxEJuA2dSeBMsFoBQcHF2Kuj3R/XSw/kVLk9uVUOrOzc/iSqNc1GcQi+Bod6uzstnfd5Fq1Wubmw9cOrtnUdeKa1usFhlGFUmHOcvKsr9mxf6Oq+GwkCysNtn6jylpcXFO5e+/OBf/+9b33yKOEpBcfmxN37w5l/9t637jlllS1gJG0JKqJhaoQGKYePiKUrIk5fbtGVXfnG5moLy/BNoqyhBf9/dK8P93erjsSZ5+4wLkKFvBTef1ibOCKGOd4UWBkGyd0j6zGLkhuErcCZV5o2wSvH7ZydG/D6vFAWE4RAud1lW0+DKyYVJyGsMhS0h5QXh/OxM391rj+7dhDBc07ylqWN3eWVVcUV16/YDCGLVOmDhZ3hsBRKYmxzr77qO1J8SDFpkKwOPG25gKFtmJ8cvfPTrP/7Lf++5fn5pca66qe3kd/7y+Fs/btqy3e6wK0GFRuUXQ0EVJjavEK7VEdP3FQ6j80d+UVlNS3tRWVV0kXerbEO/Hei5Pdx7F2Hk2uLpxLSfMfSAjhuQgr0NUlSt2sa0ACFC2JAhVcXMTDzpv3t9cW46utxlwL9id7nqNm/LLSgOhXXbaWUceik9vHerr/Pawuwk4pdb9h7dvOsQGkmySDsOvrhl31GcUB8FMJFm5kj93bnwuRIM2SzUfXF2O+4FMTLQ//VHv/z8N/909/JZ/4p307b9p9756fFv/ai6eTNSLoGAIvYJJUGbwSLL1Q2tJZW1MKpHVMRDvDQ/MzrQOzUyFAopG5txCsl4sVBiO+Z0N1O0jqaZSkH8AEawtJKWWeN+7nZ5dmqy6+pXfV3Xcc/0SIafWpUU/baspgmhQm5B0Wo2PUyU5xRFDTHYgRXvYve1bxCw2eyO4oqatt2Hqhtbg9jGCKobN6G/llbXo8+t9vTB9cxk28STwe7r38yMP47OKSQej6nmL+Kbffyo79wH//75r/9p4P7tnILC1h0vvPzOXx//1g9Lq+phGCIumAkaBSY3h0JqebkJtiICPovFUlhWlVtYuq7tFw7gtTnmpsYeP+xRgoGIz5hpBRmD7aLmc2eRmvHqODJlQ4WeGUnkzSb6K65Rac8Udxw9M063bJuOVk2Q4Dqr1MuCfvzLvjsXz1w784EPt4eN0EEYCodAOFy/aduuI6+UVtZaLEAJhrWt9NPfWGWr3xcc7u3qu3tt4slAeW3TgZffbtm6126z+gO4DxG0WOpatm49cGJ+emJxfvZZij2elOJfefKw5+bXnzjd3y0qrwgGQ+tU0saF0PsI1LvHfxi43/Xl7//12pd/nHwy6HR7tuw9fvoHf9u264DD6QmrmR4MzncJn6uacymlWg4eRmtzdsUjtUMJOmogqldQWpFbULI+SFh9SMtLiwszU+FQCDcsJDp1Y1yDdNotETmr85evBuVUFK42lZxq6VHjwDht8GbDWCVycyZ4BzGbakgWiyxbZQnMzy8gDPjqg39DwAPU3ofot0oggChbRU3T4de+t+/kmy5PjqKEdN44tFnB/NTsnUtnxob6Q0qwqKxq97HTZdW1kb6wuPFsMFRRXbvj0KmuK+cW52dwuedns0TTmJ0av3Lmg4a2HaXlFYqG9xHqOpniCqISorgIa7/+6NeIfc5Ojnly83ccPvXit3/Ssf+4zSrhBrbkUDDVgjySxYr/g23MGg2D0prrqbbG8POe9JyhYGSG6D6d7hy707W+h5cq3oW52cnRUEhZs4ehMU8km8xx1JLooY7fizxCITog1GZ3IFXitCOOY4HJlCSSgAKnx0fGhh723r5y7eyHj/vuRfSREgwEAwG709nQsmX/S2+98MrbpVXVau1jnZCg5g6O4dzBc3NTYyWVdU3tO6vqW+0227NOv/iCTqezuqmtqWM3wiF08FfLcKu7X7b5V5afPOx+1HO7YfM2pycXqK3PiawXtgbLNkQz7t+88sl//NPdK2cR8OcVluw7+WcvvvWTpq27kcL1c+AURBiAaJBv2bu8tICeb3RH+ORaBK6eeCR0s0wTUXSDJUSTzMkrUFsyxVgE//KSd2EWM0Lxrmef8ASEsegJJGEdBfrsPZrbM1HikMnsuZA0KdTCMhFnQOf9RUSgHj/05hZCXKEj/ofVgkUB3/L0+ONH3bcRFeu/ez3gX1HTGHBvPKfLU1hWVdPcvvfE67uOvlZUVhYMJC+nuW6qmMbI1pmJ0fu3Lo4N9q14F9t3H955+FWk6UJwzW0qalva3cdeQ3y09841m822usKIsSJURlyttmXLtgMvYtssCSBUTYwSmttwb9f5P/26v+s6DIVkm83p8aC7rmxoQRcKc1CgRFLzB5bmZ+/fvDg3PYFDKHUBIQ5CgRZJcucV1G3qKKuqDa9tFGU4EYz6cNhqseUVFnryCmLsNASE6Ey0tLDGRk3PIqr5BigHbbC2ixpgNE8VCLH+0NSkUNJ624b3ZiK4k6S0Z6ppTZKhN0N/4bONIttDSuDu5S8REMo2R8Kqo7gfoH/FizBzaW5mxbu04l0IrCyrjSBwWEJOfmHz1r1bD5xo2rKnrLrenZsfCuloZrT6OdzG1gKG+u6pfQeXXJ6c+s3bNm3fj1jrUxPrs9sMKSGPx9O2+9DtC58PR1jp0w59GAYQDb1/61J967bW7fsRUKVfaCaSl70wO3X5i/dvff3JxMhgKBiMuEWX5mfOf/wfVpv90KvvuHNzJYvF4GQJSZLtjpmJka8//AWeoaS7rkqki0h14+ZXv/9fKmsbcMBKSGGg2VJ7RDF9oM9Mo7Ozk6PhsGI1NQqaqXIapPgdrXZRyB8jBBQb9hKJmiGL9jQmTY+tRpLQH3XfenjvRmKcUB1OCF0UdMAGuNK/3WZ3yKo1Eh3Ga5ra2nYd2n74VP3mrU6bHMYtAsKqY0bfneI+qxDOz8wgrqlOKYzAFcedFhZimAvD5w8Gqh4sScrJK9q86+Dg/U70g+NC1KiZSFVrBNgD9+8M9nY1b9lptdlCSlr9mdBaoQt2XfkKcc2Z8SfY+SbbJRVjggE/oshKUPH7VvYef70MJ/tLyctq0xSLxer3LSMMUEm57h2nKABXr5Ok5aV5dQNJtNVuGqcUfH/xdi86rAQDPhbF9lgFhxMEIVoxMtygtPARCtF48Ffsdmdd6zbE4TAjjLl/sYMNBrCJaX5lccG7OD83OepdnAsGArJNtuCgGaSGAPr1yKP7iCYWlVaVVjc4HLJkQXQzqG/jylYEV/33bvV2Xl2cm/Hk5m/bf6Jl2x61z06M1yuoYDxsR0DYfWfoAU6dXg0KwRE9Nvtw771b33xaVd9SWFQUIvHOI1BAJwCH24Pg8OmZBkeqWgGUnjzsOfPezxamJ468/v361jaIi5uEjGoWqAT9haWVO4+8kl9UikAxkck7ZrhfKCxZLUVl1RV1LaFQOGzeQp1q8T0g6oxmpcipkyHNTAia1ToKSZhC07u9hNkUgKizMPHhDFEZd07+vpNvHn79e7n5xfB5Ff81mgThkHdhbmZyZGbs8cSTwcH7d0YGHsxPTyyrcLg4N9175zL6sTmcJZW1W/Yc2XbwpdqWjvzCYhnzMO1d93Du4BLOHfx6oPuWw+kqq2lo7thbWlUToTUb7wmGEPJZK6rrWnce7Lr61ZOB+4oSjBRfVnMK5cnRoZ4b5/eeeD2voMBiQTeSukZEN2JzyFv2Hi2va+q+fr6388rywjzixGqmNrYbo1WaGH547vf/pgQCR7/1g8r6TQ63M4xLyrA2k6IFD/h9pVV1p3/wt5t2HMDBMoqSAPUSKwNFCdGfMC26ZMHRTTYiNCX9XoNcuQYNZ6/U6C7UxAgNwyJecgr1LAukk1ZIe5BYSx3/5cFpDw6n22G3wPhRozZHWU5+YVX9JoR8B156e2p8+MHty3cvnUGgiFhgGIbVbvU+/4p3ZvwJ+hXCwv0vvVnbvAVBhMZIDTV30I84XH/X9cmRwbKaph2HTlU2tkpq7Ea85Eh03RC0tmzbe+Dltz/51T/MT4+vdiFQ/YLh6bHh7mvfFJZVFpdXhjfkFGoXjGcQ5hYUo3NDY9uOj34Oeq5fQLwQSk8zNxDQQovVuzj71Qc/nx5/fPztn2zZc9jpdsEgNIAXQmixWNDRBP0HAbVsl/Vun8ieUYN+Q9TmSFPnqk5jp9vjyS+0Ik7MUruTGoSmazDDcgehZkZInu5xklNIJIKU4E3yGTgTj4ShjypBv9/nRWC4rjbHWl6oJg7YbZ5cjxUUllRVV9Q2ITy4+fWfbn718cTIoM3uRJo3FFIWZqYQR5ybnliYnjh0+p3WXQdtdlswkNxGarNKc1NznWruoIJzByt3HD5VXFGJS8lEbXRpAxIGg7CkrLxj//E7l84gkgrDIemZhdRudyzOTl//6uOmjt1l5ZVKeu8pxgYJuHPzt+w7gjCmqKz61jefzE6OWXFapQ39WvUjWhbnp29+80kg4Av4VnYcOunxeALsbaQqjw/60NHEH8UIDWhFw4AFhjBaK9LaX6jFAKDLk5tXUCxZZUhUw+q9E5oBJCl9msqTNix3MN5HhY9QCHG1hQtcgxBQnuFiUVmZ+lPldOdc+fz9ySeDoXDIKtutLtwZFfGwS5/9DuGZK7egtnmz1WoJJc4mjOo7OD81XlJZ19i+s7pps8Ph8PuDSSeH2FhZdX3HvqNTo0Pox+HyPGOZNoRGw333+jqv1W7akpNXFCGvqa9DOIxYb0FRUcfuF9w5ue7cvBvn/jQ62ItWJ3KSQCvjyskLrCx3XfkqFFT8y95dR18uLCpRIMiQcms8iUUN0F1enF9eWohxrISIEeYgRog+JryE2bg9+Dn3MWP66c/GgNp8CQ9mBOZDL5ANhgN+BHPhyobW42/9+NDpd3OLSlQbWlhVT1ZEEL2LmN6d/+OvJkaGEWVKCIIWWZanJyfv37o4Oti37F1saNu+8/Ar7pz8MNS0LIhxefLytx14saphU4QKPH8Z1JzCO5e+6L5+AYGg1UKgJH0wiLsq1bV2nHr3b45/64fVja0Ry/CzdoMQgSJajZ6bFz791T988/FvJsZGEZOVbbIkSQbtc5jYFwjNQQfXTxMnwuJT1+P56clIwkT0NSKMMLegxGK1pnZFmPQ22BJ9SEdPEHgShmpzmBIQQurLYYSGJrUhSZUThoTmDZk+Iahn4jCkus2q6hp2Hn110/YDiB6tBmXgmtQ2O9JQV8784VH3zUBQkdbpqWh1puYODvfevXv5rG950enJrW/dvmkHzh0MxS/PFq2+0cfsDntNy5bmrXuLy6pBVJ1Pq1VGf3lw63LXlbMLc1NovS2RupPpKZBI6bHy6rrDr3/vpXf+prZ1aziSdv7M6I3NpOHQcH/3J7/4+z/8f3838qhPjTCVWCgADZ+ABuFfGtgBY+6cUCg8MzmyMDu5boOp5eHCOflFxeU1al4p6fdGc4AMEbsoJNfGjgJ2Q7phMqnOwULiMdM+SDAqVEHsJqliYTJqyMNpL+bMQ2qedXlNU8e+Y/nF5cFgYPWXkWi9+amxge4706NP1CLdUkxdhsZZmJ3uv3vtYdcNtBItW/du2r4vt7AYREJUNE0X2zudbk/7niOITYbUGI9VSMYVRnzLAz23e29fDvh8aoMnGAMQdL7OioJLnxZXVB54+e23/tP/tvPwKbUIqj+ChZFWGAgLx4cfXjnz+89+9T8e3L6CJmZVSxCk+ExguggGTdxkO+YZCp95lubnVpYW1x0zoLo584vLKuqbZZtdV+wuEb8gSBkCIU2tRP5hQLpzgan/XvQjFMJOgoGwy+1GVCy/pCI6whCqeffoMD468GD88SMMeLHaxstqKcuHXbjv4OLcDCJSWw+caNm2N4xrlOpQXiG1kk1j2zZEJRE3laIMpOjSTpdndLDv5tefLM3PWMj1KVSCGA0LSkr3v/zWK3/+n3ccPOnJK8Qm42cwjLDQ7nQvzU5f/vx3f/r5P6j5+EG7DWfjsz7JZaLIFmyHnxoZmp0ced4T5NnK2O3O4orakopaq9UWDofEq5p124P9AUEi8UIbkUpBsQYpIBcja0T/Dq3LgFSMy2krqawtKqt0OFzRjSAkixWdykeH+qbHhtV/2zgg1l0rC4v3rn/9qOe2w+kqrW5o2bonVu5g0mmELVZrbkFhU8eehrYdD25fVgKBSO0bXILLap2bnujvuv64vzu/pBTRstD6rAAptVO5mr8BLFZL+57DDqc77+Nf3T7/2dzkGJQhgjt8f/gEALyL89e+/NC34pWsFkR5EVSjI0KMWth0mIaZATNB9VscGbs4Nz3Ue3d67LHN4VrdeOjhouNOSXVjRX0LOgOpwdGQ8VpB6kuQSmM1Hu6L2W6UNeo4mLT0KCXt+/z6wOhUCj23nipCEqnKDQzrEAW0tPCy2myFpZU5hcXehTmAewLgsznCG0SAxocfzYyPqBZKsA58nuYO9nX1370+OTpYWduy++irNU3tiCQqakkQSfMdq4uDK4HhQtsHTz5+2D07MSoD+/O3QpbnpyfuXPq8rKa+prEl4tKL83pCTcar5+2K8Fh2h6t15/68ohJERC5//r53cS6CzZETgQTDQSXYff0b/8rywVe+u+voq0XlFZZw4qqk6ebZmdYQmvz20e9ssozbgNy6OPHkEe4vEfX64OoHLnfz1t21ze3Y8RAmd76gWlOb+8TB2LODhmyB6F9CLhhhKjqaTlcK6tOnSs3YliHdqDFTXh+oEiOb3WHDddrWS8C3HAj4Yn7RZpVmp2Y7L305NtSPhiiva3rhle9U1tSiXzlsKXb/KSkp3Xn41XvXvl5eXAirpWci/46Aanlx/vb5z9t2Haqqb3mWNZ7ygq05KEA1v0S2yzVNra/8+d8UlFRc+fx3Q333EOez2Z04/9BisTscaCnu37yIzgrLS/MvnPp2eU1tOGRBZwUgugTpgcDVzeNdXOi9fQWdb9A5bI3Gh9CVk79l99G65s1qFzBI7A015qa5YPhEyoqynLrIIxTCXCQprCjrbX0Qa3i7043AIEatULVn3vhQ/72rXy3MTLk8eb4V74NbF8eHe7X0b4onDrttbmY66PfLNnsgtPz8ahaL4vdNjg713b3e2LarqKIaMcgQuU51OFLGH5Qka21ja853ij25eRc+ee9h1w2/z+twup/qbrsTwd7gg04liM4GKwdOvV3fstlqtSXPlRSyduegZxfAxoaHA923vAvzz+uoqQcvpyenfc+Rpo7d7pyc5ZWAWLDsFC1A+JTakOpcz5JM0mFWemqQ0iu9RrviTFp2iLhXtqgzRwzMt7wkRc0f9ym0WPMKinPyC9e1eIr0HZyaGH1w69LYcL9/ZVm22x/duznQfVsNAk1HSz6dL/qPHKUf8Yths6Hrqn0KOw6d/i6234ZCJEh+VAg0DPkD4fyi4sOvfS8nv+js+//SffNiwO9b7XCL5oD+MDbUd/b3/+pdmDnx1l/UNm9Wi7KGEvSCT/CYeLN80mv/Ht2rS5atTx713vrmk5GBB0rAjzvUqxLGRzGInu/BV98tqarzB8m5BqlGiqb/z6x5LDR2G0ENH5UNfAHSrHRGrP411RqkgFrpNQ2zp2udTTRybJchLukJAEJBRLaW5mdcntzVXyGCKNscFXXNxeU1qpJ/TvMsVrXvYG/X3Stnfctem8NhszsQQcTpB2GY1u2F1dbqNlwOW5LWLKZVxn0KH/Xc6rl1oWP/8YLiMsuz3oEw6iZhunsPhpSwJy93x+FTdofL5nR1XvoyFAxIFsuzqqQWGLbMTo5c+vz9hdmpF9/+y/bdh9SIR8tGLOTfw0dIz2rN58LhR5Il4A/cvXT26hd/8HmX0LN++uTDIRgOVze3733xW81bdztdroA2qg0J3SF9FDTq6ZjPLqoLCEk27OWKFBKEcrLAA0lgIeElgzHOV5Lmm0Bnc++Sd/D+7dnJ0XV6PKRgIKxpaS+vbY7+FS4IovYd7OvEuYNIfzVt2b11//HyumacGRZKt11DJHcw6Fu5ef6z2+c/RX99pisj/+5H1LPryrm9J//M7XIhApfaaiVYKEzvAHDn5HTsP+bOyyuuqLn86e/mpsftTrclEkYkyyAE5qcmbl/4PODzrXgXt75w0uV2KQowuKmvMVRDOwpKdofsW/ZfP/vHS5++NzsxgrhhhGqrfU7CJZV1L5z67v6X38rJL1QDg9POl2bbWSLZaJycizihg5AUEAoRks5RVu1Ob5Wmx0dufPUx0ko2h+s5MVMD+QpKyps6dpdW1cCoHkiyDfcdfNh1qx/nDk678wq3HTz5yvd+WlxSSvaekJYcenBnfnoCXT0SyIr+1+Fyjw323zj3UUP79trG1vSb18eCYhzBjwuQutztew7lFpSg6944+9Hs5FgIqmXeJMlqlRGz8a8s3718dtm7uLQ4v+voK0XFJUrIqijCZRjjdGO1Wm2yZXF+4c7FM2d++z8Hum+h8436WKVgwIcOEOU1jQdPv3vw1W+XVdcqwZCxvZGFGC4UgJBen8INqRTEcu9STKWgHkFK0F8IiLJVPTcHI5VT0Ozm5+Z7bnzTfe0bBGmy3fFs7mElGMgvLt9x+BROm/N4ouJB1NxB7+K9a18P3L9td7rKquubO/YUlJQGFGItYCXciQ40tO3YeuDE1TMfLC8tRCJWJDW70bs496jn1oOblwqKynMKCrQ0x0jhCKG2McKlZMprm15+96f5haWXP3sf+7SCAbx02MJnsVokpLB7bpxfmJlE2nz30dP5xWUW2QZDCuS1HS5jIogJvVWWrJISCE5Ojt+5+Pm53//bUG8n2mMWXDsNUcEg+kx1Y+vek28e/bMfVNY1BPxBSKR4IW06SDlSlI5dNJWUCUNCYmWdM9SQU2gERclUZyEg5y8ktlZSbOdYjHk+TdfCnppwOLS8OI+o1dcf/nJuelyyPC0eFmnd58rJbd9z5OgbPyyvaVCU5+a+SO7gUF9Xf9e1qZHB8rrmnYdfqWrAfQcVJUQsfwQTUEt1U9vWAye7rn61ODez5g2x2RDw3L7wef3m7fmFuxQapHD1RICYsdVaUdN08jt/5ckr/PzX/+/4cD9aOsvT2phPF3RsqO/TX/7j9Njj/S+/XdeyFXFZXLiVJywkPReYmP893XjqH9CxS/EHnvR3X/rsd9fP/XF69DFaHHSIUDMEcefF+tZth1//8z0v/llJRU1ICcP0axbSTsA3tWuQC9NV8qnJFGdBkRQCnpyFetr0Uk20B2xz7ePkdz7jUhbMYaySTQK+QOjB7Yudl850XvwSsRykkrDfC7tqgrj7kisHwdvJ7/51fetWRM2iKZdNxn0H7146Oz78EKmzwtLKHYdeLqqoDAbD0S9w2oiIOGnY7XLUtW5tbNvpXZgLBvxW7EySVCB0BPwr/V3XB3ruVDdtku0unIwPqTjncB1uJYQuXVhc/MKpN12enAt/+s39Wxd93iWbwxkpFR1pGTgy0Lv84c99y94Tb/+kYXOH1S4H+EiroACBiUJDLeo2kzBhxrpsYck73Hdz4N5NtGgPbl+enRi14HqtloBvBX2svLZx64EXtx18qal9F9pF4RAM4grvpiSCpnENUqKDpO9S+AiFaNXROPrA6fLkFbhwJ/MkOex+BS7OTSNQWZybfNzX03X1bM+NCwuzUzYciiIpwQD6sbvcdZs6Nu944eDp727acQjgYqTR2lwKK7jv4L2r53DfwaraxvadVY1q30EfcaWP+AIsKq3cdew0wpjBB3c8ufmrtBbd+9LcdM/NC/Vt25s7dqG1iKatxGcSCimhECgoKjl4+h3EC905+Xcvn4k09bU7XJG2x+h/psefXP3i9wiS97/0VsvW3W63O6Q2MtRLWNHn0YguT67H5VRpuC39ewhCEPAFUzugoPmgu8PdAXPc2FUr2xN8eCUYXlqYXVla8C7Oz02Pjw30Puq+Ndhze3SoL+j3qx0ngjn5xRV1zehn886D6PlW1jeHwyCoWkQlUZ1ASEpAqDmnkPZRg6NUCp0RpEb7C1ObAjpQh8OhmfGRwfudntwCbGiKVrjSGlMV0uXzM5NjAw/Gnww8vHtjqO+uf2UZ4ngEKRgMWK02tyfXlZNX1dS259jpXcdeKy5DJC+0LlgUEaPpydEHuO9g74p3qW3PkR2472DexkhJItXyELa5c/Padh9BzHV0qBfdX8QYiaHBakP7oq/zatOWXfWbttoctjRqzWgVf0BBgLfthRfRaqPDR+elLxZmpxGzCQX9Fhw7IyFQnJueuPDxr2fGnxx85butO1/IKShyuXEIElppiOuQa0JrtNC+FS9aZLvLg44pMYqa6uJF6p/QTPAmSYkhovmg20QHoNyCQpvdhZAs5sfQBgmHlJmJkcknA+hMMD70aKDn1vT4YyXgR9eUbfa8wlzZbnfnFTa0bm/bfbhl+77KuhbEpxELBKs9sNKkHOang1ylTFAgpFonIdOdi6R1xunbC/kMnDHsxJCejRSqzdmj+7PLNtzA/cLHv7r1zccWi5yktBVOjwv6fSv4v97FgH/FgpPibVDt+VdYWtGydW/HgeONbTsLy6qQllcLXYXX4i5uBTj4oPPOpTPL3gWHx1O/efum7Qn7DqZnKUWwYZWtRWWVe469PjM+2n/3aoQqPYX2cGji8aMHty617zlS3bQ5ugo2VNvZRa9V5K9puhLVNQwhLGzYsrOgtKJj/7HOi2c6L32JdH0k6xFbaC1weWm+6+pXaG6bdhzYeeTV9t2H3Dm58ZYIPJvq6mxxHU6bY2yw73f/4/9CdD/9sFhE9NEgr/3ofz357R8rCkgGq+vnA9T5TI4MffjPf2d3uiONt+J8F59FgoFAMOBD4Bfw+3zLSzgvAuBSroj/1TRurmnegkh8eW1zXmGxw+VBexgdD2Cy8wFZvyA1/U4Ac6ihICR9d9TxVU51wpIxOXPrv2BErwUiN0E7cCZVLIz0JEIEzrsYtFgXoigadozNTowGg+ApZknxt6b6K5sdFJSU5RYUO921ntxCT15+QUl5WXVjeV1TeU1DeU1jbn4+GkkJqMHrUR0nkKJH15oeH7t7+ezdy18i7da+53DLtn25BUXoQkmJzhqmqmeRQ6GwLNu27Ds+cP9Oz83z/mWv1WaLVPNGFw36/T03L9Sc+6iwrLKwuPjplHGZLoT1fgAWpGcd7RHwKwqivr40XYlqPG0Yqe+KmtrCknKk3NFRAB0OxoYfzk2NLS/ML8xOoR/v4jwihSODvX2d12qa26oaWqsbN1c2bi6rqrM5nNGJAUpIQacK75I3eg3Rk/Uuzo0NDaZEBddLwI87aO098QbirLiMUMKsBATYaO28SytwjUFBQug+8XgId26GiZ4yWm93rjO3sDg3v6igpALttPzisvyS8sKSyuLKmoLicvSP6NRld8jow8FgCKEmGR0L6Qc2QoqfZgHWhqbPp+CfFD5CIWskGAoj1rX7+OsllbVOV06Ko6jIgWhTXnGpOyffgXsOYSAsKqsqq27IzctFOzQYDPuwqw/GxHYcQRlUymsbD51+1+nybN59qLF9Jz7O03zn1XRGS35RyfaDJzG4rXgtanek1SnJNnt+camk9vRRcSWM/tyx/7jFanU4XaufRGzYarMj5EYsJLpETmoSQipcTauvb91S09SOKOmTR/dnJ8e8C7MLM5OLc9Nh1deFjgu4JDeQEGCHVdvoupVFMI8W/8Vv/yUCbrW6d9JnmIqeQtNAk2netk/B3CshdwyFi8qrj735I+/C3GrZMx3KTk33dHvyPPloaxV4cgvcufl5haXomILg0G5HZylsIkaU1CcqiApJutun570pf1crO5EAuU/F/I6U7jgxx05jQlpvTUpj6YneibTBhJaW3URac+mo+PaneQAQPrUpJvh+ZA7ov5KagJG+W07jA42YBzGZi2PxsVgsmtbq6b0Se1Wf+izhMzMyhNFOOBhZz4gVQLJIMa+uwTdGxoam9d4h1ODITBQ2umGDrTafT7bHqNPBbHUNpnJYJfuQUuCkcvoLYZh1NM5XReBMCncC14CXZHfYsXcmHbW9GvkOn/0vxKd4tbdfWMv9WbBX0WpVQScUxma0cDhNr5smUMSuQdkmW2OsMBogvCEyE62VNdZoSjhSyotcupc6UsTbGmnZKG08wUQmGQZqrMx6uyS+L1nrpk5n3kEF0+KkV0BM2ua0S8nmAONvsKf76mlDJdU7q4Zx6Q6dJY0eWYmCTMzAdIaSpue86dEoyWBSGIsXkvUZZgg11HwbhD2ukjGbgvLzzUxhFQKSRsdayHwqzFCQScogwUcMY/6NHh2E2j+iP1ZZvPxChAgRIiSbRX6OoETskml9iFwKBBsqof+GDas4A3TkhRBO+Yhf51TbY6L+MNedkbOKILLNAuCICOobMiP8goatHms6mA4Qktb4TEeMk0phdA1SXv2FGpQ9lfRHmAgOQfJ2TkDTBylgQyZBI/P8NxIp50ahIGSVxGAqoyiM929cdBxMcVSZyMlb01cZdYmlo8NTr8fNghrqbi5Bp/pMmntFZy8PdpzfpNBoaBVuEh41aOjkIJP0blZEkNpmgLQfFgM6iL4sfIRChAgRIiSrhUhCPfn2TMSsmgSnRKKgJe1J00iroMgLQYyasXq4HmtqqPF8zZIv8teIMG0iBQ2fGauOeNB8mwRyNg7QX1ZUGxDSLo5Jr5ftmn695GuQasYOrfecaCVom6l13g9FqzZhRAQ81NvjtUuu8eBnFASaCwU5TBmMc3nKvZYYnBWejS8T0nF6ulJQxVoea5AC3YEzLKmh5mLVdNc0WSgNoHaCEsIA/yCZYbjAP6pEkPtGg2vnw5FrMK2pCB+hECFChAjJapGJEhEOUilA3M7phlpHE80CGk4K9dwYC14I4oaVAnMaS7OTBRpIBM1IB3mOFCXVbpCrlIno78nkcUKL7tGp0riqQQrSCpzh2F8IjEu614OI+iNkBCiyVjTs8wJTv4JAQd2z5qW1FMF9JJNWvuQjSNNDAN4CZwDX/kL91BCwQUSJFL5tfHcENJLRMJDKqJkPgYDjaqKAXIAMtacMidyY8BEKESJEiJCsFpkSWyJLVVKcG/0IUhP5C/XRH82hpIx2TrIbSIOewqwniJDu9yF/9wAhJwtkngoyUbOClB8QNOAFkBMpW5iydRTQSKXgMMsemMdfmOK9a4Z6RgepZPbQtP2B2YCLkPoQkNf7YQyBZkZBY3LnGaRMxPq+nPw73ESQpjcLWoEzJDYJO39hiljIFTvUTxMBAS5tUnSErMeCvN4bhKzXzsz5gny6BgmsUpzvCR+hECFChAjJapGpUjkuUim4jiBNdFuQJilM5d55M5PqoX5EUyiSnkZZUkZo/OhGsAR65lDadJAGF+Q2UpTnlAmYGAjJaTU9qRQGBc5AU2MhYA6H3JpJUwVFOjM0a7FRyP0t8m4ONTkKkuo1SGM7EU+ZAEmBkJwK46nwI33HYHodKgzwFzJjh8ZsAm00MJvDRpmHjrA6WRjCAoEBfkEWFd6hifesxlGEj1CIECFChGS1yFoZFINIRXapFHQjSCnZSAHRpvYExtBjJjWYGgIdTkKzx4kSPkhDs83ZKC4IUmg3zxcXhATnRvrTBF22UC8QklO4MJJWCLIjcIYSFiaaJwmQSX0MnXdrMCKCVIyh8d5DDgHSFK1iMwoCIZ1fcoKCHAXIQHqbSaZJvOiMlCJubpwLxcAZQMdfmHyeJmGHlM4fzHAxtXdeIjdHPmCTH9rKHQvUMD63MaKAUYAMT49L+AiFCBEiREhWi6zv42xKfDGo+8Kq4gw9Gym9tAqQppk0JV4I+DEzUnMSQg7vK/uIIMmVSJEOZqZFlMZjgKz2lqxxHIkAUHFWgzRT/YVEIT3VtU3dUgr4jEzJFiehGSYLofFrI/yCad4Y25qiSUeRtY/J2lnIqHkvk7fdKH8hCWWd1jCm9h0Sf/t5dBJmBQXkAwIB7/mCzB4o88INSUcRPkIhQoQIEZLVIqf4PUNqXdIYk0kE6eqZLj0bKUgxdcJYM2mqN0+0OqipeRAQd5+15lBKXJD/SFHI9vuyrpHJWkezLXAmbSwExqZVACPMpASuKyQr8Q+w6kEF+V0AjRPiNkAGMtuBcgojSgRoXZYGzoB0/YVJ7pJ2NCmZwUggogDFDKe+PFDAdFEQGrcGjFCQuwCZVEcRPkIhQoQIEZLVIqc7AJt4TTYRpKbxF4K00io44YXrTryCHQoWCCEX09A8Vjb7BQGfrUtSvYqc2rUIOgs5CpwBGeUvNA0cRr/66aWYCFA0H/hxiH/JRqSdCG4KvyDNABnIfnPKKV+DEEpQDJzJGn8hR3CY7nhpuA8FKJoJ/EyIf7RZoFlQkEazY6Ncg6sifIRChAgRIiSrRSYzDIkIUhosLzv8hSCtfoWkqS5haijYoWCBbLggMKxqDEMuCJj6BQFDR2J6qyeneV0SNUh1fptZAS62/sK0dT5IGkEDWJlJCQ9JbnWAwEWjYAZCTidGAOJ4hEBgbL6gngtBWvfJkBEaFjhDpWSp1uvRw2J60aSGsENANheeEE1M8LZkITpS1Iqc8z8CLBBwGBdDDh3SGALq/aDB5yThIxQiRIgQIVktMuHxmEWQsplXwlI6kF9SmIjeGGImBcTLpBFlh9lDE6lbxSA0x2yNNocCdhZRQKGjEdl5QsO3iEzkfiRiapRW6TVAIHAm2V9IKxMSxj++zKRUEJEaKCZ917ju/MX0YtBk8zfUHMoWBQnAjSnyJdJ8KjLB1ZeMet0l+vNMiIWAU2rILzukODZlUEztxZPYXs6k4Gcs/rFhgcAovyCnYaK87BzhIxQiRIgQIVktMq2B03YW0oggTWtqBvkLCXEbEmZSYBJLabyzt2SYLdP0jQghNPH6QFYf4YgLAgP8giwjRUmvpEz2YZBLK9QZOJO5/sLVV8h4MykrRASUVpIbXBTIx+hwQADfIP/LaSKLKG+uQVqM0LDAGZDh/kJCWEiCHTKAfTadeDcqp2yGRsiOtZoEAgUKZgsKAuEjFCJEiBAhWS7kfYQUSldKFCMzzeMvBMTSKgD/ZtKYJz7qfC1LOCI0wGXJFd+EDCeb4X5B3SNzmmYqs8h9SBcZoD6Lp8Rqdsb5C8mpaBLJhKyyZwyooJ1YjfEMk9D4AB3I2cUgw1nTXn4uLKKAbXNemksqU1LdRANndI6REhaCdKghYNS/0BB2yBVBNBIU09F2RCATmiD4FPJ3Pch84oahIOMwTKYnC7rbTPgIhQgRIkRIVovMzv3GcQQpAdbKsH/hurMn0UKbEoElYksNgSmaDkKYwUoEcnxVxnSQORcEafYXTP2r5o8UXQOEpJCKHB4l0cP0Eu0JYSGIaSMFlCNoAFdmUlobSvfrKVIFMwT2+MY/IyEQcGoRBdwHyESPKm/Q3NAUgTM8+gvXfDnGhc3GDgkhoqHQJHDR9MincwbZAYHAPH5ByPfme3oB4SMUIkSIECFZLfIqiYliQpxHkJrVX8iGFD6lPmwdhzoW2LBOJbHPl4Ij8kgBaRFBk3HBJHQws/2CgIFrEK7+n8xGQxMNnHk+pOn8hcyAgLGZFOh1hTIPqBHQyDXmUcc/80EgyHK/IGS6UeU4CpxJ4EwW+QvX61jIBAspsEOg3Sco6d3ufECQGdvwmhLw0psfNOjWjYdAkHV+QXo9jFdHFj5CIUKECBGS1SJvPO5TjSCFdJxm3PsLY/+FDdUgaiYFesNFJfIDc0paJI7nljFcEBq3JNnIBQH7TExGXHDN4HBj0W1IN3CGzi1RR7Z0sfC5pjQgrQJQMZMCvb5DHWhhggz5zEKjDAG/zINAQMrpBtltaGiKzbcODGXSWj8lUgjYBs4A5v7CNRc1IJqUGjvUvTap00QgQjyzCPx4wD/AsCIQpehQNiho0gCZ6AsIH6EQIUKECMlqkTWwpkyMIAVG+AuB8WkVgJaZFKRQfE33/Qp2mOkskBMiCNhWh6WUJgHoWzdNHSmqAQhNGTijM9E+1YsSmiaIl1YBGJpJAaBnKdWHiAIUBfixUfJ84x8wuDxZiomZnCfOg5gBMloZIYPAmaz2FwLj2SFNONQNVmRAUeAi97DHG/hlGAtki4Km8AvCOGD4XISPUIgQIUKEZLXIxNlSWtSIzEVN4i8EBnerYMUL1x3D6CdQCKtpRrHAjCKCgHKaBBB+wZRuU9b+dUqBM7GVfpb4C9cD93rlzTjFnFocTVqHDmKgKNDRCAyCBl6bJ/wDNJPl0xojY/2Cz8dOOr6sdcYSw56FabC0jQjDxl8IiEWTGs8OmSBiiuhGhuwJnyJl6OEW/HiCQMBF2z4O/IK0Vx1quK7wEQoRIkSIkKwWraZRAyJIiY4K6TfMI2PNBYmqz7AnMPR9h0azQ5Ch/SaYH8k5Z4GGEMGE9wZJ3ToDOghpPiyjIkVTAkKwxk9onkR7wMxfSGxF1iTdA8PNpICR7zAtuKdi7Ezw8pgCIyHnw2cy/gH65tC0xjDELwgMSpzXcA2Zz/eXQiFOFv5CwtjNGTs0CBEBkRAZid7stIhkxEV5BFZoyHbNPBYITOcXBMxLieoR4SMUIkSIECFZLToZIasIUjqlVszjL4wxEC9m0uiztsTo2gS8gQYHipqwRRM07c1DyNuikXexmc8vyIgO6ogUTQMIo7Qv7Z6FfPkLgUFpFWBjMTbAiZkUMLWUEka0LIyPYQhTxgARhHwuI1UXG61vmtAvCPQGyKQNhIBF4ExcakjUXwjMwg6TwSEwtIeyEYhIjCxmCUBCUw9vPgg0OwsEZvML6g6QiRbhIxQiRIgQIVktaUSNZoS/UPekDUyrAFybSaPP5pIxl6cYK6rlfGkga4RZck2eiCBgZQ5NaxiY8mcz3y9ICAijgMHU/kLdQJVGWgXIAjPpOg0lGWlVpJ5GwRcyZMGdQcjzivBkDjUWBc3gFyQKhGw3Hx1/IWAWTUoeDgF3uYbxNJckcbKJ+CFyAvlMhn+AVY4gSxSkjd6mOCAKH6EQIUKECMlqIcEIWUWQAoqt3NmlVZBks+vHimsm5YH4cGMv1XhyzgamyPVhHUJTrBSVMpymTJMwgA6mFSlKGggB01ZNdPyFzwdKsV2elPqGoWMmBXxaStfpOIlfuDF7pVETQJ3AP8IPLEUUpOXPhPSfDCR0MZnw3OgHzsSlhkRLucAUqj5LhO6F2LrEHhjypMh5pYnElVVGFBvNDvAzHwvMSiII0g6QiRbhIxQiRIgQIVktpKNGs9ZfmDYpBGSnD0xjJjU5O8x2MpdhLBCYzhwKhF+QQyAEGegvBHrTKgA3ZlJzImKmg6IAPwGBJAaD6Xxc+AVpA2GURje/vxCYmx3GOC9wHVmqRXsKXBTIZ3b8ywQWCEzvF4wW4SMUIkSIECFZLTQry2SCv/D58MzSKsgzW528EPCdHyCspoIFMuFkvHoEgdFpEgbRQUjzYjKLvWagvxBwkFYBTGYmNQsixtS5AhoF8qWHI5ljDgWsip+a1C+4BghZOIcM9BcCKtGkukGCT3YIEsXRUKHWzJWywEUBe4bjn6EskC4KmtovGC3CRyhEiBAhQrJaWHefMMBfSJhSpdrIMO05UDFXaqOGZrGUaqQvgiZmA//TzFoEF0xxDkz9gmyAEDKxjtJDp5hPiFqPvvTSKtKGFPotH5P7DoGZi1ILz2KmYp4eHU0X/wyBQMCw+Btk/PQob045CXhQULVr9bhJ/YXPr5DikByyw7gEEZg6oCZ9DMgkmISZXuIGav8lNGQOFIdgEB0KWPkFAf0AmejhhY9QiBAhQoRktchEiYpWJrSWRdH1F8ZgLRTaPaRyD4TMpICepRSsM5aCzIgspcGieGCNMIsLmkJdv+TWFgrSNIcCqhZRyPAxQiaXhPGAEDD0FzKzkQKKZdjAOpchYG4mZXGUkJKjd2a4DwUIZQr40cUIKijIjzkUMM6XB0ZZREECIASZ6C8E8arPAMEOU5teoqtlkvtQiMC/bGaB2YCCQPgIhQgRIkRIlousg0LR4WjM/IWAelrFmisYayalTg2BvshSwQ6FZAwLJDk8TP9LGUcHjXh2svEb3HB/IaCRVgFSrE1KDsqo2yf1BNQIUBRCByOMi+43GAKpF0LNSItoPBGmUSFChAgRktUi6yZPlI4FktGkENDqe5Q6MyPEUxmFPoFoGgwEOxSSMSzQcCIIqFp+syZAJsEV5KRqklGWWJS/ENCvRwpYpBiuX78UxyYKh4CB3xdoSrcQoChEv/YzLqjfuOFY1kKFDJ85ZH5hmJwRJlPSkBUWJvojG3ZIsbi18eyQESLGADdNeCdAUYCf4eSP/HUEC9xwEcYomPQKwkcoRIgQIUKyWmTtnIOlv3DDH9na82jdMCEzKVFqyOiZriF6gh0KFsgjC+SECAIjWkNlMx1En5B1wR1T1bkGA1lcmX5axZpB0wI1ciDNugpMXCeiVlAU0JhxyGekbqZ1KQ7NoQYfM9b6BTkxccONjFCzkoVs1FCMaFJG1BDE9BpmNDtkjYix4Q9qBzsdHxXCI5ZAVojEFgIFC9RCBCEfTzbqE8JHKESIECFCslrkZHTFUFIINpZhY0dHzWQmpUAN2XGsuHZPHV7CmKc/QRM5I1IG2z/pXhaS+mommUM30EF+gn6hFiDUAHfs1CU0wF8IGCXdr1/LtO6N6MIY2UEiSfaF1nkJ86nRSp4X+2eW4h/gwvfKrV9QMxCCrPYXgsQuQ0DXa5guHGYGIiZCM90wF+/1EABJSFNxB3sUZwHJDpBhLBCYwi8YLcJHKESIECFCslo0dJ/g2l/I6ExvPjMphelxkdhHjiBqOUVmJFmEtEeCmXenxMbNEnNoHFbIKR0EpNowGecvZIfFcZPuqajM5+NyFUdjwBPXu7OlBFteIv9qcQaW0JCBIQDZsAic45/xJxMj2yqleR1Zx3Wk9D9CUgdvqNDN8uLMbh5Gq3Yp/W2SeRxRK2UElLyEnKEAfX0CTTpvw0bPAhYIjKoao/UiyT4kfIRChAgRIiSrRdZh5eKHFIKY/SmYGmgBi9qk69kcAV5HbZE4LQ2qiQQKL6EpqS7k+wLsGhzxQQehEZeHhD4k69PiGtQoazgCBqRVxL1TuuE75BCRMmoZnHFBDCBBVngJzWbbhdyPbqBH0KgSddCIGUByD1ROBcK4oobAyGhS5uxw/TUJHDtorpb5OkgkfW0kQZ0E+TOaAgKOnIKAeXQoWQiMfFT4CIUIESJESFaLnCKX45IUAiPSKuLyQuq8lKjvkP6EM6S/YArHXsnQqwsWSPkyWUYEgbFpEqTpIIwHhMCU/kJgcFpFovtlgYgSyUvRf2zZ1XQ3m9DLNEsFaYwB2U/YeKeg+VEQxM8jNLe/cANLBMbDId2FWI+AJH2HDEExW6BRiCF6HFIaJhtY4PPLZgQErv+o8BEKESJEiJCsFpkAl+OQFD5jFmv5IcgOM+nzCxC7Gtt8iOwynAoWaFYiaAwXBNnnFATULKIagRCY1V8YNfe1180GM2mMK5NHRCNAUeCigD1DrmpARyMuexhDg+ZBGwWBtlqjevyFgI/+hRuutwEOJfYPkjk7BFR8hwbRRIGLAvkYX96Yjn4ctfQwOC4GpNdQQtenhY9QiBAhQoRktcgkw0O1kQ5j6BgwsvpMkoVhYa+l4zvceMxiy9HINFsSYlLyR2cexlgl+ertaLw5lDQdTPJRWQ846YEwmAQLDdBZRifdJ7l3Ru7LNahF/kFwEOgi0DHDYY/abKBRtwv5WeoMi4vR+mlZpx7Wo615iyYFXCTdJ7l3Q2oQUMIvnqI/qbQiFICXaeAHeMiMMxwFuXYKUkBBKHyEQoQIESIky0VOiaIR8xcCo9Iq1pNBw4y1sa9qQP8MQCWylEt2qPG4mMFkEWb9RAURjHllaOhsqNaOSfwJOVWUI+Yv1D8cYTg01mXILSJSvLJJEuY1vnEm70aYXShtcHoe5PCpcYGCRllEQQIgBFniL4y66gaXoWH6Le4iGOA7fLokdGHL/ImBoqQ25yvIU+c+3jaPkbVD+UFBIHyEQoQIESIky0VOm6KZ3F8IeKlNGms6un5HdTpSDKpInYuK11OwQLLDcxQBKcyhdOhgismHMgmUI+8vBMJMmvjahmU/AvL1S7VvWAGNAvl0X4cvBQ/5eBLmMIcC6hZRrUAIDPIXGskOpZh/NBgOgcFxNIlAkR2LE5VGBezxDH7c41+MyQgUVEX4CIUIESJESFaLrPFzVPyFgOO0CsCXmZRLagji5SAymo6opZaV/C/+NSGHiwC5eUKQg2lBKtuJQFFSOYWrkeyzxG1aBeDRTJpkBkZGmiRyIgJD2jILaMwUzDMd+HGFfzHmk00oqHE8ObX7IRn7yW00KcfsMPm5hAu3ptGgmPhVEADJK+DxzrJ4xz++WKBRKKhrMOEjFCJEiBAhWS1yal8jnwTBc1oF4NdMCrjLO0x6LJN4if1MfGLMBr4IzTIjyP9yQf6W0DTmUMA0QJQkEIJsS6sASc2kvCCipBstDXw12GZf0HiDOcRLs9V8g/zfhglsoXzhn7lQMC0g1Ale5o8mTcIODZ6U1iXkgsRqAkVzEDNRaTQjYcW0E+UEBbmNDo0nwkcoRIgQIUKyWv5/AQYAvSAuhi7oRNcAAAAASUVORK5CYII=;" vertex="1" parent="1">
                    <mxGeometry x="490" y="290" width="200" height="200" as="geometry"/>
                </mxCell>
            </root>
        </mxGraphModel>
    </diagram>
</mxfile>